<svg xmlns="http://www.w3.org/2000/svg" width="25.816" height="25.814" viewBox="0 0 25.816 25.814">
    <g data-name="Grupo 8446">
        <path data-name="Trazado 8296" d="M9.834 16.451a6.617 6.617 0 1 0 1.938-4.679 6.616 6.616 0 0 0-1.938 4.679z" transform="translate(2.247 2.247)" style="fill:none;stroke:#000;stroke-miterlimit:10"/>
        <path data-name="Línea 732" transform="translate(18.696 15.389)" style="fill:none;stroke:#000;stroke-miterlimit:10" d="M0 0v6.617"/>
        <path data-name="Trazado 8297" d="m13.166 15.833 2.481 2.481 2.481-2.481" transform="translate(3.049 3.691)" style="fill:none;stroke:#000;stroke-miterlimit:10"/>
        <path data-name="Trazado 8298" d="M8.772 22.005H2.155A1.656 1.656 0 0 1 .5 20.351V2.154A1.654 1.654 0 0 1 2.155.5h11.722a1.653 1.653 0 0 1 1.169.484l3.168 3.168A1.653 1.653 0 0 1 18.7 5.32v3.45" style="fill:none;stroke:#000;stroke-miterlimit:10"/>
    </g>
</svg>
