<svg data-name="Grupo 6940" xmlns="http://www.w3.org/2000/svg" width="46.562" height="47.424" viewBox="0 0 46.562 47.424">
    <g data-name="Trazado 10205" style="fill:none">
        <path d="M23.281 0a23.5 23.5 0 0 1 23.281 23.712 23.5 23.5 0 0 1-23.281 23.712A23.5 23.5 0 0 1 0 23.712 23.5 23.5 0 0 1 23.281 0z" style="stroke:none"/>
        <path d="M23.28 1.5a21.28 21.28 0 0 0-8.468 1.741A21.692 21.692 0 0 0 7.89 7.996a22.169 22.169 0 0 0-4.674 7.061A22.448 22.448 0 0 0 1.5 23.712c0 3.003.577 5.914 1.715 8.654a22.169 22.169 0 0 0 4.674 7.062 21.692 21.692 0 0 0 6.923 4.755 21.28 21.28 0 0 0 8.469 1.74 21.28 21.28 0 0 0 8.468-1.74 21.691 21.691 0 0 0 6.923-4.755 22.169 22.169 0 0 0 4.675-7.062 22.449 22.449 0 0 0 1.715-8.654c0-3.003-.577-5.915-1.715-8.655a22.169 22.169 0 0 0-4.675-7.061A21.691 21.691 0 0 0 31.75 3.24 21.28 21.28 0 0 0 23.281 1.5m0-1.5c12.857 0 23.28 10.616 23.28 23.712s-10.423 23.712-23.28 23.712C10.423 47.424 0 36.808 0 23.712S10.423 0 23.28 0z" style="fill:#525252;stroke:none"/>
    </g>
</svg>
