<svg xmlns="http://www.w3.org/2000/svg" width="109.842" height="109.841" viewBox="0 0 109.842 109.841">
    <defs>
        <filter id="xc0a1jbeha" width="109.842" height="109.841" x="0" y="0" filterUnits="userSpaceOnUse">
            <feOffset dy="5"/>
            <feGaussianBlur result="blur" stdDeviation="5"/>
            <feFlood flood-opacity=".2"/>
            <feComposite in2="blur" operator="in"/>
            <feComposite in="SourceGraphic"/>
        </filter>
    </defs>
    <g>
        <g>
            <g filter="url(#xc0a1jbeha)" transform="translate(-255 -707.159) translate(270 717.159) translate(-15 -10)">
                <path fill="#fff" d="M68.264 11.474A40.393 40.393 0 0 0 40.07 0C9.564 0-9.591 33.051 5.642 59.342L0 79.841l21.075-5.5c9.182 4.96 16.7 4.521 19.015 4.814 35.373 0 52.981-42.795 28.124-67.555z" transform="translate(15 10)"/>
            </g>
            <path fill="#24c12a" d="M78.5 107.753h-.073a33.52 33.52 0 0 1-18.014-5.3l-12.475 3.244 3.343-12.126-.8-1.248a32.83 32.83 0 0 1-5.043-17.5c0-29.252 35.745-43.879 56.431-23.2 20.637 20.451 6.149 56.13-23.369 56.13z" transform="translate(-255 -707.159) translate(270 717.159) translate(-38.354 -35.394)"/>
            <path fill="#fafafa" d="M165.856 161.98l-.03.249c-1-.5-5.878-2.884-6.786-3.214-2.039-.755-1.464-.12-5.379 4.365-.582.649-1.161.7-2.149.249a27 27 0 0 1-7.994-4.94 30.182 30.182 0 0 1-5.522-6.886c-.975-1.683 1.065-1.923 2.921-5.436a1.829 1.829 0 0 0-.083-1.743c-.249-.5-2.236-5.389-3.067-7.339-.8-1.943-1.62-1.7-2.236-1.7-1.916-.166-3.317-.14-4.551 1.144-5.369 5.9-4.015 11.99.579 18.463 9.029 11.816 13.839 13.992 22.635 17.013a13.762 13.762 0 0 0 6.254.4c1.909-.3 5.878-2.4 6.707-4.744.848-2.345.848-4.291.6-4.741s-.9-.7-1.9-1.148z" transform="translate(-255 -707.159) translate(270 717.159) translate(-107.615 -114.385)"/>
        </g>
    </g>
</svg>
