<svg data-name="Grupo 9391" xmlns="http://www.w3.org/2000/svg" width="27.957" height="28.475" viewBox="0 0 27.957 28.475">
    <g data-name="Trazado 10205" style="fill:none">
        <path d="M13.979 0a14.11 14.11 0 0 1 13.978 14.238 14.11 14.11 0 0 1-13.978 14.237A14.11 14.11 0 0 1 0 14.238 14.11 14.11 0 0 1 13.979 0z" style="stroke:none"/>
        <path d="M13.979 1c-3.464 0-6.72 1.375-9.171 3.87C2.352 7.373 1 10.699 1 14.239c0 3.539 1.352 6.866 3.808 9.367 2.45 2.496 5.707 3.87 9.17 3.87 3.464 0 6.721-1.374 9.172-3.87 2.455-2.501 3.807-5.828 3.807-9.367 0-3.54-1.352-6.866-3.807-9.367C20.699 2.375 17.442 1 13.979 1m0-1c7.72 0 13.978 6.374 13.978 14.238 0 7.863-6.258 14.237-13.978 14.237S0 22.101 0 14.238C0 6.374 6.258 0 13.979 0z" style="fill:#fff;stroke:none"/>
    </g>
    <path data-name="Icon awesome-instagram" d="M5.971 5.148a3.063 3.063 0 1 0 3.063 3.063 3.058 3.058 0 0 0-3.063-3.063zm0 5.055a1.991 1.991 0 1 1 1.992-1.992A2 2 0 0 1 5.971 10.2zm3.9-5.18a.714.714 0 1 1-.714-.714.713.713 0 0 1 .717.714zm2.029.725a3.536 3.536 0 0 0-.965-2.5 3.559 3.559 0 0 0-2.5-.965c-.986-.056-3.943-.056-4.929 0A3.554 3.554 0 0 0 1 3.242a3.547 3.547 0 0 0-.965 2.5c-.056.986-.056 3.943 0 4.929A3.536 3.536 0 0 0 1 13.178a3.564 3.564 0 0 0 2.5.965c.986.056 3.943.056 4.929 0a3.536 3.536 0 0 0 2.5-.965 3.559 3.559 0 0 0 .965-2.5c.056-.986.056-3.94 0-4.927zm-1.274 5.985a2.016 2.016 0 0 1-1.136 1.136 13.167 13.167 0 0 1-3.522.24 13.27 13.27 0 0 1-3.522-.24 2.016 2.016 0 0 1-1.136-1.136 13.167 13.167 0 0 1-.24-3.522 13.27 13.27 0 0 1 .24-3.522 2.016 2.016 0 0 1 1.139-1.135 13.167 13.167 0 0 1 3.522-.24 13.27 13.27 0 0 1 3.522.24 2.016 2.016 0 0 1 1.136 1.136 13.167 13.167 0 0 1 .24 3.522 13.159 13.159 0 0 1-.24 3.521z" transform="translate(8.009 6.026)" style="fill:#fff"/>
</svg>
