<svg xmlns="http://www.w3.org/2000/svg" width="40" height="40" viewBox="0 0 40 40"><path d="M244.259,20h12.576a20,20,0,0,0-20-20C242.357,0,244.26,10,244.259,20Z" transform="translate(-216.835)" fill="#e4e4e4"/><path d="M0,20H28.283c0-10-2.761-20-8.284-20A20,20,0,0,0,0,20Z" fill="#f3f4f5"/><path d="M243.839,236.842c0,10-1.481,20-7,20a20,20,0,0,0,20-20Z" transform="translate(-216.835 -216.842)" fill="#d84141"/><path d="M28.283,236.842H0a20,20,0,0,0,20,20C25.522,256.842,28.283,246.842,28.283,236.842Z" transform="translate(0 -216.842)" fill="#dc4d4e"/></svg>