<svg xmlns="http://www.w3.org/2000/svg" width="40" height="40" viewBox="0 0 40 40"><g transform="translate(-130.931 -58.932)"><g transform="translate(130.93 58.932)"><g transform="translate(18.804)"><path d="M236.836,390.366a19.958,19.958,0,0,0,15.752-7.684H242.054C240.695,387.215,239.936,390.366,236.836,390.366Z" transform="translate(-235.639 -350.366)" fill="#c42126"/><path d="M222.67,473.259h0Z" transform="translate(-222.659 -433.293)" fill="#c42126"/><path d="M242.054,7.684h10.534A19.961,19.961,0,0,0,236.836,0C239.936,0,240.695,3.151,242.054,7.684Z" transform="translate(-235.639)" fill="#c42126"/><path d="M222.659.416h0Z" transform="translate(-222.659 -0.38)" fill="#c42126"/></g><path d="M309.166,90.991H298.632a48.364,48.364,0,0,1,0,24.632h10.533a19.978,19.978,0,0,0,0-24.632Z" transform="translate(-273.413 -83.307)" fill="#ffc40c"/><g transform="translate(18.815)"><path d="M223.976,473.3q-.6,0-1.186-.034C223.188,473.287,223.585,473.3,223.976,473.3Z" transform="translate(-222.79 -433.299)" fill="#c42126"/><path d="M222.79.035Q223.379,0,223.976,0C223.585,0,223.188.013,222.79.035Z" transform="translate(-222.79)" fill="#c42126"/></g><g transform="translate(4.249)"><path d="M72.75,382.682H50.309a19.962,19.962,0,0,0,14.554,7.649h.011q.589.034,1.186.034C69.16,390.366,71.39,387.215,72.75,382.682Z" transform="translate(-50.309 -350.366)" fill="#d32030"/><path d="M50.309,7.684H72.75C71.39,3.151,69.16,0,66.061,0q-.6,0-1.186.035h-.011A19.963,19.963,0,0,0,50.309,7.684Z" transform="translate(-50.309)" fill="#d32030"/></g><path d="M0,103.307a19.9,19.9,0,0,0,4.248,12.316H26.691a48.364,48.364,0,0,0,0-24.632H4.249A19.907,19.907,0,0,0,0,103.307Z" transform="translate(0 -83.307)" fill="#ffd034"/></g><path d="M209.265,219.379l.585-2.631a.388.388,0,0,0-.379-.472h-.412a.388.388,0,0,0-.379.472Z" transform="translate(-61.369 -141.275)" fill="#c8414b"/><rect width="1.379" height="5.862" transform="translate(147.207 76.724)" fill="#f5f5f5"/><rect width="2.069" height="0.69" transform="translate(146.862 76.035)" fill="#fab446"/><g transform="translate(136.958 75)"><rect width="3.448" height="0.69" transform="translate(8.525 3.104)" fill="#c8414b"/><path d="M205.1,275.034l-2.069-.69v-.69l2.069.69Z" transform="translate(-193.13 -269.172)" fill="#c8414b"/><path d="M76.851,219.379l.585-2.631a.388.388,0,0,0-.379-.472h-.412a.388.388,0,0,0-.379.472Z" transform="translate(-76.257 -216.275)" fill="#c8414b"/></g><path d="M106.621,229.517a.69.69,0,0,0-.69.69v4.483c0,.838.782,2.414,3.448,2.414s3.448-1.576,3.448-2.414v-4.483a.69.69,0,0,0-.69-.69Z" transform="translate(33.345 -153.483)" fill="#f5f5f5"/><g transform="translate(139.276 76.034)"><path d="M109.379,232.965h-3.448v-2.759a.69.69,0,0,1,.69-.69h2.759Z" transform="translate(-105.931 -229.517)" fill="#c8414b"/><path d="M150.069,273.655h3.448v1.724a1.724,1.724,0,0,1-1.724,1.724h0a1.724,1.724,0,0,1-1.724-1.724Z" transform="translate(-146.621 -270.207)" fill="#c8414b"/></g><path d="M105.931,273.655h3.448v1.724a1.724,1.724,0,0,1-1.724,1.724h0a1.724,1.724,0,0,1-1.724-1.724Z" transform="translate(33.345 -194.172)" fill="#fab446"/><g transform="translate(139.965 79.483)"><path d="M133.1,276.751v-3.1h-.69v3.413A1.707,1.707,0,0,0,133.1,276.751Z" transform="translate(-131.034 -273.655)" fill="#c8414b"/><path d="M115.448,277.069v-3.413h-.69v3.1A1.708,1.708,0,0,0,115.448,277.069Z" transform="translate(-114.758 -273.655)" fill="#c8414b"/></g><rect width="2.069" height="0.69" transform="translate(139.966 78.103)" fill="#ffb441"/><g transform="translate(139.966 76.724)"><rect width="2.069" height="0.69" transform="translate(0 0)" fill="#fab446"/><rect width="1.379" height="1.249" transform="translate(0.345 0.41)" fill="#fab446"/></g><rect width="1.379" height="5.862" transform="translate(136.862 76.724)" fill="#f5f5f5"/><g transform="translate(136.517 76.035)"><rect width="2.069" height="0.69" transform="translate(0 6.207)" fill="#fab446"/><rect width="2.069" height="0.69" transform="translate(0 0)" fill="#fab446"/></g><rect width="2.759" height="0.69" transform="translate(136.173 82.931)" fill="#5064aa"/><rect width="2.069" height="0.69" transform="translate(147.207 82.242)" fill="#fab446"/><rect width="2.759" height="0.69" transform="translate(146.517 82.931)" fill="#5064aa"/><rect width="4.138" height="0.69" transform="translate(140.655 75.345)" fill="#fab446"/><rect width="0.69" height="2.069" transform="translate(142.38 73.276)" fill="#ffb441"/><g transform="translate(139.621 72.241)"><path d="M129.034,183.035A1.034,1.034,0,1,1,130.069,182,1.036,1.036,0,0,1,129.034,183.035Zm0-1.379a.345.345,0,1,0,.345.345A.345.345,0,0,0,129.034,181.656Z" transform="translate(-126.621 -180.966)" fill="#f5f5f5"/><path d="M146.69,183.035A1.034,1.034,0,1,1,147.725,182,1.036,1.036,0,0,1,146.69,183.035Zm0-1.379a.345.345,0,1,0,.345.345A.345.345,0,0,0,146.69,181.656Z" transform="translate(-142.897 -180.966)" fill="#f5f5f5"/><path d="M164.345,191.863a1.034,1.034,0,1,1,1.034-1.034A1.036,1.036,0,0,1,164.345,191.863Zm0-1.379a.345.345,0,1,0,.345.345A.345.345,0,0,0,164.345,190.484Z" transform="translate(-159.173 -189.104)" fill="#f5f5f5"/><path d="M111.379,191.863a1.034,1.034,0,1,1,1.034-1.034A1.036,1.036,0,0,1,111.379,191.863Zm0-1.379a.345.345,0,1,0,.345.345A.345.345,0,0,0,111.379,190.484Z" transform="translate(-110.345 -189.104)" fill="#f5f5f5"/></g><path d="M160.275,283.173v.345a.345.345,0,1,1-.69,0v-.345h.69m.69-.69H158.9v1.034a1.034,1.034,0,1,0,2.069,0v-1.034Z" transform="translate(-15.482 -202.311)" fill="#fab446"/><path d="M164,240.413h0a.69.69,0,0,1-.69-.69v-.69a.69.69,0,0,1,.69-.69h0a.69.69,0,0,1,.69.69v.69A.69.69,0,0,1,164,240.413Z" transform="translate(-19.551 -161.62)" fill="#ffa0d2"/><circle cx="1.034" cy="1.034" r="1.034" transform="translate(141.69 78.448)" fill="#5064aa"/><rect width="0.69" height="2.069" transform="translate(142.38 71.896)" fill="#fab446"/><path d="M115.448,196.276l-.69-.69.4-.4a3.33,3.33,0,0,1,2.355-.975h0a3.33,3.33,0,0,1,2.355.975l.4.4-.69.69Z" transform="translate(25.207 -120.931)" fill="#c8414b"/><g transform="translate(141 74.31)"><circle cx="0.345" cy="0.345" r="0.345" transform="translate(1.38 0)" fill="#ffd250"/><circle cx="0.345" cy="0.345" r="0.345" transform="translate(0 0)" fill="#ffd250"/><circle cx="0.345" cy="0.345" r="0.345" transform="translate(2.759 0)" fill="#ffd250"/></g><g transform="translate(136.517 78.103)"><rect width="3.448" height="0.69" transform="translate(0 0)" fill="#c8414b"/><path d="M70.621,275.034l2.069-.69v-.69l-2.069.69Z" transform="translate(-70.621 -272.276)" fill="#c8414b"/></g></g></svg>