<svg xmlns="http://www.w3.org/2000/svg" width="15.627" height="16.266" viewBox="0 0 15.627 16.266">
    <g data-name="Grupo 9388">
        <g data-name="Grupo 9382">
            <path data-name="Trazado 13592" d="M14.927 5.978v7.612a1.909 1.909 0 0 1-1.91 1.91H2.409A1.909 1.909 0 0 1 .5 13.591V5.978a1.523 1.523 0 0 1 .626-1.231L6.354.942a2.309 2.309 0 0 1 2.719 0L14.3 4.748a1.522 1.522 0 0 1 .627 1.23z" transform="translate(.1 .166)" style="fill:none;stroke:#c1a664;stroke-miterlimit:10;stroke-width:1.2px"/>
            <path data-name="Trazado 13593" d="m.914 13.93 7.064 5.687 7.065-5.687" transform="translate(-.165 -8.44)" style="fill:none;stroke:#c1a664;stroke-miterlimit:10;stroke-width:1.2px"/>
            <path data-name="Línea 1371" transform="translate(10.301 10.793)" style="fill:none;stroke:#c1a664;stroke-miterlimit:10;stroke-width:1.2px" d="m0 0 4.175 4.306"/>
            <path data-name="Línea 1372" transform="translate(1.151 10.793)" style="fill:none;stroke:#c1a664;stroke-miterlimit:10;stroke-width:1.2px" d="M0 4.306 4.175 0"/>
            <path data-name="Trazado 13594" d="M12.47 8.736 15.043 6.3a.5.5 0 0 1 .682 0L18.3 8.736" transform="translate(-7.571 -3.463)" style="fill:none;stroke:#c1a664;stroke-miterlimit:10;stroke-width:1.2px"/>
            <path data-name="Línea 1373" transform="translate(7.813 2.7)" style="fill:none;stroke:#c1a664;stroke-miterlimit:10;stroke-width:1.2px" d="M0 0v6.629"/>
        </g>
    </g>
</svg>
