<svg xmlns="http://www.w3.org/2000/svg" width="67.528" height="50.232" viewBox="0 0 67.528 50.232">
    <path data-name="Trazado 15886" d="M-19.136-84.272a13.652 13.652 0 0 1-10.948-4.876q-4.14-4.876-4.14-12.788a33.53 33.53 0 0 1 6.072-19.228A38.72 38.72 0 0 1-13.064-134.5l1.1 2.208a29 29 0 0 0-6.808 7.544A32.072 32.072 0 0 0-23-113.344l3.864.92A18.738 18.738 0 0 1-9.108-107a13.619 13.619 0 0 1 3.588 9.48 12.467 12.467 0 0 1-3.956 9.568 13.661 13.661 0 0 1-9.66 3.68zm38.824 0A13.652 13.652 0 0 1 8.74-89.148Q4.6-94.024 4.6-101.936a33.53 33.53 0 0 1 6.072-19.228A38.72 38.72 0 0 1 25.76-134.5l1.1 2.208a29 29 0 0 0-6.808 7.544 32.072 32.072 0 0 0-4.232 11.408l3.864.92A18.738 18.738 0 0 1 29.716-107a13.619 13.619 0 0 1 3.584 9.48 12.467 12.467 0 0 1-3.956 9.568 13.661 13.661 0 0 1-9.656 3.68z" transform="translate(34.224 134.504)" style="fill:#c1a664"/>
</svg>
