<svg xmlns="http://www.w3.org/2000/svg" width="22.101" height="19" viewBox="0 0 22.101 19">
    <g data-name="Grupo 7102">
        <g data-name="Grupo 6726">
            <path data-name="Trazado 10347" d="M20.6 10.763A26.335 26.335 0 0 1 11.051 19 26.33 26.33 0 0 1 1.5 10.763 8.689 8.689 0 0 1 .013 5.516a5.928 5.928 0 0 1 2.244-4.29A5.912 5.912 0 0 1 6.965.106a5.947 5.947 0 0 1 4.085 3.122 5.822 5.822 0 0 1 8.794-2 5.927 5.927 0 0 1 2.244 4.289 8.69 8.69 0 0 1-1.488 5.246" style="fill:#fff"/>
        </g>
    </g>
</svg>
