<svg data-name="Grupo 6414" xmlns="http://www.w3.org/2000/svg" width="45.946" height="40.856" viewBox="0 0 45.946 40.856">
    <defs>
        <clipPath id="1jtc6t1goa">
            <path data-name="Rectángulo 3309" style="fill:none;stroke:#0d0d0d" d="M0 0h45.946v40.856H0z"/>
        </clipPath>
    </defs>
    <g data-name="Grupo 6410">
        <g data-name="Grupo 6409" style="clip-path:url(#1jtc6t1goa)">
            <path data-name="Trazado 10075" d="M34.6 26.672H8.475a5.417 5.417 0 0 1-5.367-4.686L1.892 12.91h39.292l-1.216 9.076a5.417 5.417 0 0 1-5.368 4.686z" transform="translate(1.434 9.784)" style="stroke-linecap:round;stroke-linejoin:round;fill:none;stroke:#0d0d0d"/>
            <path data-name="Trazado 10076" d="M42.171 15.019H3.016a2.452 2.452 0 1 1-.127-4.9H42.171a2.452 2.452 0 1 1 .127 4.9q-.064.003-.127 0z" transform="translate(.379 7.666)" style="stroke-linecap:round;stroke-linejoin:round;fill:none;stroke:#0d0d0d"/>
            <path data-name="Trazado 10077" d="M6.555 24.26s0-3.521 1.825-3.521" transform="translate(4.968 15.717)" style="stroke-linecap:round;stroke-linejoin:round;fill:none;stroke:#0d0d0d"/>
            <path data-name="Trazado 10078" d="M20.014 24.26s0-3.521-1.823-3.521" transform="translate(13.787 15.717)" style="stroke-linecap:round;stroke-linejoin:round;fill:none;stroke:#0d0d0d"/>
            <path data-name="Trazado 10079" d="M2.957 14.1a7.359 7.359 0 0 1 13.8-4.941 6.828 6.828 0 0 1 8.619 4.352c.063.193.118.39.165.589" transform="translate(2.056 3.686)" style="stroke-linecap:round;stroke-linejoin:round;fill:none;stroke:#0d0d0d"/>
            <circle data-name="Elipse 556" cx="3.839" cy="3.839" transform="translate(16.039 .879)" style="stroke-linecap:round;stroke-linejoin:round;fill:none;stroke:#0d0d0d" r="3.839"/>
            <circle data-name="Elipse 557" cx="2.349" cy="2.349" transform="translate(26.839 8.558)" style="stroke-linecap:round;stroke-linejoin:round;fill:none;stroke:#0d0d0d" r="2.349"/>
            <path data-name="Trazado 10080" d="M18.191 3.8A3.305 3.305 0 0 1 21.5.5h1.823a3.3 3.3 0 0 1 3.3 3.3v13.6" transform="translate(13.787 .379)" style="stroke-linecap:round;stroke-linejoin:round;fill:none;stroke:#0d0d0d"/>
        </g>
    </g>
</svg>
