<svg data-name="Grupo 6415" xmlns="http://www.w3.org/2000/svg" width="40.192" height="38.721" viewBox="0 0 40.192 38.721">
    <defs>
        <clipPath id="v1qv8fmnxa">
            <path data-name="Rectángulo 3305" style="fill:none;stroke:#0d0d0d" d="M0 0h40.192v38.721H0z"/>
        </clipPath>
    </defs>
    <g data-name="Grupo 6402">
        <g data-name="Grupo 6401" style="clip-path:url(#v1qv8fmnxa)">
            <path data-name="Trazado 10062" d="M39.067 34.108V7.566A7.066 7.066 0 0 0 32 .5H7.566A7.066 7.066 0 0 0 .5 7.566v26.542" transform="translate(.312 .312)" style="stroke-linecap:round;stroke-linejoin:round;fill:none;stroke:#0d0d0d"/>
            <path data-name="Línea 1026" transform="translate(.812 7.14)" style="stroke-linecap:round;stroke-linejoin:round;fill:none;stroke:#0d0d0d" d="M0 0h38.567"/>
            <path data-name="Línea 1027" transform="translate(.812 11.902)" style="stroke-linecap:round;stroke-linejoin:round;fill:none;stroke:#0d0d0d" d="M0 0h38.567"/>
            <path data-name="Trazado 10063" d="M28.76 24.2H7.191a3.528 3.528 0 0 1-3.528-3.53v-1.675a3.528 3.528 0 0 1 2.731-3.437l.835-.192a47.516 47.516 0 0 1 21.171-.055l1.141.258a3.527 3.527 0 0 1 2.751 3.44v1.661a3.528 3.528 0 0 1-3.532 3.53z" transform="translate(2.289 8.838)" style="stroke-linecap:round;stroke-linejoin:round;fill:none;stroke:#0d0d0d"/>
            <path data-name="Trazado 10064" d="M10.736 21.689v2.494a2.375 2.375 0 0 1-2.372 2.379H6.04a2.377 2.377 0 0 1-2.377-2.375v-6.026" transform="translate(2.289 11.347)" style="stroke-linecap:round;stroke-linejoin:round;fill:none;stroke:#0d0d0d"/>
            <path data-name="Trazado 10065" d="M16.927 21.689v2.494a2.375 2.375 0 0 0 2.373 2.378h2.327A2.375 2.375 0 0 0 24 24.186v-6.025" transform="translate(10.577 11.347)" style="stroke-linecap:round;stroke-linejoin:round;fill:none;stroke:#0d0d0d"/>
            <path data-name="Trazado 10066" d="m31.14 19.285-3.5-6.441a5.313 5.313 0 0 0-4.676-2.757H12.349a5.313 5.313 0 0 0-4.676 2.757l-3.5 6.441" transform="translate(2.608 6.302)" style="stroke-linecap:round;stroke-linejoin:round;fill:none;stroke:#0d0d0d"/>
            <path data-name="Línea 1028" transform="translate(10.335 28.009)" style="stroke-linecap:round;stroke-linejoin:round;fill:none;stroke:#0d0d0d" d="M0 0h7.153"/>
            <path data-name="Línea 1029" transform="translate(23.042 28.009)" style="stroke-linecap:round;stroke-linejoin:round;fill:none;stroke:#0d0d0d" d="M7.153 0H0"/>
        </g>
    </g>
</svg>
