<svg xmlns="http://www.w3.org/2000/svg" width="26.947" height="27.075" viewBox="0 0 26.947 27.075">
    <g data-name="Grupo 5278">
        <g data-name="Grupo 46">
            <path data-name="Trazado 179" d="M23.477 3.935A13.419 13.419 0 0 0 2.36 20.122l-1.9 6.953 7.113-1.866a13.4 13.4 0 0 0 6.411 1.634h.006a13.422 13.422 0 0 0 9.487-22.908z" transform="translate(-.456)" style="fill:#38b567"/>
            <g data-name="whatsapp">
                <path data-name="Trazado 179" d="M20.1 16.224c-.335-.168-1.983-.978-2.29-1.091s-.531-.167-.756.169-.865 1.09-1.06 1.313-.391.252-.727.085a9.2 9.2 0 0 1-2.7-1.664 10.092 10.092 0 0 1-1.865-2.323c-.2-.335-.02-.517.147-.684.151-.15.336-.391.5-.587a2.313 2.313 0 0 0 .336-.561.614.614 0 0 0-.028-.587c-.085-.168-.755-1.819-1.033-2.49-.273-.653-.549-.564-.755-.575s-.429-.012-.643-.011a1.228 1.228 0 0 0-.893.42 3.759 3.759 0 0 0-1.173 2.8A6.533 6.533 0 0 0 8.537 13.9a14.954 14.954 0 0 0 5.728 5.062 18.95 18.95 0 0 0 1.911.705 4.573 4.573 0 0 0 2.111.133 3.453 3.453 0 0 0 2.263-1.594 2.789 2.789 0 0 0 .2-1.594c-.083-.14-.307-.223-.643-.391m-6.116 8.352A11.135 11.135 0 0 1 8.3 23.021l-.4-.241-4.22 1.108 1.12-4.116-.265-.422a11.152 11.152 0 1 1 9.447 5.225m9.495-20.64A13.419 13.419 0 0 0 2.36 20.122l-1.9 6.953 7.113-1.866a13.4 13.4 0 0 0 6.411 1.634h.006a13.422 13.422 0 0 0 9.487-22.908z" transform="translate(-.456)" style="fill:#fff"/>
            </g>
        </g>
    </g>
</svg>
