<svg data-name="Grupo 6412" xmlns="http://www.w3.org/2000/svg" width="37.67" height="41.035" viewBox="0 0 37.67 41.035">
    <defs>
        <clipPath id="jz3p47hkda">
            <path data-name="Rectángulo 3308" style="fill:none;stroke:#0d0d0d" d="M0 0h37.67v41.035H0z"/>
        </clipPath>
    </defs>
    <g data-name="Grupo 6408">
        <g data-name="Grupo 6407" style="clip-path:url(#jz3p47hkda)">
            <path data-name="Trazado 10072" d="M36.681 33.069V35.1a3.145 3.145 0 0 1-3.144 3.144H3.644A3.144 3.144 0 0 1 .5 35.1V7.333a3.144 3.144 0 0 1 3.144-3.144h26.875" transform="translate(.244 2.046)" style="stroke-linecap:round;stroke-linejoin:round;fill:none;stroke:#0d0d0d"/>
            <path data-name="Trazado 10073" d="M26.829 3.175V36.7a3.351 3.351 0 0 0-3.345-3.345h-2.819V.5h3.5a2.669 2.669 0 0 1 2.669 2.672z" transform="translate(10.096 .244)" style="stroke-linecap:round;stroke-linejoin:round;fill:none;stroke:#0d0d0d"/>
            <path data-name="Línea 1034" transform="translate(16.415 12.005)" style="stroke-linecap:round;stroke-linejoin:round;fill:none;stroke:#0d0d0d" d="M0 0v8.699"/>
            <path data-name="Línea 1035" transform="translate(6.848 20.704)" style="stroke-linecap:round;stroke-linejoin:round;fill:none;stroke:#0d0d0d" d="M0 0h3.747"/>
            <path data-name="Línea 1036" transform="translate(22.235 20.704)" style="stroke-linecap:round;stroke-linejoin:round;fill:none;stroke:#0d0d0d" d="M0 0h3.747"/>
            <path data-name="Línea 1037" transform="translate(14.38 20.704)" style="stroke-linecap:round;stroke-linejoin:round;fill:none;stroke:#0d0d0d" d="M0 0h4.455"/>
            <path data-name="Trazado 10074" d="M9.814 29.661H4.6V8.065h19.134v21.6h-8.14v-6.7a5.779 5.779 0 0 0-5.78 5.78z" transform="translate(2.247 3.94)" style="stroke-linecap:round;stroke-linejoin:round;fill:none;stroke:#0d0d0d"/>
        </g>
    </g>
</svg>
