<svg xmlns="http://www.w3.org/2000/svg" width="361.507" height="69.768" viewBox="0 0 361.507 69.768">
    <g style="opacity:.415">
        <path data-name="Trazado 13402" d="M102.5 218.311a1.144 1.144 0 0 1 .629.335.39.39 0 0 1 .1.486.625.625 0 0 1-.335.268.915.915 0 0 1-.4.017 4.252 4.252 0 0 1-.554-.033 93.933 93.933 0 0 0-10.492.461q-6.529.579-10.526 1.124c-2.055.268-4.1.554-6.156.864a.509.509 0 0 0-.185.05 5.276 5.276 0 0 0-2.348.948 76.7 76.7 0 0 1-8.085 4.822q-4.177 2.164-8.521 4.026a139.594 139.594 0 0 1-14.392 5.426 3.305 3.305 0 0 0-2.2 1.828q-3.258 6.5-6.81 12.731-3.145 5.548-6.039 11.213a.086.086 0 0 1-.034.067 1.335 1.335 0 0 1-.3.486.835.835 0 0 1-.7.184.772.772 0 0 1-.436 0 .667.667 0 0 1-.453-.663 3.049 3.049 0 0 1 .52-1.5.108.108 0 0 0 .034-.084q2.931-5.259 5.77-10.517t5.485-10.668c.143-.3.285-.6.436-.914.059-.159.117-.319.185-.486-.168-.042-.319-.084-.461-.117a5.32 5.32 0 0 0-.814.235 1.645 1.645 0 0 0-.285.1q-5.12 1.459-10.366 2.5a68.925 68.925 0 0 1-7.288.914 1.678 1.678 0 0 1-.335.034 7.076 7.076 0 0 1-.73.034 8.687 8.687 0 0 1-2.743-.436 1.711 1.711 0 0 1-1.216-1.157 1.98 1.98 0 0 1 .486-1.7 7.654 7.654 0 0 1 2.164-1.744 31.859 31.859 0 0 1 5.938-2.894q8.3-3.145 16.841-5.527c.31-.1.637-.193.981-.268a9.717 9.717 0 0 0 2.046-.637 2.868 2.868 0 0 0 1.434-1.476q1.8-4.139 3.464-8.295T48.9 209.9a.2.2 0 0 1 .034-.1 6.8 6.8 0 0 1 .587-1.468.789.789 0 0 1 .394-.327.881.881 0 0 1 .486-.042.816.816 0 0 1 .4 0 .787.787 0 0 1 .629.73 6.016 6.016 0 0 1-.419 2.2.2.2 0 0 1-.034.1q-1.8 5.5-4.026 10.8a97.4 97.4 0 0 1-1.2 2.894c-.159.344-.3.7-.453 1.065a1.8 1.8 0 0 0-.235.889c.034.159.143.235.344.226a2.47 2.47 0 0 0 .7-.168c.092-.025.185-.042.285-.067 1.074-.277 2.155-.554 3.229-.814l5.888-1.468q7.259-1.711 14.61-2.927a4.852 4.852 0 0 0 2.3-1.015 34.15 34.15 0 0 0 4.143-3.724 21.4 21.4 0 0 0 3.388-4.613A9.489 9.489 0 0 0 81.168 207a8.542 8.542 0 0 0-2.4-5.166 13.8 13.8 0 0 0-3.33-2.566 31.733 31.733 0 0 0-9.435-3.1 70.521 70.521 0 0 0-11.803-1.055 105.986 105.986 0 0 0-12.614.637 110.164 110.164 0 0 0-11.826 1.937 63.847 63.847 0 0 0-9.452 2.818 37.04 37.04 0 0 0-6.492 3.33 21.59 21.59 0 0 0-2.348 1.677 11.969 11.969 0 0 0-1.963 2.1 1.077 1.077 0 0 1-.881.545h-.339a1.409 1.409 0 0 1-.419-.059.569.569 0 0 1-.319-.243.794.794 0 0 1-.067-.31.928.928 0 0 1 .034-.277 4 4 0 0 1 .763-1.174c.319-.335.646-.671.981-.99a25.563 25.563 0 0 1 2.768-2.046 39.718 39.718 0 0 1 2.952-1.711 48.016 48.016 0 0 1 9.922-3.707 108.15 108.15 0 0 1 13.268-2.65 115.58 115.58 0 0 1 14.568-1.1 77.9 77.9 0 0 1 13.746.973 33.982 33.982 0 0 1 10.92 3.564 14.227 14.227 0 0 1 3.615 2.81 9.445 9.445 0 0 1 2.558 5 9.218 9.218 0 0 1-.679 4.789 18.254 18.254 0 0 1-2.726 4.428 54.096 54.096 0 0 1-3.573 3.933 3.919 3.919 0 0 0-.436.461.59.59 0 0 0-.185.461c.025.126.21.159.554.117q6.139-.994 12.253-1.51t12.3-.688h.369a8.515 8.515 0 0 1 1.032.067zm-64.441 17.756a8.321 8.321 0 0 1 .495-.948c.344-.654.7-1.375 1.082-2.172a13.746 13.746 0 0 0 .822-2.088c.168-.6.084-.923-.26-.981a3.631 3.631 0 0 0-.612.151.615.615 0 0 0-.185.034c-.78.243-1.56.478-2.348.7q-2.818.818-5.644 1.728a2.353 2.353 0 0 0-.285.1q-5.057 1.547-9.964 3.565a27.768 27.768 0 0 0-4.713 2.483 4.109 4.109 0 0 0-1.4 1.283.7.7 0 0 0-.126.6.715.715 0 0 0 .461.428 4.992 4.992 0 0 0 1.568.252c.47 0 .931-.025 1.4-.067h.034a56.292 56.292 0 0 0 7.137-1.183q5.573-1.233 11.02-2.877a.293.293 0 0 1 .117-.05 3.129 3.129 0 0 0 .8-.3 1.492 1.492 0 0 0 .6-.646zm3.112-.646a73.561 73.561 0 0 0 8.974-3.17q5.674-2.315 10.911-4.906a35.3 35.3 0 0 0 7.129-4.269h-.554q-11.5 2.277-22.762 5.426a1.955 1.955 0 0 0-1.367 1.2c-.453.973-.906 1.937-1.35 2.893q-.516 1.069-1.032 2.164a1.038 1.038 0 0 0-.084.335.414.414 0 0 0 .134.335z" transform="translate(-7.48 -193.882)" style="fill:#272727"/>
        <path data-name="Trazado 13403" d="M93.559 235.446a1.7 1.7 0 0 1-1.082 1.5c-.621.235-.822-.075-.6-.914s-.168-1.057-1.141-.637a7.633 7.633 0 0 0-2.415 1.577 20.723 20.723 0 0 0-2.592 3.229c-.076.1-.143.185-.185.252-.218.319-.445.629-.663.914a.9.9 0 0 1-.5.377 1.424 1.424 0 0 1-.6.025.644.644 0 0 1-.436-.218.39.39 0 0 1-.034-.436 9.992 9.992 0 0 1 .436-.914c1-1.853 2.013-3.707 3.044-5.577a.087.087 0 0 0 .034-.067 4.2 4.2 0 0 1 .52-.8.828.828 0 0 1 .763-.3.686.686 0 0 1 .579.52c.126.386.226.6.319.654s.285.017.6-.109a10.5 10.5 0 0 1 1.946-.52 3.084 3.084 0 0 1 1.552.075c.4.151.562.6.461 1.375z" transform="translate(-19.704 -200.264)" style="fill:#272727"/>
        <path data-name="Trazado 13404" d="M111.338 239.436a10.861 10.861 0 0 1-4.395 2.5 8.989 8.989 0 0 1-1.778.243 6.683 6.683 0 0 1-2.692-.4 2.313 2.313 0 0 1-1.4-3.112 5.313 5.313 0 0 1 2.365-3.095 6.576 6.576 0 0 1 3.673-1.082h.034a2.982 2.982 0 0 1 .914.067 1.416 1.416 0 0 1 .931.864 1.543 1.543 0 0 1-.268 1.334 3.787 3.787 0 0 1-2.893 1.795 7.8 7.8 0 0 1-2.348-.117.448.448 0 0 0-.386.117.621.621 0 0 0-.2.369c-.226.956.075 1.568.881 1.828a4.82 4.82 0 0 0 3.112 0 9.081 9.081 0 0 0 3.548-2.2q1.686-1.61 1.937-1.51c.176.075.226.277.159.621a4.271 4.271 0 0 1-1.2 1.761zm-7.1-2.684a.661.661 0 0 0-.143.26.238.238 0 0 0 .109.26 2 2 0 0 0 1.266.243 2.1 2.1 0 0 0 1.157-.52 1.164 1.164 0 0 0 .411-1.04.349.349 0 0 0-.235-.277.693.693 0 0 0-.369-.025 4.312 4.312 0 0 0-2.191 1.1z" transform="translate(-22.554 -200.43)" style="fill:#272727"/>
        <path data-name="Trazado 13405" d="M136.649 237.411c.386-.243.7-.3.914-.185s.143.47-.252 1.032a9.011 9.011 0 0 1-2.617 2.1 5.643 5.643 0 0 1-3.338.973c-.964-.092-1.25-.805-.839-2.139s.621-2.08.654-2.239 0-.252-.092-.277-.31.092-.654.335c-1 .688-1.979 1.409-2.927 2.164-.411.31-.814.637-1.216.981-.243.218-.495.445-.763.663l-.034.034a2.219 2.219 0 0 1-1.065.587 1.552 1.552 0 0 1-.6.059.86.86 0 0 1-.537-.243.541.541 0 0 1-.184-.52 2.989 2.989 0 0 1 .419-.822c.235-.369.486-.772.772-1.208a5.77 5.77 0 0 0 .478-.805.333.333 0 0 0-.05-.3.207.207 0 0 0-.26-.092c-.092.042-.445.277-1.057.713s-1.443 1.048-2.5 1.837q-.73.554-1.434 1.132a2.588 2.588 0 0 1-.4.335 1.933 1.933 0 0 1-1.132.47.752.752 0 0 1-.663-.2.57.57 0 0 1-.067-.629 2.508 2.508 0 0 1 .252-.545.771.771 0 0 0 .117-.235 657.761 657.761 0 0 0 2.6-5.342 1.11 1.11 0 0 0 .067-.184c.1-.185.2-.369.3-.545a.9.9 0 0 1 .948-.285c.419.126.587.369.486.73-.2.554-.394 1.107-.579 1.644l-.3.73c-.168.436-.218.713-.159.83s.335.042.822-.252c.335-.218.663-.444.981-.663q.579-.4 1.132-.73a12.419 12.419 0 0 1 1.728-.881 4.751 4.751 0 0 1 .889-.277 1.006 1.006 0 0 1 .855.21.612.612 0 0 1 .26.562 1.811 1.811 0 0 1-.176.6 1.5 1.5 0 0 0-.193.7c.025.1.117.117.26.059a6.082 6.082 0 0 0 .763-.428c.369-.218.763-.47 1.183-.73.528-.344 1.09-.671 1.677-.981a3.5 3.5 0 0 1 1.568-.579c.763-.059 1.082.252.939.923a13.6 13.6 0 0 1-.805 2.4c-.4.923-.445 1.493-.126 1.7s1.015-.075 2.105-.855 1.7-1.224 1.845-1.325z" transform="translate(-25.17 -200.351)" style="fill:#272727"/>
        <path data-name="Trazado 13406" d="M153.148 238a11.693 11.693 0 0 1-2.105 1.937 7.068 7.068 0 0 1-2.743 1.191 3.235 3.235 0 0 1-2.382-.227c-.562-.352-.679-1.141-.335-2.365a15.92 15.92 0 0 1 1.828-3.615 1.438 1.438 0 0 1 .763-.52.707.707 0 0 1 .637.126.49.49 0 0 1 .21.52c-.168.4-.352.8-.554 1.2s-.335.663-.4.78a7.762 7.762 0 0 0-.814 2.231c0 .445.6.47 1.778.084a9.418 9.418 0 0 0 3.464-2.139c1.124-1.04 1.652-1.342 1.6-.914a3.685 3.685 0 0 1-.964 1.694zm-2.9-5.569a1.332 1.332 0 0 1-.344.159 2.879 2.879 0 0 1-.545.134.588.588 0 0 1-.461-.092c-.109-.092-.117-.268-.017-.528a8.416 8.416 0 0 1 .562-1.225 10.276 10.276 0 0 1 .755-1.157 1.083 1.083 0 0 1 .646-.31.726.726 0 0 1 .579.185.529.529 0 0 1 .134.57 5.071 5.071 0 0 1-1.317 2.264z" transform="translate(-29.725 -199.612)" style="fill:#272727"/>
        <path data-name="Trazado 13407" d="M160.777 242.776c-1.057 0-1.577-.554-1.577-1.644q0-2.013 2.617-7.1a.369.369 0 0 1 .369-.218c.7 0 1.048.277 1.048.83a1.858 1.858 0 0 1-.184.73c-.042.075-.629 1.543-1.744 4.395a3.412 3.412 0 0 0-.268 1.032c0 .243.109.369.335.369q1.208 0 6.374-6.039a1.793 1.793 0 0 1 1.317-.814c.629 0 .948.235.948.7a12.893 12.893 0 0 1-.579 2.013 17.566 17.566 0 0 0-.8 2.743c0 .369.126.553.369.553q.918 0 5.342-3.263a.732.732 0 0 1 .436-.218c.277 0 .419.235.419.7a.425.425 0 0 1-.117.3 36.781 36.781 0 0 1-3.992 3.061 5.068 5.068 0 0 1-2.667.964h-.235c-1.141-.243-1.711-1.141-1.711-2.675a138.513 138.513 0 0 1-3.036 2.608 4.064 4.064 0 0 1-2.642.99z" transform="translate(-31.953 -200.323)" style="fill:#272727"/>
        <path data-name="Trazado 13408" d="M199.971 237.411c.386-.243.7-.3.914-.185s.143.47-.252 1.032a9.013 9.013 0 0 1-2.617 2.1 5.643 5.643 0 0 1-3.338.973c-.965-.092-1.241-.805-.839-2.139s.621-2.08.654-2.239 0-.252-.092-.277-.31.092-.654.335c-1 .688-1.971 1.409-2.927 2.164-.411.31-.814.637-1.216.981-.243.218-.495.445-.763.663l-.034.034a2.22 2.22 0 0 1-1.065.587 1.569 1.569 0 0 1-.6.059.819.819 0 0 1-.528-.243.541.541 0 0 1-.184-.52 2.987 2.987 0 0 1 .419-.822c.235-.361.495-.772.772-1.208a6.881 6.881 0 0 0 .478-.805.333.333 0 0 0-.05-.3.207.207 0 0 0-.26-.092c-.092.042-.444.277-1.057.713s-1.443 1.048-2.5 1.837q-.73.554-1.434 1.132a2.249 2.249 0 0 1-.4.335 1.933 1.933 0 0 1-1.132.47.752.752 0 0 1-.663-.2.57.57 0 0 1-.067-.629 2.509 2.509 0 0 1 .252-.545.772.772 0 0 0 .117-.235 657.761 657.761 0 0 0 2.6-5.342 1.11 1.11 0 0 0 .067-.184c.1-.185.2-.369.3-.545a.894.894 0 0 1 .948-.285c.419.126.579.369.486.73-.2.554-.394 1.107-.579 1.644l-.3.73c-.168.436-.218.713-.159.83s.336.042.822-.252c.335-.218.663-.444.981-.663q.579-.4 1.132-.73a12.9 12.9 0 0 1 1.728-.881 4.75 4.75 0 0 1 .889-.277 1.012 1.012 0 0 1 .855.21.612.612 0 0 1 .26.562 1.813 1.813 0 0 1-.176.6 1.5 1.5 0 0 0-.193.7c.025.1.117.117.26.059a6.084 6.084 0 0 0 .763-.428c.361-.226.763-.47 1.183-.73.528-.344 1.09-.671 1.677-.981a3.5 3.5 0 0 1 1.568-.579c.763-.059 1.082.252.939.923a13.6 13.6 0 0 1-.805 2.4c-.394.931-.445 1.493-.126 1.7s1.015-.075 2.105-.855 1.7-1.224 1.845-1.325z" transform="translate(-35.385 -200.351)" style="fill:#272727"/>
        <path data-name="Trazado 13409" d="M309.353 218.311a1.144 1.144 0 0 1 .629.335.38.38 0 0 1 .1.486.625.625 0 0 1-.336.268.916.916 0 0 1-.4.017 4.041 4.041 0 0 1-.545-.034 93.935 93.935 0 0 0-10.492.461q-6.529.579-10.526 1.124c-2.055.268-4.1.554-6.156.864a.51.51 0 0 0-.185.05 5.277 5.277 0 0 0-2.348.948 76.68 76.68 0 0 1-8.085 4.823q-4.177 2.164-8.521 4.026a139.568 139.568 0 0 1-14.392 5.426 3.306 3.306 0 0 0-2.2 1.828q-3.258 6.5-6.81 12.731-3.145 5.548-6.039 11.213a.087.087 0 0 1-.034.067 1.336 1.336 0 0 1-.3.486.834.834 0 0 1-.7.185.771.771 0 0 1-.436 0 .667.667 0 0 1-.453-.663 3.037 3.037 0 0 1 .512-1.5.108.108 0 0 0 .033-.084q2.931-5.259 5.77-10.517t5.485-10.668c.143-.3.285-.6.436-.914.059-.159.117-.319.184-.486-.168-.042-.319-.084-.47-.117a5.613 5.613 0 0 0-.814.235 1.641 1.641 0 0 0-.285.1q-5.12 1.459-10.366 2.5a68.916 68.916 0 0 1-7.288.914 1.678 1.678 0 0 1-.335.034 7.075 7.075 0 0 1-.73.034 8.649 8.649 0 0 1-2.742-.436 1.711 1.711 0 0 1-1.216-1.157 1.98 1.98 0 0 1 .486-1.7 7.654 7.654 0 0 1 2.164-1.745 31.854 31.854 0 0 1 5.938-2.893q8.3-3.145 16.841-5.527c.31-.1.637-.193.981-.268a9.716 9.716 0 0 0 2.046-.637 2.868 2.868 0 0 0 1.434-1.476q1.8-4.139 3.464-8.295t3.095-8.446a.2.2 0 0 1 .034-.1 7.227 7.227 0 0 1 .579-1.468.789.789 0 0 1 .394-.327.882.882 0 0 1 .487-.042.817.817 0 0 1 .4 0 .787.787 0 0 1 .629.73 6.017 6.017 0 0 1-.419 2.2.2.2 0 0 1-.034.1q-1.8 5.5-4.026 10.8a97.4 97.4 0 0 1-1.2 2.894c-.151.344-.3.7-.453 1.065a1.8 1.8 0 0 0-.235.889c.034.159.151.235.344.226a2.468 2.468 0 0 0 .7-.168c.092-.025.185-.042.285-.067 1.074-.277 2.155-.554 3.229-.814l5.888-1.468q7.259-1.711 14.61-2.927a4.851 4.851 0 0 0 2.3-1.015 34.136 34.136 0 0 0 4.143-3.724 21.392 21.392 0 0 0 3.388-4.613 9.548 9.548 0 0 0 1.218-5.074 8.542 8.542 0 0 0-2.4-5.166 13.794 13.794 0 0 0-3.33-2.566 31.735 31.735 0 0 0-9.435-3.1 70.525 70.525 0 0 0-11.809-1.048 105.989 105.989 0 0 0-12.614.637 110.2 110.2 0 0 0-11.826 1.937 63.854 63.854 0 0 0-9.452 2.818 37.048 37.048 0 0 0-6.492 3.33 20.8 20.8 0 0 0-2.348 1.677 11.966 11.966 0 0 0-1.963 2.1 1.077 1.077 0 0 1-.881.545h-.336a1.408 1.408 0 0 1-.419-.059.543.543 0 0 1-.319-.243.794.794 0 0 1-.067-.31.926.926 0 0 1 .034-.277 4 4 0 0 1 .763-1.174c.319-.335.646-.671.981-.99a25.589 25.589 0 0 1 2.768-2.046 39.718 39.718 0 0 1 2.952-1.711 48.022 48.022 0 0 1 9.922-3.707 108.13 108.13 0 0 1 13.268-2.65 115.688 115.688 0 0 1 14.568-1.1 77.894 77.894 0 0 1 13.746.973 33.977 33.977 0 0 1 10.92 3.564 14.228 14.228 0 0 1 3.615 2.81 9.446 9.446 0 0 1 2.558 5 9.133 9.133 0 0 1-.679 4.789 18.251 18.251 0 0 1-2.726 4.428 54.096 54.096 0 0 1-3.573 3.933 3.912 3.912 0 0 0-.436.461.622.622 0 0 0-.185.461c.017.126.2.159.545.117q6.139-.994 12.253-1.51t12.3-.688h.369a8.515 8.515 0 0 1 1.032.067zm-64.429 17.755a7.423 7.423 0 0 1 .5-.948c.344-.654.7-1.375 1.082-2.172a13.762 13.762 0 0 0 .822-2.088c.176-.6.084-.923-.26-.981a3.626 3.626 0 0 0-.612.151.615.615 0 0 0-.185.034c-.78.243-1.56.478-2.348.7q-2.818.818-5.644 1.728a2.323 2.323 0 0 0-.285.1q-5.057 1.548-9.972 3.565a27.771 27.771 0 0 0-4.713 2.483 4.186 4.186 0 0 0-1.4 1.283.7.7 0 0 0-.126.6.715.715 0 0 0 .461.428 4.979 4.979 0 0 0 1.56.252c.47 0 .931-.025 1.4-.067h.034a56.291 56.291 0 0 0 7.137-1.183q5.573-1.233 11.02-2.877a.292.292 0 0 1 .117-.05 3.131 3.131 0 0 0 .8-.3 1.492 1.492 0 0 0 .6-.646zm3.112-.646a73.027 73.027 0 0 0 8.966-3.17q5.674-2.315 10.911-4.906a35.547 35.547 0 0 0 7.129-4.269h-.554q-11.5 2.277-22.762 5.426a1.955 1.955 0 0 0-1.367 1.2c-.453.973-.906 1.937-1.35 2.894q-.516 1.069-1.032 2.164a1.035 1.035 0 0 0-.084.336.414.414 0 0 0 .134.335z" transform="translate(-40.844 -193.882)" style="fill:#272727"/>
        <path data-name="Trazado 13410" d="M300.418 235.446a1.7 1.7 0 0 1-1.082 1.5c-.621.235-.822-.075-.6-.914s-.168-1.057-1.141-.637a7.635 7.635 0 0 0-2.415 1.577 20.775 20.775 0 0 0-2.6 3.229c-.076.1-.143.185-.185.252-.218.319-.444.629-.663.914a.89.89 0 0 1-.512.377 1.4 1.4 0 0 1-.587.025.627.627 0 0 1-.436-.218.39.39 0 0 1-.034-.436 9.959 9.959 0 0 1 .436-.914c1-1.853 2.013-3.707 3.044-5.577a.087.087 0 0 0 .034-.067 4.2 4.2 0 0 1 .52-.8.828.828 0 0 1 .763-.3.706.706 0 0 1 .587.52c.117.386.226.6.319.654s.285.017.6-.109A10.5 10.5 0 0 1 298.4 234a3.125 3.125 0 0 1 1.56.075c.4.151.562.6.461 1.375z" transform="translate(-53.069 -200.264)" style="fill:#272727"/>
        <path data-name="Trazado 13411" d="M311.358 241.937h-.05c-1.61-.025-2.667-.377-3.179-1.073a2.588 2.588 0 0 1 .067-2.768 8.823 8.823 0 0 1 1.761-2.3 3.492 3.492 0 0 1 .746-.528 1.823 1.823 0 0 1 .864-.2 1.166 1.166 0 0 1 .646.1c.076.025.159.05.235.084a1.9 1.9 0 0 0 .545-.184.628.628 0 0 1 .184-.084 2.861 2.861 0 0 1 1.166-.185h.52a2.189 2.189 0 0 1 1.484.822 2.09 2.09 0 0 1 .352 1.635 3.214 3.214 0 0 1-.369 1.1q-1.912 3.435-4.873 3.581zm2.625-5.963a3.474 3.474 0 0 0-2.34.755 5.212 5.212 0 0 0-1.526 1.853 2.337 2.337 0 0 0-.277 1.719c.151.453.612.57 1.392.377a5.155 5.155 0 0 0 2.323-1.5 4.771 4.771 0 0 0 1.233-2.088c.151-.663-.117-1.032-.805-1.124z" transform="translate(-55.917 -200.482)" style="fill:#272727"/>
        <path data-name="Trazado 13412" d="M337.071 237.1a5.428 5.428 0 0 1-.763.252c-.067.034-.126.059-.185.084-.268.1-.528.193-.8.285q-1.132.365-2.315.78a2.293 2.293 0 0 0-1.384 1.1 6.1 6.1 0 0 1-2.038 2.046 8.842 8.842 0 0 1-2.491 1.04 14.958 14.958 0 0 1-2.239.386 8.113 8.113 0 0 1-1.258.042h-.084a2.631 2.631 0 0 0-.8.981c-.268.487-.5.923-.7 1.317a2.772 2.772 0 0 0-.1.268q-1.648 3.3-3.263 6.592l-1.828 3.665a10.086 10.086 0 0 1-.7 1.25.666.666 0 0 1-.914.185.564.564 0 0 1-.185-.73c.126-.319.252-.646.4-.965q2.856-6.768 6.072-13.394.994-2.051 1.879-4.177.4-.981.83-2.013a.8.8 0 0 1 .117-.218 7.372 7.372 0 0 1 .52-1.065.692.692 0 0 1 .495-.235.969.969 0 0 1 .629.1.729.729 0 0 1 .335.646 1.3 1.3 0 0 1-.084.453 1.462 1.462 0 0 0-.084.369.537.537 0 0 0 .117.369.73.73 0 0 0 .47-.075 2.831 2.831 0 0 0 .386-.26 1.127 1.127 0 0 1 .436-.218 2.547 2.547 0 0 1 .3-.151 16.242 16.242 0 0 1 1.577-.629 2.71 2.71 0 0 1 2.013.151 1.829 1.829 0 0 1 .646.646 3.862 3.862 0 0 1 .336.814c.075.226.277.335.6.352a4.466 4.466 0 0 0 1.1-.126c.4-.092.772-.193 1.107-.294.277-.075.478-.126.6-.151a3.173 3.173 0 0 1 1.015-.067.738.738 0 0 1 .277.05c.084.034.126.126.126.268a.352.352 0 0 1-.05.176.278.278 0 0 1-.134.126zm-6.986 1.1a.991.991 0 0 0 .411-.713 1.8 1.8 0 0 0-.109-.964.493.493 0 0 0-.226-.21.706.706 0 0 0-.293-.059 2.163 2.163 0 0 0-.587.185 12.775 12.775 0 0 0-4.974 4.395c-.243.445-.21.637.092.587a5.122 5.122 0 0 0 1.376-.562c.612-.327 1.241-.7 1.9-1.132s1.216-.788 1.677-1.09a7.36 7.36 0 0 1 .73-.436z" transform="translate(-57.081 -200.444)" style="fill:#272727"/>
        <path data-name="Trazado 13413" d="M355.548 239.436a10.861 10.861 0 0 1-4.395 2.5 8.99 8.99 0 0 1-1.778.243 6.7 6.7 0 0 1-2.692-.4 2.313 2.313 0 0 1-1.4-3.112 5.314 5.314 0 0 1 2.365-3.095 6.584 6.584 0 0 1 3.682-1.082h.034a2.982 2.982 0 0 1 .914.067 1.416 1.416 0 0 1 .931.864 1.538 1.538 0 0 1-.268 1.334 3.787 3.787 0 0 1-2.894 1.795 7.8 7.8 0 0 1-2.348-.117.448.448 0 0 0-.386.117.621.621 0 0 0-.2.369c-.218.956.075 1.568.881 1.828a4.82 4.82 0 0 0 3.112 0 9.08 9.08 0 0 0 3.548-2.2q1.686-1.61 1.937-1.51c.168.067.226.277.159.621a4.19 4.19 0 0 1-1.2 1.761zm-7.087-2.684a.663.663 0 0 0-.143.26.226.226 0 0 0 .109.26 2 2 0 0 0 1.266.243 2.1 2.1 0 0 0 1.157-.52 1.163 1.163 0 0 0 .411-1.04.349.349 0 0 0-.235-.277.693.693 0 0 0-.369-.025 4.313 4.313 0 0 0-2.196 1.1z" transform="translate(-61.946 -200.43)" style="fill:#272727"/>
        <path data-name="Trazado 13414" d="M371.428 235.446a1.7 1.7 0 0 1-1.082 1.5c-.621.235-.822-.075-.6-.914s-.168-1.057-1.141-.637a7.631 7.631 0 0 0-2.415 1.577 20.758 20.758 0 0 0-2.6 3.229c-.076.1-.143.185-.185.252-.218.319-.445.629-.663.914a.889.889 0 0 1-.512.377 1.4 1.4 0 0 1-.587.025.627.627 0 0 1-.436-.218.39.39 0 0 1-.034-.436 10.007 10.007 0 0 1 .436-.914c1-1.853 2.013-3.707 3.044-5.577a.087.087 0 0 0 .034-.067 4.207 4.207 0 0 1 .52-.8.828.828 0 0 1 .763-.3.706.706 0 0 1 .587.52c.117.386.227.6.319.654s.285.017.6-.109a10.5 10.5 0 0 1 1.946-.52 3.125 3.125 0 0 1 1.56.075c.4.151.562.6.461 1.375z" transform="translate(-64.524 -200.264)" style="fill:#272727"/>
        <path data-name="Trazado 13415" d="M390.18 234.668a17.456 17.456 0 0 1-4.37 3.875 6.577 6.577 0 0 1-4.579.822q-2.441-.428-2-3.271a18.712 18.712 0 0 1 .813-2.793q1.283-3.183 2.6-6.324c.285-.755.6-1.518.914-2.281.076-.168.151-.335.218-.495.126-.277.243-.562.369-.847.176-.486-.017-.746-.579-.763h-1.434c-.168.025-.335.042-.52.067-.285.025-.57.034-.855.034a1.529 1.529 0 0 1-.788-.218.335.335 0 0 1-.159-.126.361.361 0 0 1-.059-.21 1.09 1.09 0 0 1 .109-.159.43.43 0 0 1 .193-.126 3.456 3.456 0 0 1 .763-.218c.688-.034 1.367-.059 2.046-.084h.7a7.076 7.076 0 0 0 .99-.05.725.725 0 0 0 .52-.352 6.74 6.74 0 0 0 .47-.914c.1-.218.218-.47.369-.73.369-.78.73-1.568 1.1-2.382.168-.369.335-.721.52-1.065a1.625 1.625 0 0 1 .679-.8.7.7 0 0 1 .78.034.449.449 0 0 1 .159.218.708.708 0 0 1 .059.268 2.69 2.69 0 0 1-.336 1.283c-.042.092-.092.193-.151.319-.143.4-.3.805-.47 1.216a46.818 46.818 0 0 0-.914 2.315.357.357 0 0 0-.008.386.367.367 0 0 0 .327.168c.788.025 1.56.033 2.315.033h1.166c1.224.025 1.711.193 1.468.52a.906.906 0 0 1-.537.327 2.3 2.3 0 0 1-.587 0h-.381q-1.862.113-3.7.151a1.1 1.1 0 0 0-1.132.763c-.2.486-.394.973-.579 1.468a90.149 90.149 0 0 0-.78 1.879c-.243.579-.486 1.157-.73 1.744q-.944 2.227-1.828 4.479a19.42 19.42 0 0 0-.864 2.994q-.692 2.78 2.147 2.13 2.793-.667 5.854-4.026c.889-.562 1.124-.31.7.763z" transform="translate(-67.434 -197.314)" style="fill:#272727"/>
        <path data-name="Trazado 13416" d="M403.658 238a11.7 11.7 0 0 1-2.105 1.937 7.068 7.068 0 0 1-2.742 1.191 3.235 3.235 0 0 1-2.382-.227c-.562-.352-.679-1.141-.335-2.365a15.919 15.919 0 0 1 1.828-3.615 1.438 1.438 0 0 1 .763-.52.712.712 0 0 1 .637.126.49.49 0 0 1 .21.52c-.168.4-.352.8-.554 1.2s-.336.663-.4.78a7.762 7.762 0 0 0-.814 2.231c0 .445.6.47 1.778.084A9.418 9.418 0 0 0 403 237.2c1.124-1.04 1.652-1.342 1.61-.914a3.687 3.687 0 0 1-.965 1.694zm-2.9-5.569a1.333 1.333 0 0 1-.344.159 2.878 2.878 0 0 1-.545.134.588.588 0 0 1-.461-.092c-.109-.092-.117-.268-.017-.528a8.408 8.408 0 0 1 .562-1.225 10.287 10.287 0 0 1 .755-1.157 1.084 1.084 0 0 1 .646-.31.755.755 0 0 1 .587.185.529.529 0 0 1 .134.57 5.071 5.071 0 0 1-1.317 2.264z" transform="translate(-70.134 -199.612)" style="fill:#272727"/>
        <path data-name="Trazado 13417" d="M420.4 239.436a10.861 10.861 0 0 1-4.395 2.5 8.987 8.987 0 0 1-1.778.243 6.706 6.706 0 0 1-2.692-.4 2.313 2.313 0 0 1-1.4-3.112 5.313 5.313 0 0 1 2.365-3.095 6.584 6.584 0 0 1 3.682-1.082h.034a2.982 2.982 0 0 1 .914.067 1.416 1.416 0 0 1 .931.864 1.538 1.538 0 0 1-.268 1.334 3.787 3.787 0 0 1-2.893 1.795 7.805 7.805 0 0 1-2.349-.117.448.448 0 0 0-.386.117.621.621 0 0 0-.2.369c-.218.956.075 1.568.881 1.828a4.82 4.82 0 0 0 3.112 0 9.081 9.081 0 0 0 3.548-2.2q1.686-1.61 1.937-1.51c.168.067.226.277.159.621a4.19 4.19 0 0 1-1.2 1.761zm-7.087-2.684a.662.662 0 0 0-.143.26.226.226 0 0 0 .109.26 2 2 0 0 0 1.266.243A2.1 2.1 0 0 0 415.7 237a1.163 1.163 0 0 0 .411-1.04.349.349 0 0 0-.235-.277.693.693 0 0 0-.369-.025 4.312 4.312 0 0 0-2.196 1.095z" transform="translate(-72.406 -200.43)" style="fill:#272727"/>
        <path data-name="Trazado 13418" d="M435.9 237.059a36.762 36.762 0 0 0-3.791 1.594 2.289 2.289 0 0 0-.973.688c-.084.185-.017.52.193 1.006a.184.184 0 0 0 .05.1 6.005 6.005 0 0 1 .436 1.828c.076 1.275-1.006 2.172-3.254 2.675s-3.749.528-4.512.05a1.366 1.366 0 0 1-.7-1.812 5.329 5.329 0 0 1 2.29-2.231c1.233-.755 2.055-1.3 2.474-1.627a.912.912 0 0 0 .377-1.115c-.059-.143-.117-.285-.184-.436-.143-.344-.294-.7-.453-1.065a4.352 4.352 0 0 1-.377-1.963 2.424 2.424 0 0 1 .713-1.619 2.939 2.939 0 0 1 2.038-.7 3.4 3.4 0 0 1 1.4.21 1.933 1.933 0 0 1 .981.889.537.537 0 0 1-.185.814.6.6 0 0 1-.679.067 1.771 1.771 0 0 1-.453-.285v-.05c-.067-.042-.126-.092-.185-.134a.985.985 0 0 0-.218-.235.975.975 0 0 0-.872-.193 1.023 1.023 0 0 0-.654.671 2.629 2.629 0 0 0-.151.881 3.345 3.345 0 0 0 .252 1.065c.1.21.184.4.268.579a5.314 5.314 0 0 0 .47 1.006.441.441 0 0 0 .445.235c.176-.025 1.745-.587 4.722-1.686.646-.21.83.05.545.78zm-7.2 6.357a1.292 1.292 0 0 0 .981-1.568.508.508 0 0 0-.034-.184 2.414 2.414 0 0 0-.268-.973c-.134-.226-.436-.218-.9.025a17.768 17.768 0 0 0-3.2 2.3c-.067.075-.126.151-.184.218l-.034.05a.3.3 0 0 0-.034.3.287.287 0 0 0 .3.168 6.674 6.674 0 0 0 3.373-.336z" transform="translate(-74.543 -200.099)" style="fill:#272727"/>
    </g>
</svg>
