<svg xmlns="http://www.w3.org/2000/svg" width="98" height="72.239" viewBox="0 0 98 72.239">
    <defs>
        <clipPath id="tuvrgd4eva">
            <path data-name="Rectángulo 2626" style="fill:#fff" d="M0 0h81.168v42.504H0z"/>
        </clipPath>
    </defs>
    <g data-name="Grupo 9459">
        <g data-name="Grupo 9459">
            <g data-name="Grupo 6351" transform="translate(13.898)" style="clip-path:url(#tuvrgd4eva)">
                <path data-name="Trazado 9987" d="M35.213 0c.133.156.336.142.506.205a3.66 3.66 0 0 1 2.4 3.477q.016 7.312-.055 14.624c-.049 4.437-.041 8.875-.056 13.312 0 1.328.013 2.656-.005 3.984a4.79 4.79 0 0 1-2.222 4.292 4.712 4.712 0 0 1-7.25-3.736 43.721 43.721 0 0 1-.038-2.483c0-.3-.108-.367-.384-.366q-6.212.01-12.425 0a.686.686 0 0 0-.548.293c-1.714 1.924-3.417 3.858-5.153 5.762a12.569 12.569 0 0 1-2.49 2.46C4.82 43.489.78 41.93.1 38.94a3.693 3.693 0 0 1 .83-3.334Q5.1 30.728 9.333 25.9q5.16-5.914 10.346-11.805 5.228-5.948 10.378-11.961A6.027 6.027 0 0 1 33.075.163c.1-.027.224-.03.262-.164zm-6.727 18.8-.116-.049-4.793 5.368h4.594c.2 0 .32-.035.319-.277-.007-1.681 0-3.363 0-5.044" transform="translate(0 .001)" style="fill:#fff"/>
                <path data-name="Trazado 9988" d="M289.768 20.648c0-3.891-.01-7.781.006-11.672a27.392 27.392 0 0 1 .13-4.07 5.155 5.155 0 0 1 5.344-4.65c3.406-.047 6.819-.129 10.22.02a12.632 12.632 0 0 1 11.349 7.394 18.848 18.848 0 0 1-.318 18.168 13.311 13.311 0 0 1-11.311 7.262c-1.733.131-3.467.029-5.2.064-.807.016-.669-.1-.686.707a17.781 17.781 0 0 1-.184 3.269 4.713 4.713 0 0 1-9.3-.657c-.149-2.481-.007-4.963-.013-7.444-.007-2.8 0-5.593 0-8.39h-.038m9.522-4.007c0 2.217 0 4.434-.006 6.652 0 .305.051.443.4.439 1.468-.019 2.936.009 4.4-.013a4.5 4.5 0 0 0 3.747-1.97 9.5 9.5 0 0 0 .109-10.1 4.618 4.618 0 0 0-4.039-2.134 128.79 128.79 0 0 1-4.123-.008c-.433-.01-.5.14-.511.531-.058 2.2 0 4.4.019 6.6" transform="translate(-249.467 -.165)" style="fill:#fff"/>
                <path data-name="Trazado 9989" d="M515.247 21.325v-9.47q.006-3.024.039-6.048a4.682 4.682 0 0 1 4.034-4.633 4.781 4.781 0 0 1 5.26 3.546 6.354 6.354 0 0 1 .2 1.617q-.01 15.191-.005 30.383a4.887 4.887 0 0 1-3.153 4.521 4.7 4.7 0 0 1-5.173-1.314 4.593 4.593 0 0 1-1.165-3.177c.016-5.142.007-10.284.007-15.426h-.04" transform="translate(-443.609 -.976)" style="fill:#fff"/>
            </g>
        </g>
        <path data-name="Trazado 13435" d="m90.635 1552.553-27.965 32.393h-2.457l28.311-32.393z" transform="translate(-48.306 -1551.04)" style="fill:#fff"/>
        <path data-name="Trazado 13436" d="m90.635 1552.553-27.965 32.393h-2.457l28.311-32.393z" transform="translate(-52.18 -1551.04)" style="fill:#fff"/>
        <path data-name="Trazado 13437" d="m90.635 1552.553-27.965 32.393h-2.457l28.311-32.393z" transform="translate(-56.196 -1551.04)" style="fill:#fff"/>
        <path data-name="Trazado 13438" d="m90.635 1552.553-27.965 32.393h-2.457l28.311-32.393z" transform="translate(-60.213 -1551.04)" style="fill:#fff"/>
        <text data-name="Nº A419" transform="translate(8 65.239)" style="font-size:22px;font-family:DMSans-SemiBold,DM Sans;font-weight:600;letter-spacing:.01em;fill:#fff"><tspan x="0" y="0" xml:space="preserve"> Nº A419</tspan></text>
    </g>
</svg>
