<svg xmlns="http://www.w3.org/2000/svg" width="250.755" height="123.482" viewBox="0 0 250.755 123.482">
    <g data-name="Grupo 9461">
        <g data-name="Grupo 9450">
            <path data-name="Trazado 13400" d="M48.876 247.865v-1.507l3.013-1.053q5.122-1.658 5.125-8.592v-77.181a14.012 14.012 0 0 0-.681-4.823q-.681-1.806-3.543-3.013l-3.921-1.809v-1.507h29.094l27.889 72.963 26.231-72.963h29.7v1.507l-2.408.9a7.035 7.035 0 0 0-3.921 2.938 9.977 9.977 0 0 0-1.053 4.9v78.839a11.511 11.511 0 0 0 .756 4.671c.5 1.105 1.71 2.059 3.618 2.862l3.013 1.355v1.507h-37.535v-1.507l3.165-1.352q2.862-1.2 3.619-2.862a11.632 11.632 0 0 0 .756-4.671v-33.919l.3-43.114-31.508 87.431h-7.537l-32.863-86.378.454 37.535v37.988a12.446 12.446 0 0 0 .977 5.352 5.928 5.928 0 0 0 3.845 2.938l3.316 1.053v1.507h-19.9z" transform="translate(-24.791 -148.38)" style="fill:#fff"/>
            <path data-name="Trazado 13401" d="M254.36 247.865v-1.507l3.165-1.2q3.011-1.056 3.921-2.862a10.425 10.425 0 0 0 .9-4.671v-78.843a10.918 10.918 0 0 0-.9-4.823c-.605-1.2-1.908-2.158-3.921-2.862l-3.165-1.2v-1.507h37.535v1.507l-3.316 1.355a5.779 5.779 0 0 0-3.467 2.711 11.242 11.242 0 0 0-.9 4.974v78.839a9.249 9.249 0 0 0 .977 4.671 7.053 7.053 0 0 0 3.845 2.711l2.862 1.2v1.507H254.36zm55.627 0v-1.507l1.961-.605c2.007-.6 3.066-1.606 3.165-3.013a7.654 7.654 0 0 0-1.809-4.823l-28.942-41.153 38.14-38.89a7.174 7.174 0 0 0 2.339-4.072q.227-1.955-2.938-3.013l-2.565-.9v-1.509h22.008v1.507l-3.921 1.2a17.284 17.284 0 0 0-5.277 2.56 47.422 47.422 0 0 0-4.52 4.072l-26.984 27.591 35.423 51.706a41.89 41.89 0 0 0 4.293 5.428 13.677 13.677 0 0 0 5.806 3.316l2.112.605v1.507h-38.291z" transform="translate(-110.737 -148.38)" style="fill:#fff"/>
        </g>
        <path data-name="Trazado 13402" d="M65.907 43.416a.793.793 0 0 1 .436.233.271.271 0 0 1 .07.337.433.433 0 0 1-.233.186.635.635 0 0 1-.279.012 2.953 2.953 0 0 1-.384-.023 65.153 65.153 0 0 0-7.278.32q-4.529.4-7.3.78c-1.425.186-2.845.384-4.27.6a.352.352 0 0 0-.128.035 3.659 3.659 0 0 0-1.629.657 53.205 53.205 0 0 1-5.608 3.345q-2.9 1.5-5.911 2.792a96.808 96.808 0 0 1-9.983 3.764 2.293 2.293 0 0 0-1.524 1.268q-2.26 4.511-4.724 8.831-2.182 3.848-4.189 7.778a.06.06 0 0 1-.023.047.926.926 0 0 1-.209.337.579.579 0 0 1-.483.128.536.536 0 0 1-.3 0 .462.462 0 0 1-.314-.46 2.115 2.115 0 0 1 .361-1.041.075.075 0 0 0 .023-.058q2.033-3.648 4-7.3t3.8-7.4c.1-.209.2-.419.3-.634.041-.11.081-.221.128-.337-.116-.029-.221-.058-.32-.081a3.693 3.693 0 0 0-.564.163 1.139 1.139 0 0 0-.2.07q-3.552 1.012-7.19 1.734a47.807 47.807 0 0 1-5.055.634 1.163 1.163 0 0 1-.233.023 4.9 4.9 0 0 1-.506.023 6.025 6.025 0 0 1-1.9-.3 1.187 1.187 0 0 1-.844-.8 1.374 1.374 0 0 1 .337-1.181 5.309 5.309 0 0 1 1.5-1.21A22.1 22.1 0 0 1 9.4 54.681q5.759-2.182 11.682-3.834c.215-.07.442-.134.681-.186a6.74 6.74 0 0 0 1.419-.442 1.989 1.989 0 0 0 .995-1.024q1.248-2.871 2.4-5.754t2.147-5.858a.139.139 0 0 1 .023-.07 4.712 4.712 0 0 1 .407-1.018.547.547 0 0 1 .273-.227.611.611 0 0 1 .337-.029.566.566 0 0 1 .279 0 .546.546 0 0 1 .436.506 4.173 4.173 0 0 1-.291 1.524.139.139 0 0 1-.023.07q-1.248 3.813-2.792 7.493c-.268.675-.547 1.35-.832 2.007-.111.239-.209.483-.314.739a1.248 1.248 0 0 0-.163.617c.023.111.1.163.239.157a1.713 1.713 0 0 0 .489-.116c.064-.017.128-.029.2-.047.745-.192 1.5-.384 2.24-.564l4.084-1.018q5.035-1.187 10.134-2.03a3.366 3.366 0 0 0 1.594-.7 23.689 23.689 0 0 0 2.876-2.588 14.843 14.843 0 0 0 2.35-3.2 6.582 6.582 0 0 0 .838-3.52 5.925 5.925 0 0 0-1.664-3.584 9.569 9.569 0 0 0-2.31-1.78 22.01 22.01 0 0 0-6.545-2.152 48.912 48.912 0 0 0-8.191-.727 73.516 73.516 0 0 0-8.75.442 76.413 76.413 0 0 0-8.2 1.344 44.285 44.285 0 0 0-6.556 1.955 25.694 25.694 0 0 0-4.5 2.31 14.983 14.983 0 0 0-1.629 1.163 8.3 8.3 0 0 0-1.361 1.449.747.747 0 0 1-.611.378H.558a.978.978 0 0 1-.291-.041.4.4 0 0 1-.221-.169.551.551 0 0 1-.047-.215.644.644 0 0 1 .023-.192 2.771 2.771 0 0 1 .529-.814c.221-.233.448-.465.681-.686a17.732 17.732 0 0 1 1.92-1.419c.663-.425 1.35-.82 2.048-1.187a33.306 33.306 0 0 1 6.882-2.571 75.016 75.016 0 0 1 9.2-1.838 80.173 80.173 0 0 1 10.105-.762 54.031 54.031 0 0 1 9.535.675 23.571 23.571 0 0 1 7.574 2.472 9.869 9.869 0 0 1 2.507 1.949 6.552 6.552 0 0 1 1.774 3.467 6.394 6.394 0 0 1-.471 3.322 12.662 12.662 0 0 1-1.891 3.072c-.8.971-1.629 1.885-2.478 2.728a2.725 2.725 0 0 0-.3.32.409.409 0 0 0-.128.32c.017.087.145.111.384.081q4.258-.689 8.5-1.047t8.534-.477h.256a5.908 5.908 0 0 1 .716.047zm-44.7 12.316a5.774 5.774 0 0 1 .343-.657c.239-.454.489-.954.75-1.507a9.535 9.535 0 0 0 .57-1.449c.116-.413.058-.64-.18-.681a2.52 2.52 0 0 0-.425.1.426.426 0 0 0-.128.023 50.75 50.75 0 0 1-1.629.483q-1.955.567-3.915 1.2a1.632 1.632 0 0 0-.2.07q-3.508 1.073-6.911 2.472a19.261 19.261 0 0 0-3.269 1.722 2.85 2.85 0 0 0-.972.89.487.487 0 0 0-.087.419.5.5 0 0 0 .32.3 3.462 3.462 0 0 0 1.088.174c.326 0 .646-.017.972-.047h.023a39.052 39.052 0 0 0 4.951-.82q3.866-.855 7.644-2a.2.2 0 0 1 .081-.035 2.171 2.171 0 0 0 .553-.209 1.035 1.035 0 0 0 .413-.448zm2.158-.448a51.033 51.033 0 0 0 6.225-2.2q3.936-1.606 7.569-3.4a24.485 24.485 0 0 0 4.945-2.961h-.384q-7.976 1.579-15.789 3.764a1.356 1.356 0 0 0-.948.832c-.314.675-.628 1.344-.937 2.007q-.358.742-.716 1.5a.72.72 0 0 0-.058.233.287.287 0 0 0 .093.233z"/>
        <path data-name="Trazado 13403" d="M51.225 50.874a1.176 1.176 0 0 1-.75 1.041c-.431.163-.57-.052-.419-.634s-.116-.733-.791-.442a5.3 5.3 0 0 0-1.675 1.094 14.376 14.376 0 0 0-1.8 2.24c-.052.07-.1.128-.128.175-.151.221-.308.436-.46.634a.624.624 0 0 1-.349.262.988.988 0 0 1-.413.017.447.447 0 0 1-.3-.151.27.27 0 0 1-.023-.3 6.93 6.93 0 0 1 .3-.634c.692-1.286 1.4-2.571 2.112-3.869a.06.06 0 0 0 .023-.047 2.911 2.911 0 0 1 .361-.553.574.574 0 0 1 .529-.209.476.476 0 0 1 .4.361c.087.268.157.419.221.454s.2.012.413-.076a7.281 7.281 0 0 1 1.35-.361 2.14 2.14 0 0 1 1.076.052c.279.1.39.419.32.954z"/>
        <path data-name="Trazado 13404" d="M61.584 53.527a7.533 7.533 0 0 1-3.048 1.734 6.23 6.23 0 0 1-1.233.169 4.635 4.635 0 0 1-1.867-.279 1.6 1.6 0 0 1-.972-2.158 3.685 3.685 0 0 1 1.641-2.147 4.561 4.561 0 0 1 2.548-.75h.023a2.069 2.069 0 0 1 .634.046.982.982 0 0 1 .646.6 1.07 1.07 0 0 1-.186.925 2.627 2.627 0 0 1-2.007 1.245 5.412 5.412 0 0 1-1.629-.081.311.311 0 0 0-.268.081.431.431 0 0 0-.14.256c-.157.663.052 1.088.611 1.268a3.343 3.343 0 0 0 2.158 0 6.3 6.3 0 0 0 2.461-1.524q1.169-1.117 1.344-1.047c.122.052.157.192.111.43a2.963 2.963 0 0 1-.832 1.222zm-4.922-1.862a.459.459 0 0 0-.1.18.165.165 0 0 0 .076.18 1.388 1.388 0 0 0 .878.169 1.457 1.457 0 0 0 .8-.361.807.807 0 0 0 .285-.721.242.242 0 0 0-.163-.192.481.481 0 0 0-.256-.017 2.991 2.991 0 0 0-1.52.762z"/>
        <path data-name="Trazado 13405" d="M77.327 52.177c.268-.169.483-.209.634-.128s.1.326-.175.716a6.251 6.251 0 0 1-1.815 1.454 3.915 3.915 0 0 1-2.315.675c-.669-.064-.867-.558-.582-1.483s.43-1.443.454-1.553 0-.175-.064-.192-.215.064-.454.233c-.692.477-1.373.977-2.03 1.5-.285.215-.564.442-.844.681-.169.151-.343.308-.529.46l-.023.023a1.539 1.539 0 0 1-.739.407 1.077 1.077 0 0 1-.413.041.6.6 0 0 1-.372-.169.375.375 0 0 1-.128-.361 2.074 2.074 0 0 1 .291-.57c.163-.256.337-.535.535-.838a4 4 0 0 0 .332-.558.231.231 0 0 0-.035-.209.143.143 0 0 0-.18-.064c-.064.029-.308.192-.733.494s-1 .727-1.734 1.274q-.506.384-.995.785a1.8 1.8 0 0 1-.279.233 1.341 1.341 0 0 1-.785.326.522.522 0 0 1-.46-.14.4.4 0 0 1-.047-.436 1.74 1.74 0 0 1 .175-.378.535.535 0 0 0 .081-.163c.605-1.233 1.21-2.467 1.8-3.706a.767.767 0 0 0 .047-.128c.07-.128.14-.256.209-.378a.623.623 0 0 1 .657-.2c.291.087.407.256.337.506-.14.384-.273.768-.4 1.14l-.209.506c-.116.3-.151.495-.111.576s.233.029.57-.175c.233-.151.46-.308.681-.46q.4-.279.785-.506a8.61 8.61 0 0 1 1.2-.611 3.294 3.294 0 0 1 .617-.192.7.7 0 0 1 .593.145.425.425 0 0 1 .18.39 1.257 1.257 0 0 1-.122.413 1.037 1.037 0 0 0-.134.483c.017.07.081.081.18.041a4.221 4.221 0 0 0 .529-.3c.256-.151.529-.326.82-.506.367-.239.756-.465 1.164-.681a2.428 2.428 0 0 1 1.088-.4c.529-.041.75.175.652.64a9.431 9.431 0 0 1-.559 1.664c-.279.64-.308 1.036-.087 1.181s.7-.052 1.46-.593 1.181-.849 1.28-.919z"/>
        <path data-name="Trazado 13406" d="M85.61 53.097a8.112 8.112 0 0 1-1.46 1.344 4.9 4.9 0 0 1-1.9.826 2.244 2.244 0 0 1-1.652-.157c-.39-.244-.471-.791-.233-1.641a11.042 11.042 0 0 1 1.268-2.507 1 1 0 0 1 .529-.361.491.491 0 0 1 .442.087.34.34 0 0 1 .145.361c-.116.279-.244.553-.384.832s-.233.46-.279.541a5.383 5.383 0 0 0-.564 1.547c0 .308.413.326 1.233.058a6.532 6.532 0 0 0 2.4-1.483c.78-.721 1.146-.931 1.111-.634a2.556 2.556 0 0 1-.669 1.175zm-2.013-3.863a.926.926 0 0 1-.238.111 2 2 0 0 1-.378.093.408.408 0 0 1-.32-.064c-.076-.064-.081-.186-.012-.366a5.839 5.839 0 0 1 .39-.849 7.122 7.122 0 0 1 .524-.8.751.751 0 0 1 .448-.215.5.5 0 0 1 .4.128.367.367 0 0 1 .093.4 3.518 3.518 0 0 1-.913 1.571z"/>
        <path data-name="Trazado 13407" d="M89.357 55.918c-.733 0-1.094-.384-1.094-1.14q0-1.4 1.815-4.927a.256.256 0 0 1 .256-.151c.483 0 .727.192.727.576a1.289 1.289 0 0 1-.128.506c-.029.052-.436 1.07-1.21 3.048a2.367 2.367 0 0 0-.186.716c0 .169.076.256.233.256q.838 0 4.421-4.189a1.244 1.244 0 0 1 .913-.564c.436 0 .657.163.657.483a8.945 8.945 0 0 1-.4 1.4 12.182 12.182 0 0 0-.553 1.9c0 .256.087.384.256.384q.637 0 3.706-2.263a.508.508 0 0 1 .3-.151c.192 0 .291.163.291.483a.3.3 0 0 1-.081.209 25.508 25.508 0 0 1-2.769 2.123 3.515 3.515 0 0 1-1.85.669h-.163c-.791-.169-1.187-.791-1.187-1.856a90.693 90.693 0 0 1-2.106 1.809 2.819 2.819 0 0 1-1.832.686z"/>
        <path data-name="Trazado 13408" d="M114.164 52.177c.268-.169.483-.209.634-.128s.1.326-.175.716a6.252 6.252 0 0 1-1.815 1.454 3.915 3.915 0 0 1-2.315.675c-.669-.064-.861-.558-.582-1.483s.43-1.443.454-1.553 0-.175-.064-.192-.215.064-.454.233a39.17 39.17 0 0 0-2.03 1.5c-.285.215-.564.442-.844.681-.169.151-.343.308-.529.46l-.023.023a1.54 1.54 0 0 1-.739.407 1.089 1.089 0 0 1-.413.041.568.568 0 0 1-.367-.169.375.375 0 0 1-.128-.361 2.071 2.071 0 0 1 .291-.57c.163-.25.343-.535.535-.838a4.772 4.772 0 0 0 .332-.558.231.231 0 0 0-.035-.209.143.143 0 0 0-.18-.064c-.064.029-.308.192-.733.494s-1 .727-1.734 1.274q-.506.384-.995.785a1.562 1.562 0 0 1-.279.233 1.341 1.341 0 0 1-.785.326.522.522 0 0 1-.46-.14.4.4 0 0 1-.047-.436 1.74 1.74 0 0 1 .175-.378.536.536 0 0 0 .081-.163c.605-1.233 1.21-2.467 1.8-3.706a.769.769 0 0 0 .047-.128c.07-.128.14-.256.209-.378a.62.62 0 0 1 .657-.2c.291.087.4.256.337.506-.14.384-.273.768-.4 1.14l-.209.506c-.116.3-.151.495-.111.576s.233.029.57-.175c.233-.151.46-.308.681-.46q.4-.279.785-.506a8.945 8.945 0 0 1 1.2-.611 3.3 3.3 0 0 1 .617-.192.7.7 0 0 1 .593.145.425.425 0 0 1 .18.39 1.258 1.258 0 0 1-.122.413 1.039 1.039 0 0 0-.134.483c.017.07.081.081.18.041a4.222 4.222 0 0 0 .529-.3c.25-.157.529-.326.82-.506.367-.239.756-.465 1.163-.681a2.428 2.428 0 0 1 1.088-.4c.529-.041.75.175.652.64a9.433 9.433 0 0 1-.559 1.664c-.273.646-.308 1.036-.087 1.181s.7-.052 1.46-.593 1.181-.849 1.28-.919z"/>
        <path data-name="Trazado 13409" d="M186.247 43.416a.793.793 0 0 1 .436.233.263.263 0 0 1 .07.337.434.434 0 0 1-.233.186.636.636 0 0 1-.279.012 2.8 2.8 0 0 1-.378-.023 65.158 65.158 0 0 0-7.278.32q-4.529.4-7.3.78c-1.425.186-2.845.384-4.27.6a.353.353 0 0 0-.128.035 3.659 3.659 0 0 0-1.629.657 53.2 53.2 0 0 1-5.608 3.345q-2.9 1.5-5.911 2.792a96.8 96.8 0 0 1-9.983 3.764 2.293 2.293 0 0 0-1.524 1.268q-2.26 4.511-4.724 8.831-2.182 3.848-4.189 7.778a.06.06 0 0 1-.023.047.926.926 0 0 1-.209.337.579.579 0 0 1-.483.128.535.535 0 0 1-.3 0 .462.462 0 0 1-.314-.46 2.106 2.106 0 0 1 .355-1.041.075.075 0 0 0 .023-.058q2.033-3.648 4-7.3t3.8-7.4c.1-.209.2-.419.3-.634.041-.111.081-.221.128-.337-.116-.029-.221-.058-.326-.081a3.894 3.894 0 0 0-.564.163 1.135 1.135 0 0 0-.2.07q-3.552 1.012-7.19 1.734a47.807 47.807 0 0 1-5.055.634 1.164 1.164 0 0 1-.233.023 4.9 4.9 0 0 1-.506.023 6 6 0 0 1-1.9-.3 1.187 1.187 0 0 1-.844-.8 1.374 1.374 0 0 1 .337-1.181 5.309 5.309 0 0 1 1.5-1.21 22.1 22.1 0 0 1 4.119-2.007q5.759-2.182 11.682-3.834c.215-.07.442-.134.681-.186a6.74 6.74 0 0 0 1.419-.442 1.989 1.989 0 0 0 .995-1.024q1.248-2.871 2.4-5.754t2.147-5.858a.139.139 0 0 1 .023-.07 5.011 5.011 0 0 1 .4-1.018.547.547 0 0 1 .273-.227.612.612 0 0 1 .337-.029.567.567 0 0 1 .279 0 .546.546 0 0 1 .436.506 4.173 4.173 0 0 1-.291 1.524.139.139 0 0 1-.023.07q-1.248 3.813-2.792 7.493c-.268.675-.547 1.35-.832 2.007-.1.238-.209.483-.314.739a1.248 1.248 0 0 0-.163.617c.023.111.1.163.239.157a1.714 1.714 0 0 0 .489-.116c.064-.017.128-.029.2-.047.745-.192 1.5-.384 2.24-.564l4.084-1.018q5.035-1.187 10.134-2.03a3.365 3.365 0 0 0 1.594-.7 23.682 23.682 0 0 0 2.874-2.583 14.839 14.839 0 0 0 2.35-3.2 6.623 6.623 0 0 0 .838-3.52 5.925 5.925 0 0 0-1.664-3.584 9.567 9.567 0 0 0-2.31-1.78 22.011 22.011 0 0 0-6.545-2.152 48.915 48.915 0 0 0-8.191-.727 73.515 73.515 0 0 0-8.749.442 76.436 76.436 0 0 0-8.2 1.344 44.293 44.293 0 0 0-6.556 1.955 25.7 25.7 0 0 0-4.5 2.31 14.44 14.44 0 0 0-1.629 1.164A8.3 8.3 0 0 0 121.728 36a.747.747 0 0 1-.611.378h-.233a.975.975 0 0 1-.291-.041.377.377 0 0 1-.221-.169.551.551 0 0 1-.047-.215.642.642 0 0 1 .023-.192 2.772 2.772 0 0 1 .529-.814c.221-.233.448-.465.681-.686a17.744 17.744 0 0 1 1.92-1.419c.663-.425 1.35-.82 2.048-1.187a33.31 33.31 0 0 1 6.882-2.571 75.006 75.006 0 0 1 9.2-1.838 80.25 80.25 0 0 1 10.105-.762 54.031 54.031 0 0 1 9.535.675 23.567 23.567 0 0 1 7.574 2.472 9.868 9.868 0 0 1 2.507 1.949 6.551 6.551 0 0 1 1.774 3.467 6.334 6.334 0 0 1-.471 3.322 12.659 12.659 0 0 1-1.891 3.072c-.8.971-1.629 1.885-2.478 2.728a2.711 2.711 0 0 0-.3.32.431.431 0 0 0-.128.32c.012.087.14.111.378.081q4.258-.689 8.5-1.047t8.534-.477h.256a5.908 5.908 0 0 1 .716.047zm-44.69 12.316a5.147 5.147 0 0 1 .349-.657c.238-.454.489-.954.75-1.507a9.545 9.545 0 0 0 .57-1.449c.122-.413.058-.64-.18-.681a2.518 2.518 0 0 0-.425.1.427.427 0 0 0-.128.023 50.75 50.75 0 0 1-1.629.483q-1.955.567-3.915 1.2a1.618 1.618 0 0 0-.2.07q-3.508 1.073-6.917 2.472a19.266 19.266 0 0 0-3.269 1.722 2.9 2.9 0 0 0-.972.89.487.487 0 0 0-.087.419.5.5 0 0 0 .32.3 3.453 3.453 0 0 0 1.082.175c.326 0 .646-.017.972-.047h.023a39.045 39.045 0 0 0 4.951-.82q3.866-.855 7.644-2a.2.2 0 0 1 .081-.035 2.173 2.173 0 0 0 .553-.209 1.035 1.035 0 0 0 .413-.448zm2.158-.448a50.65 50.65 0 0 0 6.219-2.2q3.936-1.606 7.569-3.4a24.659 24.659 0 0 0 4.945-2.961h-.384q-7.976 1.579-15.789 3.764a1.356 1.356 0 0 0-.948.832c-.314.675-.628 1.344-.937 2.007q-.358.742-.715 1.5a.718.718 0 0 0-.058.233.287.287 0 0 0 .093.233z"/>
        <path data-name="Trazado 13410" d="M171.57 50.874a1.176 1.176 0 0 1-.75 1.041c-.43.163-.57-.052-.419-.634s-.116-.733-.791-.442a5.3 5.3 0 0 0-1.676 1.094 14.415 14.415 0 0 0-1.8 2.24c-.052.07-.1.128-.128.175-.151.221-.308.436-.46.634a.617.617 0 0 1-.355.262.968.968 0 0 1-.407.017.434.434 0 0 1-.3-.151.27.27 0 0 1-.023-.3 6.9 6.9 0 0 1 .3-.634c.692-1.286 1.4-2.571 2.112-3.869a.06.06 0 0 0 .023-.047 2.917 2.917 0 0 1 .361-.553.574.574 0 0 1 .529-.209.49.49 0 0 1 .407.361c.081.268.157.419.221.454s.2.012.413-.076a7.28 7.28 0 0 1 1.35-.361 2.168 2.168 0 0 1 1.082.052c.279.1.39.419.32.954z"/>
        <path data-name="Trazado 13411" d="M177.184 55.225h-.035a2.683 2.683 0 0 1-2.2-.745 1.8 1.8 0 0 1 .046-1.92 6.12 6.12 0 0 1 1.222-1.594 2.421 2.421 0 0 1 .518-.366 1.265 1.265 0 0 1 .6-.14.809.809 0 0 1 .448.07c.052.018.111.035.163.058a1.322 1.322 0 0 0 .378-.128.437.437 0 0 1 .128-.058 1.985 1.985 0 0 1 .809-.128h.361a1.518 1.518 0 0 1 1.03.57 1.45 1.45 0 0 1 .244 1.134 2.23 2.23 0 0 1-.256.762 4.14 4.14 0 0 1-3.38 2.484zm1.821-4.136a2.409 2.409 0 0 0-1.623.524 3.617 3.617 0 0 0-1.059 1.286 1.621 1.621 0 0 0-.192 1.193c.1.314.425.4.966.262a3.576 3.576 0 0 0 1.611-1.041 3.309 3.309 0 0 0 .855-1.449c.1-.46-.081-.716-.558-.78z"/>
        <path data-name="Trazado 13412" d="M194.208 51.898a3.761 3.761 0 0 1-.529.175 2.2 2.2 0 0 1-.128.058c-.186.07-.367.134-.553.2q-.785.253-1.606.541a1.591 1.591 0 0 0-.96.762 4.228 4.228 0 0 1-1.414 1.419 6.134 6.134 0 0 1-1.728.721 10.376 10.376 0 0 1-1.553.268 5.631 5.631 0 0 1-.873.029h-.056a1.825 1.825 0 0 0-.553.681c-.186.337-.349.64-.483.913a1.922 1.922 0 0 0-.07.186q-1.143 2.286-2.263 4.573l-1.268 2.542a7 7 0 0 1-.483.867.462.462 0 0 1-.634.128.392.392 0 0 1-.128-.506c.087-.221.175-.448.279-.669q1.981-4.695 4.212-9.291.689-1.422 1.3-2.9.279-.681.576-1.4a.554.554 0 0 1 .081-.151 5.107 5.107 0 0 1 .361-.739.48.48 0 0 1 .343-.163.673.673 0 0 1 .436.07.506.506 0 0 1 .233.448.9.9 0 0 1-.058.314 1.013 1.013 0 0 0-.058.256.373.373 0 0 0 .081.256.507.507 0 0 0 .326-.052 1.961 1.961 0 0 0 .268-.18.782.782 0 0 1 .3-.151 1.755 1.755 0 0 1 .209-.1 11.254 11.254 0 0 1 1.094-.436 1.88 1.88 0 0 1 1.4.1 1.269 1.269 0 0 1 .448.448 2.679 2.679 0 0 1 .233.564c.052.157.192.233.419.244a3.1 3.1 0 0 0 .762-.087c.279-.064.535-.134.768-.2.192-.052.332-.087.413-.1a2.2 2.2 0 0 1 .7-.047.512.512 0 0 1 .192.035c.058.023.087.087.087.186a.244.244 0 0 1-.035.122.193.193 0 0 1-.093.087zm-4.846.762a.688.688 0 0 0 .285-.494 1.248 1.248 0 0 0-.076-.669.342.342 0 0 0-.157-.145.49.49 0 0 0-.2-.041 1.5 1.5 0 0 0-.407.128 8.862 8.862 0 0 0-3.45 3.048c-.169.308-.145.442.064.407a3.55 3.55 0 0 0 .954-.39c.425-.227.861-.489 1.315-.785l1.164-.756a5.1 5.1 0 0 1 .506-.3z"/>
        <path data-name="Trazado 13413" d="M203.654 53.527a7.533 7.533 0 0 1-3.048 1.734 6.23 6.23 0 0 1-1.233.169 4.651 4.651 0 0 1-1.867-.279 1.6 1.6 0 0 1-.972-2.158 3.686 3.686 0 0 1 1.641-2.147 4.566 4.566 0 0 1 2.554-.75h.023a2.069 2.069 0 0 1 .634.046.982.982 0 0 1 .646.6 1.067 1.067 0 0 1-.186.925 2.627 2.627 0 0 1-2.007 1.245 5.411 5.411 0 0 1-1.629-.081.311.311 0 0 0-.268.081.431.431 0 0 0-.14.256c-.151.663.052 1.088.611 1.268a3.343 3.343 0 0 0 2.158 0 6.3 6.3 0 0 0 2.461-1.524q1.169-1.117 1.344-1.047c.116.047.157.192.111.43a2.906 2.906 0 0 1-.832 1.222zm-4.916-1.862a.459.459 0 0 0-.1.18.157.157 0 0 0 .076.18 1.389 1.389 0 0 0 .878.169 1.457 1.457 0 0 0 .8-.361.807.807 0 0 0 .285-.721.242.242 0 0 0-.163-.192.481.481 0 0 0-.256-.017 2.992 2.992 0 0 0-1.52.762z"/>
        <path data-name="Trazado 13414" d="M212.88 50.874a1.176 1.176 0 0 1-.751 1.041c-.431.163-.57-.052-.419-.634s-.116-.733-.791-.442a5.294 5.294 0 0 0-1.675 1.094 14.4 14.4 0 0 0-1.8 2.24c-.052.07-.1.128-.128.175-.151.221-.308.436-.46.634a.617.617 0 0 1-.355.262.968.968 0 0 1-.407.017.434.434 0 0 1-.3-.151.27.27 0 0 1-.023-.3 6.929 6.929 0 0 1 .3-.634c.692-1.286 1.4-2.571 2.112-3.869a.06.06 0 0 0 .023-.047 2.918 2.918 0 0 1 .361-.553.575.575 0 0 1 .529-.209.49.49 0 0 1 .407.361c.081.268.157.419.221.454s.2.012.413-.076a7.278 7.278 0 0 1 1.35-.361 2.168 2.168 0 0 1 1.082.052c.279.1.39.419.32.954z"/>
        <path data-name="Trazado 13415" d="M223.865 52.381a12.108 12.108 0 0 1-3.031 2.688 4.562 4.562 0 0 1-3.176.57q-1.693-.3-1.39-2.269a12.981 12.981 0 0 1 .564-1.937q.89-2.208 1.8-4.386c.2-.524.413-1.053.634-1.582.052-.116.1-.233.151-.343.087-.192.169-.39.256-.588.122-.337-.012-.518-.4-.529h-.995c-.116.017-.233.029-.361.047-.2.017-.4.023-.593.023a1.06 1.06 0 0 1-.547-.151.233.233 0 0 1-.111-.087.251.251 0 0 1-.041-.145.75.75 0 0 1 .076-.111.3.3 0 0 1 .134-.087 2.4 2.4 0 0 1 .529-.151c.477-.023.948-.041 1.419-.058h.483a4.908 4.908 0 0 0 .686-.035.5.5 0 0 0 .361-.244 4.68 4.68 0 0 0 .326-.634c.07-.151.151-.326.256-.506.256-.541.506-1.088.762-1.652.116-.256.233-.5.361-.739a1.127 1.127 0 0 1 .471-.553.489.489 0 0 1 .541.023.312.312 0 0 1 .11.151.49.49 0 0 1 .041.186 1.866 1.866 0 0 1-.233.89c-.029.064-.064.134-.1.221-.1.279-.209.558-.326.844a33.308 33.308 0 0 0-.634 1.606.248.248 0 0 0-.006.268.254.254 0 0 0 .227.116c.547.017 1.082.023 1.606.023h.809c.849.017 1.187.134 1.018.361a.628.628 0 0 1-.372.227 1.593 1.593 0 0 1-.407 0h-.256q-1.292.079-2.565.1a.766.766 0 0 0-.785.529c-.14.337-.273.675-.4 1.018-.192.448-.372.884-.541 1.3-.169.4-.337.8-.506 1.21q-.654 1.545-1.268 3.107a13.471 13.471 0 0 0-.6 2.077q-.48 1.929 1.489 1.478a8.52 8.52 0 0 0 4.061-2.792c.617-.39.78-.215.483.529z"/>
        <path data-name="Trazado 13416" d="M231.345 53.097a8.112 8.112 0 0 1-1.46 1.344 4.9 4.9 0 0 1-1.9.826 2.244 2.244 0 0 1-1.652-.157c-.39-.244-.471-.791-.233-1.641a11.046 11.046 0 0 1 1.268-2.507 1 1 0 0 1 .529-.361.494.494 0 0 1 .442.087.34.34 0 0 1 .146.361c-.116.279-.244.553-.384.832s-.233.46-.279.541a5.383 5.383 0 0 0-.564 1.547c0 .308.413.326 1.233.058a6.531 6.531 0 0 0 2.4-1.483c.78-.721 1.146-.931 1.117-.634a2.557 2.557 0 0 1-.669 1.175zm-2.013-3.863a.926.926 0 0 1-.238.111 2 2 0 0 1-.378.093.408.408 0 0 1-.32-.064c-.076-.064-.081-.186-.012-.366a5.843 5.843 0 0 1 .39-.849 7.139 7.139 0 0 1 .524-.8.751.751 0 0 1 .448-.215.523.523 0 0 1 .407.128.367.367 0 0 1 .093.4 3.517 3.517 0 0 1-.913 1.571z"/>
        <path data-name="Trazado 13417" d="M241.38 53.527a7.532 7.532 0 0 1-3.048 1.734 6.23 6.23 0 0 1-1.233.169 4.651 4.651 0 0 1-1.867-.279 1.6 1.6 0 0 1-.972-2.158 3.686 3.686 0 0 1 1.641-2.147 4.566 4.566 0 0 1 2.554-.75h.023a2.069 2.069 0 0 1 .634.046.982.982 0 0 1 .646.6 1.067 1.067 0 0 1-.186.925 2.627 2.627 0 0 1-2.007 1.245 5.412 5.412 0 0 1-1.629-.081.311.311 0 0 0-.268.081.431.431 0 0 0-.14.256c-.151.663.052 1.088.611 1.268a3.343 3.343 0 0 0 2.158 0 6.3 6.3 0 0 0 2.461-1.524q1.169-1.117 1.344-1.047c.116.047.157.192.111.43a2.906 2.906 0 0 1-.832 1.222zm-4.916-1.862a.459.459 0 0 0-.1.18.157.157 0 0 0 .076.18 1.388 1.388 0 0 0 .878.169 1.457 1.457 0 0 0 .8-.361.807.807 0 0 0 .285-.721.242.242 0 0 0-.163-.192.481.481 0 0 0-.256-.017 2.991 2.991 0 0 0-1.52.762z"/>
        <path data-name="Trazado 13418" d="M250.653 52.108a25.505 25.505 0 0 0-2.63 1.105 1.588 1.588 0 0 0-.675.477c-.058.128-.012.361.134.7a.128.128 0 0 0 .035.07 4.166 4.166 0 0 1 .3 1.268c.052.884-.7 1.507-2.257 1.856s-2.6.366-3.13.035a.947.947 0 0 1-.483-1.257 3.7 3.7 0 0 1 1.588-1.547c.855-.524 1.425-.9 1.716-1.129a.632.632 0 0 0 .262-.774c-.041-.1-.081-.2-.128-.3-.1-.239-.2-.483-.314-.739a3.02 3.02 0 0 1-.262-1.361 1.682 1.682 0 0 1 .495-1.123 2.039 2.039 0 0 1 1.414-.489 2.356 2.356 0 0 1 .972.145 1.341 1.341 0 0 1 .681.617.373.373 0 0 1-.128.564.413.413 0 0 1-.471.047 1.227 1.227 0 0 1-.314-.2v-.035c-.047-.029-.087-.064-.128-.093a.685.685 0 0 0-.151-.163.676.676 0 0 0-.6-.134.71.71 0 0 0-.454.465 1.823 1.823 0 0 0-.1.611 2.32 2.32 0 0 0 .175.739c.07.145.128.279.186.4a3.684 3.684 0 0 0 .326.7.306.306 0 0 0 .308.163c.122-.017 1.21-.407 3.275-1.169.448-.145.576.035.378.541zm-5 4.41a.9.9 0 0 0 .681-1.088.353.353 0 0 0-.023-.128 1.675 1.675 0 0 0-.186-.675c-.093-.157-.3-.151-.622.017a12.32 12.32 0 0 0-2.217 1.594c-.046.052-.087.1-.128.151l-.023.035a.207.207 0 0 0-.023.209.2.2 0 0 0 .209.116 4.629 4.629 0 0 0 2.333-.233z"/>
        <g data-name="Grupo 9449">
            <path data-name="Trazado 13419" d="m41.552 122.366-.518-1.565a1.47 1.47 0 0 0-1.4-1.2h-3.382v3.584h-.69v-8.283h4.79c1.71 0 2.862.942 2.862 2.333a2.343 2.343 0 0 1-2.391 2.24v.012a2.056 2.056 0 0 1 .931 1.274l.46 1.425c.1.366.273.622.622.622a.857.857 0 0 0 .71-.483l.39.413a1.439 1.439 0 0 1-1.187.681c-.646 0-.989-.448-1.193-1.047zm-1.227-3.4c1.309 0 2.193-.692 2.193-1.71s-.884-1.722-2.193-1.722h-4.073v3.427h4.078z"/>
            <path data-name="Trazado 13420" d="M55.435 114.896h6.783v.634h-6.1v3.037h5.631v.622h-5.631v3.345h6.219v.634h-6.908v-8.278z"/>
            <path data-name="Trazado 13421" d="M77.133 114.896h.838l3.84 8.278h-.745l-.966-2.083H75l-.966 2.083h-.745l3.84-8.278zm2.694 5.573-2.263-4.922h-.031l-2.275 4.922z"/>
            <path data-name="Trazado 13422" d="M93.353 114.896h.7v7.644h5.05v.634h-5.748v-8.278z"/>
            <path data-name="Trazado 13423" d="M122.953 114.896h6.783v.634h-6.1v3.037h5.631v.622h-5.631v3.345h6.219v.634h-6.908v-8.278z"/>
            <path data-name="Trazado 13424" d="m140.946 120.632.634-.233c.262 1.46 1.722 2.438 3.63 2.438 1.71 0 2.8-.745 2.8-1.815 0-.838-.669-1.332-2.2-1.623l-1.9-.366c-1.635-.308-2.391-.931-2.391-2 0-1.472 1.251-2.426 3.112-2.426a3.4 3.4 0 0 1 3.4 2.147l-.6.285a2.8 2.8 0 0 0-2.792-1.792c-1.46 0-2.426.692-2.426 1.722 0 .756.564 1.181 1.862 1.425l1.885.355c1.873.343 2.734 1.047 2.746 2.216 0 1.507-1.39 2.519-3.508 2.519s-3.874-1.14-4.253-2.839z"/>
            <path data-name="Trazado 13425" d="M163.204 115.536h-3.438v-.634h7.574v.634h-3.438v7.644h-.7z"/>
            <path data-name="Trazado 13426" d="M182.047 114.896h.838l3.84 8.278h-.745l-.966-2.083h-5.1l-.966 2.083h-.746l3.84-8.278zm2.693 5.573-2.263-4.922h-.023l-2.275 4.922z"/>
            <path data-name="Trazado 13427" d="M201.157 115.536h-3.438v-.634h7.574v.634h-3.438v7.644h-.7z"/>
            <path data-name="Trazado 13428" d="M216.718 114.896h6.783v.634h-6.1v3.037h5.631v.622h-5.631v3.345h6.217v.634h-6.91v-8.278z"/>
        </g>
    </g>
</svg>
