<svg xmlns="http://www.w3.org/2000/svg" width="184.919" height="91.062" viewBox="0 0 184.919 91.062">
    <g data-name="Grupo 9448">
        <g data-name="Grupo 9450">
            <path data-name="Trazado 13400" d="M48.874 221.745v-1.111l2.222-.777q3.777-1.223 3.78-6.336V156.6a10.333 10.333 0 0 0-.5-3.557 4.36 4.36 0 0 0-2.613-2.222l-2.892-1.334v-1.107h21.454l20.567 53.807 19.344-53.807h21.9v1.111l-1.776.665a5.188 5.188 0 0 0-2.892 2.166 7.357 7.357 0 0 0-.776 3.612v58.14a8.489 8.489 0 0 0 .558 3.445 4.767 4.767 0 0 0 2.668 2.111l2.222 1v1.111h-27.68v-1.111l2.334-1a4.782 4.782 0 0 0 2.668-2.111 8.578 8.578 0 0 0 .558-3.445v-25.011l.223-31.794-23.234 64.476h-5.56l-24.235-63.7.335 27.68v28.015a9.178 9.178 0 0 0 .721 3.947 4.372 4.372 0 0 0 2.836 2.166l2.445.777v1.111H48.879z" transform="translate(-31.113 -148.38)" style="fill:#c1a664"/>
            <path data-name="Trazado 13401" d="M254.36 221.745v-1.111l2.334-.888a4.8 4.8 0 0 0 2.892-2.111 7.688 7.688 0 0 0 .665-3.445v-58.14a8.051 8.051 0 0 0-.665-3.557 4.791 4.791 0 0 0-2.892-2.111l-2.334-.888v-1.111h27.68v1.117l-2.445 1a4.262 4.262 0 0 0-2.557 2 8.29 8.29 0 0 0-.665 3.668V214.3a6.82 6.82 0 0 0 .721 3.445 5.2 5.2 0 0 0 2.836 2l2.111.888v1.111H254.36zm41.022 0v-1.111l1.446-.446c1.48-.446 2.261-1.184 2.334-2.222a5.645 5.645 0 0 0-1.334-3.557l-21.343-30.348 28.126-28.679a5.29 5.29 0 0 0 1.725-3q.167-1.441-2.166-2.222l-1.892-.665v-1.115h16.229v1.111l-2.892.888a12.745 12.745 0 0 0-3.891 1.888 34.964 34.964 0 0 0-3.333 3l-19.9 20.344 26.122 38.13a30.89 30.89 0 0 0 3.166 4 10.086 10.086 0 0 0 4.282 2.445l1.557.446v1.111h-28.236z" transform="translate(-148.446 -148.38)" style="fill:#c1a664"/>
        </g>
        <path data-name="Trazado 13402" d="M48.603 32.017a.585.585 0 0 1 .322.172.2.2 0 0 1 .051.249.32.32 0 0 1-.172.137.468.468 0 0 1-.206.009 2.175 2.175 0 0 1-.283-.017 48.046 48.046 0 0 0-5.367.236q-3.34.3-5.384.575c-1.051.137-2.1.283-3.149.442a.26.26 0 0 0-.094.026 2.7 2.7 0 0 0-1.2.485 39.235 39.235 0 0 1-4.136 2.467q-2.136 1.107-4.359 2.059a71.4 71.4 0 0 1-7.362 2.776 1.691 1.691 0 0 0-1.124.935q-1.667 3.327-3.484 6.512-1.609 2.838-3.089 5.736a.044.044 0 0 1-.017.034.683.683 0 0 1-.154.249.427.427 0 0 1-.356.094.4.4 0 0 1-.223 0 .341.341 0 0 1-.232-.339 1.56 1.56 0 0 1 .266-.768.055.055 0 0 0 .017-.043q1.5-2.69 2.952-5.38t2.806-5.457c.073-.154.146-.309.223-.468.03-.081.06-.163.094-.249-.086-.021-.163-.043-.236-.06a2.724 2.724 0 0 0-.416.12.843.843 0 0 0-.146.051q-2.619.746-5.3 1.278a35.258 35.258 0 0 1-3.728.468.858.858 0 0 1-.172.017 3.62 3.62 0 0 1-.373.017 4.443 4.443 0 0 1-1.4-.223.875.875 0 0 1-.622-.592 1.013 1.013 0 0 1 .249-.871 3.915 3.915 0 0 1 1.107-.892 16.3 16.3 0 0 1 3.037-1.48q4.247-1.609 8.615-2.827c.159-.052.326-.1.5-.137a4.97 4.97 0 0 0 1.047-.326 1.467 1.467 0 0 0 .734-.755q.92-2.117 1.772-4.243t1.583-4.32a.1.1 0 0 1 .017-.051 3.475 3.475 0 0 1 .3-.751.4.4 0 0 1 .2-.167.451.451 0 0 1 .249-.021.418.418 0 0 1 .206 0 .4.4 0 0 1 .322.373 3.077 3.077 0 0 1-.215 1.124.1.1 0 0 1-.017.051q-.92 2.812-2.059 5.526c-.2.5-.4 1-.613 1.48-.082.176-.154.356-.232.545a.92.92 0 0 0-.12.455c.017.082.073.12.176.116a1.264 1.264 0 0 0 .36-.086c.047-.013.094-.021.146-.034.549-.142 1.1-.283 1.652-.416l3.012-.751q3.713-.875 7.473-1.5a2.482 2.482 0 0 0 1.175-.519 17.469 17.469 0 0 0 2.119-1.9 10.946 10.946 0 0 0 1.733-2.36 4.854 4.854 0 0 0 .618-2.6 4.369 4.369 0 0 0-1.227-2.643 7.056 7.056 0 0 0-1.7-1.313 16.231 16.231 0 0 0-4.826-1.587 36.072 36.072 0 0 0-6.04-.536 54.211 54.211 0 0 0-6.452.326 56.351 56.351 0 0 0-6.049.991 32.659 32.659 0 0 0-4.835 1.441 18.948 18.948 0 0 0-3.321 1.7 11.047 11.047 0 0 0-1.2.858 6.122 6.122 0 0 0-1 1.073.551.551 0 0 1-.45.279H.412a.721.721 0 0 1-.215-.03.291.291 0 0 1-.163-.124.406.406 0 0 1-.034-.159.475.475 0 0 1 .017-.142 2.044 2.044 0 0 1 .39-.6c.163-.172.33-.343.5-.506a13.078 13.078 0 0 1 1.416-1.047c.489-.313 1-.6 1.51-.875a24.562 24.562 0 0 1 5.075-1.9 55.324 55.324 0 0 1 6.787-1.356 59.121 59.121 0 0 1 7.452-.562 39.845 39.845 0 0 1 7.031.5 17.382 17.382 0 0 1 5.586 1.823 7.277 7.277 0 0 1 1.849 1.437 4.831 4.831 0 0 1 1.307 2.563 4.715 4.715 0 0 1-.347 2.45 9.337 9.337 0 0 1-1.394 2.265c-.592.716-1.2 1.39-1.828 2.012a2.007 2.007 0 0 0-.223.236.3.3 0 0 0-.094.236c.013.064.107.082.283.06q3.14-.508 6.268-.772t6.294-.352h.189a4.358 4.358 0 0 1 .528.034zm-32.961 9.082a4.255 4.255 0 0 1 .253-.485c.176-.335.36-.7.553-1.111a7.032 7.032 0 0 0 .42-1.068c.086-.3.043-.472-.133-.5a1.857 1.857 0 0 0-.313.077.314.314 0 0 0-.094.017c-.4.124-.8.245-1.2.356q-1.441.418-2.887.884a1.2 1.2 0 0 0-.146.051q-2.587.792-5.1 1.823a14.2 14.2 0 0 0-2.411 1.27 2.1 2.1 0 0 0-.716.656.359.359 0 0 0-.064.309.366.366 0 0 0 .236.219 2.553 2.553 0 0 0 .8.129c.24 0 .476-.013.716-.034h.017a28.8 28.8 0 0 0 3.651-.6q2.851-.631 5.637-1.471a.15.15 0 0 1 .06-.026 1.6 1.6 0 0 0 .408-.154.763.763 0 0 0 .3-.33zm1.592-.33a37.634 37.634 0 0 0 4.59-1.622q2.9-1.184 5.581-2.51a18.055 18.055 0 0 0 3.647-2.184h-.283q-5.882 1.165-11.643 2.776a1 1 0 0 0-.7.613c-.232.5-.463.991-.691 1.48q-.264.547-.528 1.107a.531.531 0 0 0-.043.172.212.212 0 0 0 .069.172z"/>
        <path data-name="Trazado 13403" d="M37.778 37.517a.867.867 0 0 1-.553.768c-.317.12-.42-.039-.309-.468s-.086-.541-.583-.326a3.9 3.9 0 0 0-1.236.807 10.6 10.6 0 0 0-1.326 1.652c-.039.051-.073.094-.094.129a11.16 11.16 0 0 1-.339.468.46.46 0 0 1-.257.193.728.728 0 0 1-.3.013.33.33 0 0 1-.223-.112.2.2 0 0 1-.017-.223 5.11 5.11 0 0 1 .223-.468c.511-.948 1.03-1.9 1.557-2.853a.044.044 0 0 0 .017-.034 2.147 2.147 0 0 1 .266-.408.424.424 0 0 1 .39-.154.351.351 0 0 1 .3.266c.064.2.116.309.163.335s.146.009.3-.056a5.367 5.367 0 0 1 1-.266 1.578 1.578 0 0 1 .794.039c.206.077.287.309.236.7z"/>
        <path data-name="Trazado 13404" d="M45.415 39.474a5.555 5.555 0 0 1-2.248 1.278 4.6 4.6 0 0 1-.909.124 3.418 3.418 0 0 1-1.377-.206 1.183 1.183 0 0 1-.719-1.591 2.718 2.718 0 0 1 1.21-1.583 3.364 3.364 0 0 1 1.879-.553h.017a1.525 1.525 0 0 1 .468.034.724.724 0 0 1 .476.442.789.789 0 0 1-.137.682 1.937 1.937 0 0 1-1.48.918 3.992 3.992 0 0 1-1.2-.06.229.229 0 0 0-.2.06.318.318 0 0 0-.1.189c-.116.489.039.8.45.935a2.465 2.465 0 0 0 1.592 0 4.645 4.645 0 0 0 1.815-1.124q.862-.824.991-.772c.09.039.116.142.082.317a2.185 2.185 0 0 1-.613.9zm-3.629-1.373a.338.338 0 0 0-.073.133.122.122 0 0 0 .056.133 1.024 1.024 0 0 0 .648.124 1.074 1.074 0 0 0 .592-.266.6.6 0 0 0 .21-.532.179.179 0 0 0-.12-.142.355.355 0 0 0-.189-.013 2.206 2.206 0 0 0-1.124.563z"/>
        <path data-name="Trazado 13405" d="M57.024 38.478c.2-.124.356-.154.468-.094s.073.24-.129.528a4.61 4.61 0 0 1-1.339 1.073 2.887 2.887 0 0 1-1.707.5c-.493-.047-.639-.412-.429-1.094s.317-1.064.335-1.145 0-.129-.047-.142-.159.047-.335.172c-.511.352-1.012.721-1.5 1.107-.21.159-.416.326-.622.5-.124.112-.253.227-.39.339l-.017.017a1.135 1.135 0 0 1-.545.3.794.794 0 0 1-.3.03.44.44 0 0 1-.275-.124.277.277 0 0 1-.094-.266 1.529 1.529 0 0 1 .215-.42c.12-.189.249-.395.395-.618a2.952 2.952 0 0 0 .245-.412.17.17 0 0 0-.026-.154.106.106 0 0 0-.133-.047c-.047.021-.227.142-.541.365s-.738.536-1.278.94q-.373.283-.734.579a1.324 1.324 0 0 1-.206.172.989.989 0 0 1-.579.24.385.385 0 0 1-.339-.1.291.291 0 0 1-.034-.322 1.283 1.283 0 0 1 .129-.279.4.4 0 0 0 .06-.12c.446-.909.892-1.819 1.33-2.733a.567.567 0 0 0 .034-.094c.051-.094.1-.189.154-.279a.46.46 0 0 1 .485-.146c.215.064.3.189.249.373-.1.283-.2.566-.3.841l-.154.373c-.086.223-.112.365-.082.425s.172.021.42-.129c.172-.112.339-.227.5-.339q.3-.206.579-.373a6.352 6.352 0 0 1 .884-.45 2.43 2.43 0 0 1 .455-.142.514.514 0 0 1 .438.107.313.313 0 0 1 .133.287.927.927 0 0 1-.09.3.765.765 0 0 0-.1.356c.013.051.06.06.133.03a3.113 3.113 0 0 0 .39-.219c.189-.112.39-.24.6-.373.27-.176.558-.343.858-.5a1.79 1.79 0 0 1 .8-.3c.39-.03.553.129.48.472a6.955 6.955 0 0 1-.412 1.227c-.206.472-.227.764-.064.871s.519-.039 1.077-.438.871-.626.944-.678z"/>
        <path data-name="Trazado 13406" d="M63.133 39.155a5.981 5.981 0 0 1-1.077.991 3.616 3.616 0 0 1-1.4.609 1.655 1.655 0 0 1-1.218-.116c-.287-.18-.347-.583-.172-1.21a8.144 8.144 0 0 1 .935-1.849.735.735 0 0 1 .39-.266.362.362 0 0 1 .326.064.25.25 0 0 1 .107.266 13.67 13.67 0 0 1-.489 1.013 3.97 3.97 0 0 0-.416 1.141c0 .227.3.24.909.043a4.817 4.817 0 0 0 1.772-1.094c.575-.532.845-.686.819-.468a1.885 1.885 0 0 1-.493.867zm-1.484-2.849a.683.683 0 0 1-.176.082 1.474 1.474 0 0 1-.279.069.3.3 0 0 1-.236-.047c-.056-.047-.06-.137-.009-.27a4.305 4.305 0 0 1 .287-.626 5.254 5.254 0 0 1 .386-.592.554.554 0 0 1 .33-.159.371.371 0 0 1 .3.094.27.27 0 0 1 .069.292 2.594 2.594 0 0 1-.674 1.158z"/>
        <path data-name="Trazado 13407" d="M65.897 41.24c-.541 0-.807-.283-.807-.841a9.983 9.983 0 0 1 1.339-3.634.189.189 0 0 1 .189-.112c.356 0 .536.142.536.425a.95.95 0 0 1-.094.373c-.021.039-.322.789-.892 2.248a1.745 1.745 0 0 0-.137.528c0 .124.056.189.172.189q.618 0 3.26-3.089a.917.917 0 0 1 .674-.416c.322 0 .485.12.485.356a6.6 6.6 0 0 1-.3 1.03 8.984 8.984 0 0 0-.408 1.4c0 .189.064.283.189.283a9.133 9.133 0 0 0 2.733-1.669.374.374 0 0 1 .223-.112c.142 0 .214.12.214.356a.217.217 0 0 1-.06.154 18.812 18.812 0 0 1-2.042 1.566 2.592 2.592 0 0 1-1.364.493h-.12c-.583-.124-.875-.583-.875-1.368-.626.549-1.141 1-1.553 1.334a2.079 2.079 0 0 1-1.351.506z"/>
        <path data-name="Trazado 13408" d="M84.189 38.478c.2-.124.356-.154.468-.094s.073.24-.129.528a4.611 4.611 0 0 1-1.339 1.073 2.887 2.887 0 0 1-1.707.5c-.493-.047-.635-.412-.429-1.094s.317-1.064.335-1.145 0-.129-.047-.142-.159.047-.335.172a29.99 29.99 0 0 0-1.5 1.107c-.21.159-.416.326-.622.5-.124.112-.253.227-.39.339l-.017.017a1.136 1.136 0 0 1-.545.3.8.8 0 0 1-.3.03.419.419 0 0 1-.27-.124.277.277 0 0 1-.094-.266 1.528 1.528 0 0 1 .215-.42c.12-.184.253-.395.395-.618a3.523 3.523 0 0 0 .245-.412.17.17 0 0 0-.026-.154.106.106 0 0 0-.133-.047c-.047.021-.227.142-.541.365s-.738.536-1.278.94q-.373.283-.734.579a1.151 1.151 0 0 1-.206.172.989.989 0 0 1-.579.24.385.385 0 0 1-.339-.1.291.291 0 0 1-.034-.322 1.283 1.283 0 0 1 .129-.279.4.4 0 0 0 .06-.12c.446-.909.892-1.819 1.33-2.733a.567.567 0 0 0 .034-.094c.051-.094.1-.189.154-.279a.457.457 0 0 1 .48-.156c.215.064.3.189.249.373-.1.283-.2.566-.3.841l-.154.373c-.086.223-.112.365-.082.425s.172.021.42-.129c.172-.112.339-.227.5-.339q.3-.206.579-.373a6.6 6.6 0 0 1 .884-.45 2.43 2.43 0 0 1 .455-.142.518.518 0 0 1 .438.107.313.313 0 0 1 .133.287.927.927 0 0 1-.09.3.766.766 0 0 0-.1.356c.013.051.06.06.133.03a3.113 3.113 0 0 0 .39-.219c.184-.116.39-.24.6-.373.27-.176.558-.343.858-.5a1.79 1.79 0 0 1 .8-.3c.39-.03.553.129.48.472a6.956 6.956 0 0 1-.412 1.227c-.2.476-.227.764-.064.871s.519-.039 1.077-.438.871-.626.944-.678z"/>
        <path data-name="Trazado 13409" d="M137.348 32.017a.585.585 0 0 1 .322.172.194.194 0 0 1 .052.249.32.32 0 0 1-.172.137.469.469 0 0 1-.206.009 2.068 2.068 0 0 1-.279-.017 48.049 48.049 0 0 0-5.367.236q-3.34.3-5.384.575c-1.051.137-2.1.283-3.149.442a.261.261 0 0 0-.094.026 2.7 2.7 0 0 0-1.2.485 39.224 39.224 0 0 1-4.136 2.467q-2.136 1.107-4.359 2.059a71.392 71.392 0 0 1-7.362 2.776 1.691 1.691 0 0 0-1.124.935q-1.667 3.327-3.484 6.512-1.609 2.838-3.089 5.736a.044.044 0 0 1-.017.034.683.683 0 0 1-.154.249.427.427 0 0 1-.356.094.4.4 0 0 1-.223 0 .341.341 0 0 1-.232-.339 1.553 1.553 0 0 1 .262-.768.055.055 0 0 0 .017-.043q1.5-2.69 2.952-5.38t2.806-5.457c.073-.154.146-.309.223-.468.03-.082.06-.163.094-.249-.086-.021-.163-.043-.24-.06a2.874 2.874 0 0 0-.416.12.84.84 0 0 0-.146.051q-2.619.747-5.3 1.278a35.257 35.257 0 0 1-3.728.468.859.859 0 0 1-.172.017 3.619 3.619 0 0 1-.373.017 4.424 4.424 0 0 1-1.4-.223.875.875 0 0 1-.622-.592 1.013 1.013 0 0 1 .249-.871 3.915 3.915 0 0 1 1.107-.892 16.293 16.293 0 0 1 3.037-1.48q4.247-1.609 8.615-2.827c.159-.051.326-.1.5-.137a4.97 4.97 0 0 0 1.047-.326 1.467 1.467 0 0 0 .734-.755q.92-2.117 1.772-4.243t1.583-4.32a.1.1 0 0 1 .017-.051 3.7 3.7 0 0 1 .3-.751.4.4 0 0 1 .2-.167.451.451 0 0 1 .249-.021.418.418 0 0 1 .206 0 .4.4 0 0 1 .322.373 3.077 3.077 0 0 1-.215 1.124.1.1 0 0 1-.017.051q-.92 2.812-2.059 5.526c-.2.5-.4 1-.613 1.48-.077.176-.154.356-.232.545a.92.92 0 0 0-.12.455c.017.082.077.12.176.116a1.263 1.263 0 0 0 .36-.086c.047-.013.094-.021.146-.034.549-.142 1.1-.283 1.652-.416l3.012-.751q3.713-.875 7.473-1.5a2.481 2.481 0 0 0 1.175-.519 17.462 17.462 0 0 0 2.119-1.9 10.942 10.942 0 0 0 1.733-2.36 4.884 4.884 0 0 0 .618-2.6 4.369 4.369 0 0 0-1.227-2.643 7.056 7.056 0 0 0-1.7-1.313 16.232 16.232 0 0 0-4.826-1.587 36.073 36.073 0 0 0-6.04-.536 54.214 54.214 0 0 0-6.452.326 56.366 56.366 0 0 0-6.049.991 32.662 32.662 0 0 0-4.835 1.441 18.951 18.951 0 0 0-3.321 1.7 10.646 10.646 0 0 0-1.2.858 6.12 6.12 0 0 0-1 1.073.551.551 0 0 1-.45.279h-.172a.72.72 0 0 1-.215-.03.278.278 0 0 1-.163-.124.406.406 0 0 1-.034-.159.474.474 0 0 1 .017-.142 2.044 2.044 0 0 1 .39-.6c.163-.172.33-.343.5-.506a13.091 13.091 0 0 1 1.416-1.047c.489-.313 1-.6 1.51-.875a24.564 24.564 0 0 1 5.075-1.9 55.316 55.316 0 0 1 6.787-1.356 59.176 59.176 0 0 1 7.452-.562 39.844 39.844 0 0 1 7.031.5 17.38 17.38 0 0 1 5.586 1.823 7.277 7.277 0 0 1 1.849 1.437 4.832 4.832 0 0 1 1.309 2.557 4.671 4.671 0 0 1-.348 2.45 9.336 9.336 0 0 1-1.394 2.265c-.592.716-1.2 1.39-1.828 2.012a2 2 0 0 0-.223.236.318.318 0 0 0-.094.236c.009.064.1.082.279.06q3.14-.508 6.268-.772t6.294-.352h.189a4.358 4.358 0 0 1 .528.034zm-32.957 9.082a3.794 3.794 0 0 1 .257-.485c.176-.335.36-.7.553-1.111a7.04 7.04 0 0 0 .42-1.068c.09-.3.043-.472-.133-.5a1.856 1.856 0 0 0-.313.077.314.314 0 0 0-.094.017c-.4.124-.8.245-1.2.356q-1.441.418-2.887.884a1.192 1.192 0 0 0-.146.051q-2.587.792-5.1 1.823a14.205 14.205 0 0 0-2.411 1.27 2.141 2.141 0 0 0-.716.656.359.359 0 0 0-.064.309.366.366 0 0 0 .236.219 2.546 2.546 0 0 0 .8.129c.24 0 .476-.013.716-.034h.017a28.8 28.8 0 0 0 3.651-.6q2.851-.631 5.637-1.471a.15.15 0 0 1 .06-.026 1.6 1.6 0 0 0 .408-.154.763.763 0 0 0 .3-.33zm1.592-.33a37.356 37.356 0 0 0 4.586-1.622q2.9-1.184 5.581-2.51a18.184 18.184 0 0 0 3.647-2.184h-.28q-5.882 1.165-11.643 2.776a1 1 0 0 0-.7.613c-.232.5-.463.991-.691 1.48q-.264.547-.528 1.107a.529.529 0 0 0-.043.172.212.212 0 0 0 .069.172z"/>
        <path data-name="Trazado 13410" d="M126.524 37.517a.867.867 0 0 1-.553.768c-.317.12-.42-.039-.309-.468s-.086-.541-.583-.326a3.906 3.906 0 0 0-1.236.807 10.629 10.629 0 0 0-1.33 1.652c-.039.051-.073.094-.094.129a11.16 11.16 0 0 1-.339.468.455.455 0 0 1-.262.193.714.714 0 0 1-.3.013.32.32 0 0 1-.223-.112.2.2 0 0 1-.017-.223 5.093 5.093 0 0 1 .223-.468c.51-.948 1.03-1.9 1.557-2.853a.044.044 0 0 0 .017-.034 2.151 2.151 0 0 1 .266-.408.424.424 0 0 1 .39-.154.361.361 0 0 1 .3.266c.06.2.116.309.163.335s.146.009.3-.056a5.366 5.366 0 0 1 1-.266 1.6 1.6 0 0 1 .8.039c.206.077.287.309.236.7z"/>
        <path data-name="Trazado 13411" d="M130.662 40.726h-.026a1.979 1.979 0 0 1-1.626-.549 1.324 1.324 0 0 1 .034-1.416 4.513 4.513 0 0 1 .9-1.176 1.786 1.786 0 0 1 .382-.27.933.933 0 0 1 .442-.1.6.6 0 0 1 .33.051c.039.013.082.026.12.043a.974.974 0 0 0 .279-.094.322.322 0 0 1 .094-.043 1.463 1.463 0 0 1 .6-.094h.266a1.12 1.12 0 0 1 .759.42 1.069 1.069 0 0 1 .18.837 1.644 1.644 0 0 1-.189.562 3.053 3.053 0 0 1-2.493 1.832zm1.343-3.05a1.777 1.777 0 0 0-1.2.386 2.667 2.667 0 0 0-.781.948 1.2 1.2 0 0 0-.142.879c.077.232.313.292.712.193a2.637 2.637 0 0 0 1.188-.768 2.44 2.44 0 0 0 .631-1.068c.077-.339-.06-.528-.412-.575z"/>
        <path data-name="Trazado 13412" d="M143.221 38.272a2.775 2.775 0 0 1-.39.129c-.034.017-.064.03-.094.043-.137.051-.27.1-.408.146q-.579.187-1.184.4a1.173 1.173 0 0 0-.708.562 3.118 3.118 0 0 1-1.043 1.047 4.524 4.524 0 0 1-1.274.532 7.653 7.653 0 0 1-1.145.2 4.15 4.15 0 0 1-.643.021h-.043a1.346 1.346 0 0 0-.408.5 16.57 16.57 0 0 0-.356.674 1.415 1.415 0 0 0-.051.137q-.843 1.686-1.669 3.372l-.935 1.875a5.161 5.161 0 0 1-.356.639.34.34 0 0 1-.468.094.289.289 0 0 1-.094-.373c.064-.163.129-.33.206-.493q1.461-3.462 3.106-6.851.508-1.049.961-2.136l.425-1.03a.408.408 0 0 1 .06-.112 3.765 3.765 0 0 1 .266-.545.354.354 0 0 1 .253-.12.5.5 0 0 1 .322.051.373.373 0 0 1 .172.33.666.666 0 0 1-.043.232.747.747 0 0 0-.043.189.275.275 0 0 0 .06.189.374.374 0 0 0 .24-.039 1.447 1.447 0 0 0 .2-.133.576.576 0 0 1 .223-.112 1.3 1.3 0 0 1 .154-.077 8.3 8.3 0 0 1 .807-.322 1.386 1.386 0 0 1 1.03.077.936.936 0 0 1 .33.33 1.977 1.977 0 0 1 .172.416c.039.116.142.172.309.18a2.285 2.285 0 0 0 .562-.064c.206-.047.395-.1.566-.15.142-.039.245-.064.3-.077a1.624 1.624 0 0 1 .519-.034.377.377 0 0 1 .142.026c.043.017.064.064.064.137a.18.18 0 0 1-.026.09.142.142 0 0 1-.069.064zm-3.574.562a.507.507 0 0 0 .21-.365.92.92 0 0 0-.056-.493.252.252 0 0 0-.116-.107.361.361 0 0 0-.15-.03 1.108 1.108 0 0 0-.3.094 6.535 6.535 0 0 0-2.544 2.248c-.124.227-.107.326.047.3a2.619 2.619 0 0 0 .7-.287c.313-.167.635-.36.97-.579s.622-.4.858-.558a3.759 3.759 0 0 1 .373-.223z"/>
        <path data-name="Trazado 13413" d="M150.184 39.474a5.556 5.556 0 0 1-2.248 1.278 4.6 4.6 0 0 1-.91.124 3.43 3.43 0 0 1-1.377-.206 1.183 1.183 0 0 1-.716-1.592 2.718 2.718 0 0 1 1.21-1.583 3.368 3.368 0 0 1 1.883-.553h.017a1.525 1.525 0 0 1 .468.034.724.724 0 0 1 .476.442.787.787 0 0 1-.137.682 1.937 1.937 0 0 1-1.48.918 3.991 3.991 0 0 1-1.2-.06.229.229 0 0 0-.2.06.318.318 0 0 0-.1.189c-.111.489.039.8.45.935a2.466 2.466 0 0 0 1.592 0 4.645 4.645 0 0 0 1.809-1.123q.862-.824.991-.772c.086.034.116.142.082.317a2.143 2.143 0 0 1-.614.9zm-3.625-1.373a.339.339 0 0 0-.073.133.116.116 0 0 0 .056.133 1.024 1.024 0 0 0 .648.124 1.074 1.074 0 0 0 .592-.266.6.6 0 0 0 .21-.532.179.179 0 0 0-.12-.142.355.355 0 0 0-.189-.013 2.206 2.206 0 0 0-1.124.563z"/>
        <path data-name="Trazado 13414" d="M156.988 37.517a.867.867 0 0 1-.553.768c-.317.12-.42-.039-.309-.468s-.086-.541-.583-.326a3.9 3.9 0 0 0-1.236.807 10.622 10.622 0 0 0-1.33 1.652c-.039.051-.073.094-.094.129a11.16 11.16 0 0 1-.339.468.455.455 0 0 1-.262.193.714.714 0 0 1-.3.013.32.32 0 0 1-.223-.112.2.2 0 0 1-.017-.223 5.116 5.116 0 0 1 .223-.468c.511-.948 1.03-1.9 1.557-2.853a.044.044 0 0 0 .017-.034 2.152 2.152 0 0 1 .266-.408.424.424 0 0 1 .39-.154.361.361 0 0 1 .3.266c.06.2.116.309.163.335s.146.009.3-.056a5.365 5.365 0 0 1 1-.266 1.6 1.6 0 0 1 .8.039c.206.077.287.309.236.7z"/>
        <path data-name="Trazado 13415" d="M165.095 38.628a8.929 8.929 0 0 1-2.235 1.982 3.364 3.364 0 0 1-2.342.42q-1.248-.219-1.025-1.673a9.57 9.57 0 0 1 .416-1.429q.656-1.628 1.33-3.235a28.397 28.397 0 0 1 .58-1.42c.064-.142.124-.287.189-.433.09-.249-.009-.382-.3-.39h-.734c-.086.013-.172.021-.266.034a4.933 4.933 0 0 1-.438.017.782.782 0 0 1-.4-.112.171.171 0 0 1-.082-.064.185.185 0 0 1-.03-.107.557.557 0 0 1 .056-.082.22.22 0 0 1 .1-.064 1.767 1.767 0 0 1 .39-.112c.352-.017.7-.03 1.047-.043h.356a3.619 3.619 0 0 0 .506-.026.371.371 0 0 0 .266-.18 3.452 3.452 0 0 0 .24-.468c.051-.112.112-.24.189-.373.189-.4.373-.8.562-1.218.086-.189.172-.369.266-.545a.831.831 0 0 1 .347-.408.36.36 0 0 1 .4.017.23.23 0 0 1 .082.112.362.362 0 0 1 .03.137 1.376 1.376 0 0 1-.172.656c-.021.047-.047.1-.077.163-.073.206-.154.412-.24.622-.163.386-.322.781-.468 1.184a.183.183 0 0 0 0 .2.188.188 0 0 0 .167.086c.4.013.8.017 1.184.017h.6c.626.013.875.1.751.266a.464.464 0 0 1-.275.167 1.175 1.175 0 0 1-.3 0h-.189q-.952.058-1.892.077a.565.565 0 0 0-.579.39l-.3.751c-.142.33-.275.652-.4.961s-.249.592-.373.892q-.483 1.139-.935 2.291a9.934 9.934 0 0 0-.442 1.532q-.354 1.422 1.1 1.09a6.283 6.283 0 0 0 2.995-2.059c.455-.287.575-.159.356.39z"/>
        <path data-name="Trazado 13416" d="M170.604 39.155a5.981 5.981 0 0 1-1.077.991 3.615 3.615 0 0 1-1.4.609 1.655 1.655 0 0 1-1.218-.116c-.287-.18-.348-.583-.172-1.21a8.145 8.145 0 0 1 .935-1.849.736.736 0 0 1 .39-.266.364.364 0 0 1 .326.064.25.25 0 0 1 .107.266 13.67 13.67 0 0 1-.489 1.013 3.97 3.97 0 0 0-.416 1.141c0 .227.3.24.909.043a4.817 4.817 0 0 0 1.772-1.094c.575-.532.845-.686.824-.468a1.886 1.886 0 0 1-.493.867zm-1.484-2.849a.683.683 0 0 1-.176.082 1.472 1.472 0 0 1-.279.069.3.3 0 0 1-.236-.047c-.056-.047-.06-.137-.009-.27a4.305 4.305 0 0 1 .287-.626 5.267 5.267 0 0 1 .386-.592.554.554 0 0 1 .33-.159.386.386 0 0 1 .3.094.271.271 0 0 1 .069.292 2.594 2.594 0 0 1-.674 1.158z"/>
        <path data-name="Trazado 13417" d="M178.005 39.474a5.555 5.555 0 0 1-2.248 1.278 4.6 4.6 0 0 1-.909.124 3.43 3.43 0 0 1-1.377-.206 1.183 1.183 0 0 1-.716-1.592 2.718 2.718 0 0 1 1.21-1.583 3.368 3.368 0 0 1 1.883-.553h.017a1.525 1.525 0 0 1 .468.034.724.724 0 0 1 .476.442.787.787 0 0 1-.137.682 1.937 1.937 0 0 1-1.48.918 3.992 3.992 0 0 1-1.2-.06.229.229 0 0 0-.2.06.318.318 0 0 0-.1.189c-.112.489.039.8.45.935a2.466 2.466 0 0 0 1.592 0 4.645 4.645 0 0 0 1.815-1.124q.862-.824.991-.772c.086.034.116.142.082.317a2.144 2.144 0 0 1-.613.9zm-3.625-1.373a.339.339 0 0 0-.073.133.116.116 0 0 0 .056.133 1.024 1.024 0 0 0 .648.124 1.074 1.074 0 0 0 .592-.266.6.6 0 0 0 .21-.532.179.179 0 0 0-.12-.142.355.355 0 0 0-.189-.013 2.206 2.206 0 0 0-1.124.563z"/>
        <path data-name="Trazado 13418" d="M184.844 38.427a18.805 18.805 0 0 0-1.939.815 1.171 1.171 0 0 0-.5.352c-.043.094-.009.266.1.515a.1.1 0 0 0 .026.051 3.072 3.072 0 0 1 .223.935c.039.652-.515 1.111-1.665 1.369a3.481 3.481 0 0 1-2.308.026.7.7 0 0 1-.356-.927 2.726 2.726 0 0 1 1.171-1.141c.631-.386 1.051-.665 1.266-.832a.466.466 0 0 0 .193-.571c-.03-.073-.06-.146-.094-.223-.073-.176-.15-.356-.232-.545a2.226 2.226 0 0 1-.193-1 1.24 1.24 0 0 1 .365-.828 1.5 1.5 0 0 1 1.042-.36 1.738 1.738 0 0 1 .716.107.989.989 0 0 1 .5.455.275.275 0 0 1-.094.416.3.3 0 0 1-.348.034.906.906 0 0 1-.232-.146v-.026c-.034-.021-.064-.047-.094-.069a.5.5 0 0 0-.112-.12.5.5 0 0 0-.446-.1.523.523 0 0 0-.335.343 1.344 1.344 0 0 0-.077.45 1.711 1.711 0 0 0 .129.545c.051.107.094.206.137.3a2.719 2.719 0 0 0 .24.515.225.225 0 0 0 .227.12c.09-.013.892-.3 2.415-.862.33-.107.425.026.279.4zm-3.685 3.252a.661.661 0 0 0 .5-.8.26.26 0 0 0-.017-.094 1.234 1.234 0 0 0-.137-.5c-.069-.116-.223-.112-.459.013a9.086 9.086 0 0 0-1.635 1.175l-.094.112-.017.026a.152.152 0 0 0-.017.154.147.147 0 0 0 .154.086 3.414 3.414 0 0 0 1.72-.172z"/>
        <g data-name="Grupo 9449">
            <path data-name="Trazado 13419" d="m30.644 90.238-.382-1.154a1.084 1.084 0 0 0-1.034-.888h-2.492v2.643h-.511v-6.1h3.535c1.261 0 2.111.7 2.111 1.72a1.728 1.728 0 0 1-1.763 1.652v.009a1.516 1.516 0 0 1 .686.94l.339 1.051c.077.27.2.459.459.459a.632.632 0 0 0 .523-.356l.287.3a1.061 1.061 0 0 1-.875.5c-.476 0-.729-.33-.879-.772zm-.905-2.51c.965 0 1.617-.51 1.617-1.261s-.652-1.27-1.617-1.27h-3.008v2.527h3.007z"/>
            <path data-name="Trazado 13420" d="M40.88 84.729h5v.468h-4.5v2.239h4.153v.459H41.38v2.467h4.586v.468h-5.09v-6.1z"/>
            <path data-name="Trazado 13421" d="M56.878 84.73h.618l2.831 6.1h-.549l-.712-1.536h-3.762l-.712 1.541h-.549l2.831-6.1zm1.986 4.11-1.669-3.629h-.017l-1.677 3.629z"/>
            <path data-name="Trazado 13422" d="M68.843 84.73h.515v5.637h3.728v.468h-4.239v-6.1z"/>
            <path data-name="Trazado 13423" d="M90.671 84.729h5v.468h-4.5v2.239h4.153v.459h-4.153v2.467h4.586v.468h-5.09v-6.1z"/>
            <path data-name="Trazado 13424" d="m103.94 88.96.468-.172a2.486 2.486 0 0 0 2.677 1.8c1.261 0 2.068-.549 2.068-1.339 0-.618-.493-.982-1.626-1.2l-1.4-.27c-1.206-.227-1.763-.686-1.763-1.476 0-1.085.922-1.789 2.3-1.789a2.506 2.506 0 0 1 2.51 1.583l-.442.21a2.064 2.064 0 0 0-2.059-1.321c-1.077 0-1.789.511-1.789 1.27 0 .558.416.871 1.373 1.051l1.39.262c1.381.253 2.016.772 2.025 1.635 0 1.111-1.025 1.858-2.587 1.858a3.019 3.019 0 0 1-3.136-2.094z"/>
            <path data-name="Trazado 13425" d="M120.354 85.202h-2.535v-.468h5.59v.468h-2.54v5.637h-.515z"/>
            <path data-name="Trazado 13426" d="M134.25 84.73h.618l2.831 6.1h-.549l-.712-1.536h-3.762l-.712 1.536h-.55l2.831-6.1zm1.986 4.11-1.669-3.629h-.017l-1.677 3.629h3.363z"/>
            <path data-name="Trazado 13427" d="M148.342 85.202h-2.535v-.468h5.586v.468h-2.536v5.637h-.515z"/>
            <path data-name="Trazado 13428" d="M159.814 84.729h5v.468h-4.5v2.239h4.153v.459h-4.147v2.467h4.586v.468h-5.096v-6.1z"/>
        </g>
    </g>
</svg>
