<svg xmlns="http://www.w3.org/2000/svg" width="40" height="40" viewBox="0 0 40 40"><g transform="translate(0.658 0.801)"><path d="M10.658,102.641a19.914,19.914,0,0,0-2.864,6.233h9.1Z" transform="translate(-7.794 -94.774)" fill="#29337a"/><path d="M102.015,9.48A19.928,19.928,0,0,0,95.7,12.619l6.318,6.318Z" transform="translate(-88.274 -9.48)" fill="#29337a"/><path d="M101.261,367.59a19.9,19.9,0,0,0,5.848,2.8v-8.651Z" transform="translate(-93.368 -331.996)" fill="#29337a"/><path d="M10.512,306.771a19.926,19.926,0,0,0,2.97,5.9l5.9-5.9Z" transform="translate(-10.282 -281.666)" fill="#29337a"/></g><g transform="translate(0.291 0.381)"><path d="M7.009,97.144q-.168.229-.33.465l6.233,6.233h-9.1c-.147.561-.268,1.133-.367,1.713H15.42Z" transform="translate(-3.448 -89.321)" fill="#fff"/><path d="M95.767,340.074c.152.113.309.221.464.33l5.848-5.847v8.651c.562.164,1.132.306,1.713.42V332.05Z" transform="translate(-87.971 -304.39)" fill="#fff"/><path d="M5.25,286.487c.124.58.271,1.152.444,1.713h8.867l-5.9,5.9a20.14,20.14,0,0,0,2.125,2.459l10.069-10.069Z" transform="translate(-5.098 -262.675)" fill="#fff"/><path d="M75.565,4.926v9.456L69.247,8.065a20.113,20.113,0,0,0-2.439,2.145l10.47,10.47V4.506C76.7,4.621,76.127,4.763,75.565,4.926Z" transform="translate(-61.458 -4.506)" fill="#fff"/></g><g transform="translate(14.339 14.842)"><path d="M169.86,306.056l-.06.06h.06Z" transform="translate(-169.8 -295.053)" fill="#d32030"/><path d="M190.084,285.833h.06v-.06Z" transform="translate(-188.371 -276.482)" fill="#d32030"/><path d="M280.6,196.737h-.058v.058Z" transform="translate(-271.193 -194.965)" fill="#d32030"/><path d="M170.57,175.813l-.059-.059v.059Z" transform="translate(-170.451 -175.754)" fill="#d32030"/><path d="M190.794,196.037v.059h.059Z" transform="translate(-189.021 -194.324)" fill="#d32030"/></g><g transform="translate(25.403 0.745)"><path d="M300.825,377.585v4.483a19.886,19.886,0,0,0,5.929-2.778l-4.858-4.858A15.747,15.747,0,0,1,300.825,377.585Z" transform="translate(-300.825 -343.558)" fill="#252f6c"/><path d="M301.921,17.233l5.3-5.3a19.923,19.923,0,0,0-6.4-3.112v4.605A17.728,17.728,0,0,1,301.921,17.233Z" transform="translate(-300.824 -8.818)" fill="#252f6c"/><path d="M361.83,312.785a19.945,19.945,0,0,0,3.052-6.014h-9.066Z" transform="translate(-351.172 -281.61)" fill="#252f6c"/><path d="M365.086,107.615a19.906,19.906,0,0,0-2.947-6.35l-6.35,6.35Z" transform="translate(-351.147 -93.458)" fill="#252f6c"/></g><g transform="translate(23.69 0.345)"><path d="M327.638,286.83l1.374,1.374,6.579,6.579c.149-.187.3-.373.441-.565l-6.014-6.014h9.066q.259-.841.443-1.713H327.767C327.747,286.734,327.661,286.588,327.638,286.83Z" transform="translate(-323.661 -262.643)" fill="#e7e7e7"/><path d="M311.291,51.978l5.962-5.963c-.149-.116-.3-.231-.452-.343l-5.3,5.3C311.553,51.185,311.239,51.763,311.291,51.978Z" transform="translate(-308.689 -42.16)" fill="#e7e7e7"/><path d="M282.254,8.723V4.486q-.842-.236-1.713-.4V6.154A11.065,11.065,0,0,1,282.254,8.723Z" transform="translate(-280.541 -4.087)" fill="#e7e7e7"/><path d="M322.073,82.135H334.25c-.1-.58-.219-1.151-.367-1.713h-9.3l6.35-6.35a20.111,20.111,0,0,0-2.076-2.508l-7.153,7.152C321.9,80.014,321.986,80.768,322.073,82.135Z" transform="translate(-318.231 -65.867)" fill="#e7e7e7"/><path d="M310.088,332.176l5.147,5.148a20.055,20.055,0,0,0,2.415-1.958l-6.77-6.771A34.735,34.735,0,0,1,310.088,332.176Z" transform="translate(-307.593 -301.192)" fill="#e7e7e7"/><path d="M280.545,414.342v2.3q.871-.162,1.713-.4v-4.483A11.127,11.127,0,0,1,280.545,414.342Z" transform="translate(-280.545 -377.337)" fill="#e7e7e7"/></g><path d="M315.937,58.729l7.152-7.152a20,20,0,0,0-2.064-1.844l-5.62,5.621C315.655,56.4,315.768,57.593,315.937,58.729Z" transform="translate(-288.771 -45.533)" fill="#d71f28"/><g transform="translate(19.002)"><path d="M225.019.025q.5-.024,1-.025Q225.515,0,225.019.025Z" transform="translate(-225.019)" fill="#d32030"/><path d="M226.023,473.406c-.333,0-.665-.009-1-.025Q225.522,473.406,226.023,473.406Z" transform="translate(-225.025 -433.406)" fill="#d32030"/><path d="M236.836,444.951a20.043,20.043,0,0,0,3.691-.346v-2.3C239.476,443.44,238.247,444.951,236.836,444.951Z" transform="translate(-235.838 -404.951)" fill="#d32030"/></g><g transform="translate(26.977 16.613)"><path d="M339.306,196.737H327.288a53.745,53.745,0,0,1-.057,7.579h11.924a19.951,19.951,0,0,0,.152-7.579Z" transform="translate(-326.574 -196.737)" fill="#d71f28"/><path d="M320.147,290.5c-.111,1.182-.5,2.1-.691,3.217l6.77,6.77a20.181,20.181,0,0,0,1.873-2.035l-6.578-6.579Z" transform="translate(-319.456 -282.582)" fill="#d71f28"/></g><path d="M240.527,2.561V.345A20.1,20.1,0,0,0,236.836,0C238.247,0,239.476,1.422,240.527,2.561Z" transform="translate(-216.836)" fill="#d32030"/><g transform="translate(25.403 4.364)"><path d="M300.825,366.839a21.546,21.546,0,0,0,1.393-3.7l-1.393-1.393Z" transform="translate(-300.825 -335.567)" fill="#29337a"/><path d="M302.392,56a22.5,22.5,0,0,0-1.567-4.326v5.892Z" transform="translate(-300.825 -51.677)" fill="#29337a"/></g><g transform="translate(23.69 1.794)"><path d="M324.356,287.214q.034-.362.063-.727h-.789Z" transform="translate(-319.99 -264.089)" fill="#fff"/><path d="M282.254,29.707V23.815a11.063,11.063,0,0,0-1.713-2.57v10.97l3.44-3.44c-.052-.215-.106-.425-.16-.635Z" transform="translate(-280.541 -21.245)" fill="#fff"/><path d="M281.229,153.265h4.427c-.087-1.367-.225-2.713-.418-4.01Z" transform="translate(-281.171 -138.445)" fill="#fff"/><path d="M280.545,303.425a11.078,11.078,0,0,0,1.713-2.57v-5.088l1.393,1.393a34.5,34.5,0,0,0,.8-3.569l-3.91-3.91v13.744Z" transform="translate(-280.545 -267.013)" fill="#fff"/></g><path d="M23.691,38.206V24.462l3.91,3.91c.192-1.115.344-2.271.454-3.453l-.727-.727h.789a53.768,53.768,0,0,0,.058-7.579H23.748l4.01-4.01c-.169-1.136-.378-2.235-.628-3.28l-3.439,3.44V1.794A4.968,4.968,0,0,0,20,0q-.5,0-1,.025a20.133,20.133,0,0,0-2.89.356V16.554L5.642,6.085A20.194,20.194,0,0,0,3.852,8.2l6.7,6.7,1.713,1.713H.291a19.951,19.951,0,0,0,.152,7.579H16.052L5.983,34.261a20.143,20.143,0,0,0,2.1,1.8l8.024-8.024V39.619A20.152,20.152,0,0,0,19,39.975c.333.016.665.025,1,.025A4.968,4.968,0,0,0,23.691,38.206Z" fill="#e51d35"/></svg>