<svg xmlns="http://www.w3.org/2000/svg" width="323.139" height="62.363" viewBox="0 0 323.139 62.363">
    <path data-name="Trazado 13402" d="M92.411 215.719a1.023 1.023 0 0 1 .562.3.349.349 0 0 1 .09.435.558.558 0 0 1-.3.24.818.818 0 0 1-.36.015 3.8 3.8 0 0 1-.495-.03 83.964 83.964 0 0 0-9.379.412q-5.836.517-9.408 1c-1.837.24-3.666.495-5.5.772a.455.455 0 0 0-.165.045 4.716 4.716 0 0 0-2.1.847 68.557 68.557 0 0 1-7.227 4.311q-3.733 1.934-7.617 3.6a124.775 124.775 0 0 1-12.865 4.85 2.954 2.954 0 0 0-1.964 1.634q-2.913 5.814-6.087 11.38-2.811 4.959-5.4 10.023a.077.077 0 0 1-.03.06 1.193 1.193 0 0 1-.27.435.746.746 0 0 1-.622.165.69.69 0 0 1-.39 0 .6.6 0 0 1-.4-.592 2.725 2.725 0 0 1 .465-1.342.1.1 0 0 0 .03-.075q2.62-4.7 5.158-9.4t4.9-9.536c.127-.27.255-.54.39-.817.052-.142.1-.285.165-.435-.15-.037-.285-.075-.412-.1a4.755 4.755 0 0 0-.727.21 1.472 1.472 0 0 0-.255.09q-4.577 1.3-9.266 2.234a61.607 61.607 0 0 1-6.515.817 1.5 1.5 0 0 1-.3.03 6.324 6.324 0 0 1-.652.03 7.765 7.765 0 0 1-2.451-.39 1.53 1.53 0 0 1-1.087-1.035 1.77 1.77 0 0 1 .435-1.522 6.841 6.841 0 0 1 1.934-1.559 28.479 28.479 0 0 1 5.308-2.586q7.422-2.811 15.054-4.94c.277-.09.57-.172.877-.24a8.686 8.686 0 0 0 1.829-.57 2.563 2.563 0 0 0 1.282-1.319q1.608-3.7 3.1-7.414t2.766-7.549a.179.179 0 0 1 .03-.09 6.073 6.073 0 0 1 .525-1.312.705.705 0 0 1 .352-.292.788.788 0 0 1 .435-.037.729.729 0 0 1 .36 0 .7.7 0 0 1 .562.652 5.378 5.378 0 0 1-.375 1.964.179.179 0 0 1-.03.09q-1.608 4.914-3.6 9.656c-.345.87-.7 1.739-1.072 2.586-.142.307-.27.622-.4.952a1.608 1.608 0 0 0-.21.795c.03.142.127.21.307.2a2.208 2.208 0 0 0 .63-.15c.082-.022.165-.037.255-.06.96-.247 1.927-.495 2.886-.727q2.62-.652 5.263-1.312 6.488-1.529 13.059-2.616a4.337 4.337 0 0 0 2.054-.907 30.526 30.526 0 0 0 3.7-3.329 19.127 19.127 0 0 0 3.029-4.123 8.482 8.482 0 0 0 1.08-4.536 7.635 7.635 0 0 0-2.144-4.618 12.331 12.331 0 0 0-2.976-2.294 28.365 28.365 0 0 0-8.434-2.774 63.037 63.037 0 0 0-10.556-.937 94.734 94.734 0 0 0-11.275.57 98.47 98.47 0 0 0-10.571 1.732 57.071 57.071 0 0 0-8.449 2.519 33.109 33.109 0 0 0-5.8 2.976 19.3 19.3 0 0 0-2.1 1.5 10.7 10.7 0 0 0-1.754 1.874.963.963 0 0 1-.787.487H8.2a1.259 1.259 0 0 1-.375-.052.509.509 0 0 1-.285-.217.71.71 0 0 1-.06-.277.829.829 0 0 1 .03-.247 3.572 3.572 0 0 1 .682-1.05c.285-.3.577-.6.877-.885a22.851 22.851 0 0 1 2.474-1.829 35.472 35.472 0 0 1 2.639-1.529 42.919 42.919 0 0 1 8.869-3.314 96.673 96.673 0 0 1 11.86-2.369 103.312 103.312 0 0 1 13.022-.982 69.629 69.629 0 0 1 12.287.87 30.375 30.375 0 0 1 9.761 3.186 12.717 12.717 0 0 1 3.231 2.511 8.443 8.443 0 0 1 2.287 4.468 8.239 8.239 0 0 1-.607 4.281 16.317 16.317 0 0 1-2.436 3.958 48.665 48.665 0 0 1-3.194 3.516 3.5 3.5 0 0 0-.39.412.527.527 0 0 0-.165.412c.023.112.187.142.495.1q5.488-.888 10.953-1.349t11-.615h.33a7.612 7.612 0 0 1 .922.06zm-57.6 15.871a7.435 7.435 0 0 1 .442-.847c.307-.585.63-1.229.967-1.942a12.287 12.287 0 0 0 .735-1.867c.15-.532.075-.825-.232-.877a3.247 3.247 0 0 0-.547.135.549.549 0 0 0-.165.03c-.7.217-1.394.427-2.1.622q-2.519.731-5.045 1.544a2.1 2.1 0 0 0-.255.09q-4.521 1.383-8.906 3.186a24.82 24.82 0 0 0-4.213 2.219 3.673 3.673 0 0 0-1.252 1.147.628.628 0 0 0-.112.54.639.639 0 0 0 .412.382 4.462 4.462 0 0 0 1.4.225c.42 0 .832-.023 1.252-.06h.03a50.316 50.316 0 0 0 6.38-1.057q4.982-1.1 9.851-2.571a.262.262 0 0 1 .1-.045 2.8 2.8 0 0 0 .712-.27 1.334 1.334 0 0 0 .532-.577zm2.781-.577a65.758 65.758 0 0 0 8.022-2.834q5.072-2.069 9.753-4.386a31.55 31.55 0 0 0 6.372-3.816h-.495q-10.278 2.035-20.346 4.85a1.747 1.747 0 0 0-1.222 1.072c-.4.87-.81 1.732-1.207 2.586q-.461.956-.922 1.934a.928.928 0 0 0-.075.3.37.37 0 0 0 .12.3z" transform="translate(-7.48 -193.882)" style="fill:#fff"/>
    <path data-name="Trazado 13403" d="M92.466 235.234a1.516 1.516 0 0 1-.967 1.342c-.555.21-.735-.067-.54-.817s-.15-.945-1.02-.57a6.823 6.823 0 0 0-2.159 1.409 18.524 18.524 0 0 0-2.316 2.886c-.068.09-.127.165-.165.225-.195.285-.4.562-.592.817a.8.8 0 0 1-.45.337 1.272 1.272 0 0 1-.532.023.576.576 0 0 1-.39-.195.348.348 0 0 1-.03-.39 8.93 8.93 0 0 1 .39-.817c.892-1.657 1.8-3.314 2.721-4.985a.078.078 0 0 0 .03-.06 3.751 3.751 0 0 1 .465-.712.74.74 0 0 1 .682-.27.613.613 0 0 1 .517.465c.112.345.2.54.285.585s.255.015.532-.1a9.381 9.381 0 0 1 1.739-.465 2.757 2.757 0 0 1 1.387.067c.36.135.5.54.412 1.229z" transform="translate(-26.449 -203.786)" style="fill:#fff"/>
    <path data-name="Trazado 13404" d="M110.233 238.91a9.708 9.708 0 0 1-3.928 2.234 8.034 8.034 0 0 1-1.589.217 5.974 5.974 0 0 1-2.406-.36 2.067 2.067 0 0 1-1.252-2.781 4.749 4.749 0 0 1 2.114-2.766 5.878 5.878 0 0 1 3.284-.967h.03a2.666 2.666 0 0 1 .817.06 1.266 1.266 0 0 1 .832.772 1.379 1.379 0 0 1-.24 1.192 3.385 3.385 0 0 1-2.586 1.6 6.975 6.975 0 0 1-2.1-.1.4.4 0 0 0-.345.1.555.555 0 0 0-.18.33c-.2.855.067 1.4.787 1.634a4.308 4.308 0 0 0 2.781 0 8.117 8.117 0 0 0 3.171-1.964q1.507-1.439 1.732-1.349c.157.067.2.247.142.555a3.818 3.818 0 0 1-1.072 1.574zm-6.342-2.4a.591.591 0 0 0-.127.232.213.213 0 0 0 .1.232 1.79 1.79 0 0 0 1.132.217 1.877 1.877 0 0 0 1.035-.465 1.04 1.04 0 0 0 .367-.93.312.312 0 0 0-.21-.247.62.62 0 0 0-.33-.022 3.855 3.855 0 0 0-1.967.984z" transform="translate(-30.872 -204.044)" style="fill:#fff"/>
    <path data-name="Trazado 13405" d="M134.579 237.047c.345-.217.622-.27.817-.165s.127.42-.225.922a8.055 8.055 0 0 1-2.339 1.874 5.044 5.044 0 0 1-2.984.87c-.862-.082-1.117-.72-.75-1.912s.555-1.859.585-2 0-.225-.082-.247-.277.082-.585.3a47.054 47.054 0 0 0-2.616 1.934c-.367.277-.727.57-1.087.877-.217.195-.442.4-.682.592l-.03.03a1.984 1.984 0 0 1-.952.525 1.388 1.388 0 0 1-.532.052.769.769 0 0 1-.48-.217.483.483 0 0 1-.165-.465 2.671 2.671 0 0 1 .375-.735c.21-.33.435-.69.69-1.08a5.158 5.158 0 0 0 .427-.72.3.3 0 0 0-.045-.27.185.185 0 0 0-.232-.082c-.082.037-.4.247-.945.637s-1.289.937-2.234 1.642q-.652.495-1.282 1.012a2.314 2.314 0 0 1-.36.3 1.728 1.728 0 0 1-1.012.42.672.672 0 0 1-.592-.18.509.509 0 0 1-.06-.562 2.242 2.242 0 0 1 .225-.487.689.689 0 0 0 .1-.21c.78-1.589 1.559-3.179 2.324-4.775a.992.992 0 0 0 .06-.165c.09-.165.18-.33.27-.487a.8.8 0 0 1 .847-.255c.375.112.525.33.435.652-.18.495-.352.99-.517 1.469l-.27.652c-.15.39-.195.637-.142.742s.3.038.735-.225c.3-.195.592-.4.877-.592q.517-.36 1.012-.652a11.1 11.1 0 0 1 1.544-.787 4.247 4.247 0 0 1 .795-.247.9.9 0 0 1 .765.187.547.547 0 0 1 .232.5 1.619 1.619 0 0 1-.157.532 1.337 1.337 0 0 0-.172.622c.022.09.1.1.232.052a5.438 5.438 0 0 0 .682-.382c.33-.195.682-.42 1.057-.652.472-.307.975-.6 1.5-.877a3.128 3.128 0 0 1 1.4-.517c.682-.052.967.225.84.825a12.155 12.155 0 0 1-.72 2.144c-.36.825-.4 1.334-.112 1.522s.907-.067 1.882-.765 1.522-1.095 1.649-1.185z" transform="translate(-34.932 -203.921)" style="fill:#fff"/>
    <path data-name="Trazado 13406" d="M152.325 237.086a10.452 10.452 0 0 1-1.882 1.732 6.318 6.318 0 0 1-2.452 1.065 2.892 2.892 0 0 1-2.129-.2c-.5-.315-.607-1.02-.3-2.114a14.23 14.23 0 0 1 1.634-3.231 1.285 1.285 0 0 1 .682-.465.632.632 0 0 1 .57.112.438.438 0 0 1 .187.465c-.15.36-.315.712-.495 1.072s-.3.592-.36.7a6.938 6.938 0 0 0-.727 1.994c0 .4.532.42 1.589.075a8.418 8.418 0 0 0 3.1-1.912c1-.93 1.477-1.2 1.432-.817a3.294 3.294 0 0 1-.862 1.514zm-2.594-4.978a1.192 1.192 0 0 1-.307.142 2.575 2.575 0 0 1-.487.12.526.526 0 0 1-.412-.083c-.1-.082-.1-.24-.015-.472a7.522 7.522 0 0 1 .5-1.095 9.186 9.186 0 0 1 .675-1.035.968.968 0 0 1 .577-.277.648.648 0 0 1 .517.165.473.473 0 0 1 .12.51 4.533 4.533 0 0 1-1.177 2.024z" transform="translate(-42.001 -202.775)" style="fill:#fff"/>
    <path data-name="Trazado 13407" d="M160.609 241.824c-.945 0-1.409-.495-1.409-1.469q0-1.8 2.339-6.35a.33.33 0 0 1 .33-.195c.622 0 .937.247.937.742a1.661 1.661 0 0 1-.165.652c-.038.067-.562 1.379-1.559 3.928a3.05 3.05 0 0 0-.24.922c0 .217.1.33.3.33q1.08 0 5.7-5.4a1.6 1.6 0 0 1 1.177-.727c.562 0 .847.21.847.622a11.526 11.526 0 0 1-.517 1.8 15.7 15.7 0 0 0-.712 2.451c0 .33.112.495.33.495q.821 0 4.775-2.916a.654.654 0 0 1 .39-.195c.247 0 .375.21.375.622a.38.38 0 0 1-.1.27 32.878 32.878 0 0 1-3.568 2.736 4.53 4.53 0 0 1-2.384.862h-.21c-1.02-.217-1.529-1.02-1.529-2.391-1.095.96-1.994 1.739-2.714 2.331a3.633 3.633 0 0 1-2.361.885z" transform="translate(-45.458 -203.877)" style="fill:#fff"/>
    <path data-name="Trazado 13408" d="M197.9 237.047c.345-.217.622-.27.817-.165s.127.42-.225.922a8.057 8.057 0 0 1-2.339 1.874 5.044 5.044 0 0 1-2.984.87c-.862-.082-1.11-.72-.75-1.912s.555-1.859.585-2 0-.225-.083-.247-.277.082-.585.3a49.817 49.817 0 0 0-2.616 1.934c-.367.277-.727.57-1.087.877-.217.195-.442.4-.682.592l-.03.03a1.985 1.985 0 0 1-.952.525 1.4 1.4 0 0 1-.532.052.732.732 0 0 1-.472-.217.483.483 0 0 1-.165-.465 2.67 2.67 0 0 1 .375-.735c.21-.322.442-.69.69-1.08a6.15 6.15 0 0 0 .427-.72.3.3 0 0 0-.045-.27.185.185 0 0 0-.232-.082c-.082.037-.4.247-.945.637s-1.289.937-2.234 1.642q-.652.495-1.282 1.012a2.011 2.011 0 0 1-.36.3 1.728 1.728 0 0 1-1.012.42.672.672 0 0 1-.592-.18.509.509 0 0 1-.06-.562 2.242 2.242 0 0 1 .225-.487.69.69 0 0 0 .1-.21c.78-1.589 1.559-3.179 2.324-4.775a.992.992 0 0 0 .06-.165c.09-.165.18-.33.27-.487a.8.8 0 0 1 .847-.255c.375.112.517.33.435.652-.18.495-.352.99-.517 1.469l-.27.652c-.15.39-.195.637-.142.742s.3.038.735-.225c.3-.195.592-.4.877-.592q.517-.36 1.012-.652a11.529 11.529 0 0 1 1.544-.787 4.247 4.247 0 0 1 .795-.247.9.9 0 0 1 .765.187.547.547 0 0 1 .232.5 1.62 1.62 0 0 1-.157.532 1.339 1.339 0 0 0-.173.622c.023.09.105.1.232.052a5.439 5.439 0 0 0 .682-.382c.322-.2.682-.42 1.057-.652.472-.307.975-.6 1.5-.877a3.128 3.128 0 0 1 1.4-.517c.682-.052.967.225.84.825a12.156 12.156 0 0 1-.72 2.144c-.352.832-.4 1.334-.112 1.522s.907-.067 1.882-.765 1.522-1.095 1.649-1.185z" transform="translate(-50.785 -203.921)" style="fill:#fff"/>
    <path data-name="Trazado 13409" d="M299.266 215.719a1.022 1.022 0 0 1 .562.3.34.34 0 0 1 .09.435.559.559 0 0 1-.3.24.819.819 0 0 1-.36.015 3.614 3.614 0 0 1-.487-.03 83.966 83.966 0 0 0-9.378.412q-5.836.517-9.409 1c-1.837.24-3.666.495-5.5.772a.456.456 0 0 0-.165.045 4.717 4.717 0 0 0-2.1.847 68.543 68.543 0 0 1-7.227 4.311q-3.733 1.934-7.617 3.6a124.755 124.755 0 0 1-12.864 4.85 2.955 2.955 0 0 0-1.964 1.634q-2.913 5.814-6.087 11.38-2.811 4.959-5.4 10.023a.077.077 0 0 1-.03.06 1.194 1.194 0 0 1-.27.435.746.746 0 0 1-.622.165.689.689 0 0 1-.39 0 .6.6 0 0 1-.4-.592 2.714 2.714 0 0 1 .457-1.342.1.1 0 0 0 .03-.075q2.62-4.7 5.158-9.4t4.9-9.536c.127-.27.255-.54.39-.817.052-.142.1-.285.165-.435-.15-.037-.285-.075-.42-.1a5.019 5.019 0 0 0-.727.21 1.468 1.468 0 0 0-.255.09q-4.577 1.3-9.266 2.234a61.6 61.6 0 0 1-6.515.817 1.5 1.5 0 0 1-.3.03 6.324 6.324 0 0 1-.652.03 7.731 7.731 0 0 1-2.451-.39 1.529 1.529 0 0 1-1.087-1.035 1.77 1.77 0 0 1 .435-1.522 6.841 6.841 0 0 1 1.934-1.559 28.473 28.473 0 0 1 5.308-2.586q7.422-2.811 15.054-4.94c.277-.09.57-.172.877-.24a8.685 8.685 0 0 0 1.829-.57 2.564 2.564 0 0 0 1.282-1.319q1.608-3.7 3.1-7.414t2.766-7.549a.179.179 0 0 1 .03-.09 6.46 6.46 0 0 1 .517-1.312.705.705 0 0 1 .352-.292.789.789 0 0 1 .435-.037.73.73 0 0 1 .36 0 .7.7 0 0 1 .562.652 5.378 5.378 0 0 1-.375 1.964.179.179 0 0 1-.03.09q-1.608 4.914-3.6 9.656c-.345.87-.7 1.739-1.072 2.586-.135.307-.27.622-.4.952a1.608 1.608 0 0 0-.21.795c.03.142.135.21.307.2a2.207 2.207 0 0 0 .63-.15c.082-.022.165-.037.255-.06.96-.247 1.927-.495 2.886-.727q2.62-.652 5.263-1.312 6.488-1.529 13.059-2.616a4.336 4.336 0 0 0 2.054-.907 30.511 30.511 0 0 0 3.7-3.329 19.121 19.121 0 0 0 3.029-4.123 8.535 8.535 0 0 0 1.08-4.536 7.635 7.635 0 0 0-2.144-4.618 12.33 12.33 0 0 0-2.976-2.294 28.366 28.366 0 0 0-8.434-2.774 63.04 63.04 0 0 0-10.555-.937 94.74 94.74 0 0 0-11.275.57 98.5 98.5 0 0 0-10.571 1.732 57.078 57.078 0 0 0-8.449 2.519 33.115 33.115 0 0 0-5.8 2.976 18.6 18.6 0 0 0-2.1 1.5 10.7 10.7 0 0 0-1.754 1.874.963.963 0 0 1-.787.487h-.3a1.258 1.258 0 0 1-.375-.052.485.485 0 0 1-.285-.217.71.71 0 0 1-.06-.277.828.828 0 0 1 .03-.247 3.572 3.572 0 0 1 .682-1.05c.285-.3.577-.6.877-.885a22.872 22.872 0 0 1 2.474-1.829 35.472 35.472 0 0 1 2.639-1.529 42.924 42.924 0 0 1 8.869-3.314 96.655 96.655 0 0 1 11.86-2.369 103.407 103.407 0 0 1 13.022-.982 69.627 69.627 0 0 1 12.287.87 30.371 30.371 0 0 1 9.761 3.186 12.718 12.718 0 0 1 3.231 2.511 8.443 8.443 0 0 1 2.287 4.468 8.164 8.164 0 0 1-.607 4.281 16.314 16.314 0 0 1-2.436 3.958 48.665 48.665 0 0 1-3.194 3.516 3.5 3.5 0 0 0-.39.412.556.556 0 0 0-.165.412c.015.112.18.142.487.105q5.488-.888 10.953-1.349t11-.615h.33a7.611 7.611 0 0 1 .922.06zm-57.591 15.871a6.632 6.632 0 0 1 .45-.847c.307-.585.63-1.229.967-1.942a12.3 12.3 0 0 0 .735-1.867c.157-.532.075-.825-.232-.877a3.243 3.243 0 0 0-.547.135.549.549 0 0 0-.165.03c-.7.217-1.394.427-2.1.622q-2.519.731-5.045 1.544a2.08 2.08 0 0 0-.255.09q-4.521 1.383-8.914 3.186a24.823 24.823 0 0 0-4.213 2.219 3.741 3.741 0 0 0-1.252 1.147.627.627 0 0 0-.112.54.639.639 0 0 0 .412.382 4.451 4.451 0 0 0 1.394.225c.42 0 .832-.023 1.252-.06h.03a50.315 50.315 0 0 0 6.38-1.057q4.982-1.1 9.851-2.571a.261.261 0 0 1 .1-.045 2.8 2.8 0 0 0 .712-.27 1.334 1.334 0 0 0 .532-.577zm2.781-.577a65.277 65.277 0 0 0 8.014-2.834q5.072-2.069 9.753-4.386a31.774 31.774 0 0 0 6.372-3.816h-.495q-10.278 2.035-20.346 4.85a1.747 1.747 0 0 0-1.222 1.072c-.4.87-.81 1.732-1.207 2.586q-.461.956-.922 1.934a.925.925 0 0 0-.075.3.37.37 0 0 0 .12.3z" transform="translate(-59.256 -193.882)" style="fill:#fff"/>
    <path data-name="Trazado 13410" d="M299.324 235.234a1.516 1.516 0 0 1-.967 1.342c-.555.21-.735-.067-.54-.817s-.15-.945-1.019-.57a6.825 6.825 0 0 0-2.159 1.409 18.571 18.571 0 0 0-2.324 2.886c-.068.09-.128.165-.165.225-.195.285-.4.562-.592.817a.8.8 0 0 1-.457.337 1.247 1.247 0 0 1-.525.023.56.56 0 0 1-.39-.195.348.348 0 0 1-.03-.39 8.9 8.9 0 0 1 .39-.817c.892-1.657 1.8-3.314 2.721-4.985a.077.077 0 0 0 .03-.06 3.758 3.758 0 0 1 .465-.712.74.74 0 0 1 .682-.27.631.631 0 0 1 .525.465c.1.345.2.54.285.585s.255.015.532-.1a9.379 9.379 0 0 1 1.739-.465 2.793 2.793 0 0 1 1.394.067c.36.135.5.54.412 1.229z" transform="translate(-78.228 -203.786)" style="fill:#fff"/>
    <path data-name="Trazado 13411" d="M310.977 241.179h-.045c-1.439-.022-2.384-.337-2.841-.96a2.313 2.313 0 0 1 .06-2.474 7.886 7.886 0 0 1 1.574-2.054 3.12 3.12 0 0 1 .667-.472 1.63 1.63 0 0 1 .772-.18 1.042 1.042 0 0 1 .577.09c.068.023.142.045.21.075a1.7 1.7 0 0 0 .487-.165.562.562 0 0 1 .165-.075 2.557 2.557 0 0 1 1.042-.165h.465a1.957 1.957 0 0 1 1.327.735 1.868 1.868 0 0 1 .315 1.462 2.874 2.874 0 0 1-.33.982q-1.709 3.07-4.356 3.2zm2.347-5.33a3.1 3.1 0 0 0-2.092.675 4.659 4.659 0 0 0-1.364 1.657 2.089 2.089 0 0 0-.247 1.537c.135.4.547.51 1.245.337a4.608 4.608 0 0 0 2.077-1.342 4.265 4.265 0 0 0 1.1-1.867c.135-.592-.1-.922-.72-1z" transform="translate(-82.646 -204.124)" style="fill:#fff"/>
    <path data-name="Trazado 13412" d="M334.727 236.833a4.848 4.848 0 0 1-.682.225c-.06.03-.113.052-.165.075-.24.09-.472.172-.712.255q-1.012.326-2.069.7a2.05 2.05 0 0 0-1.237.982 5.448 5.448 0 0 1-1.822 1.829 7.9 7.9 0 0 1-2.226.93 13.369 13.369 0 0 1-2 .345 7.254 7.254 0 0 1-1.124.038h-.075a2.352 2.352 0 0 0-.712.877c-.24.435-.45.825-.622 1.177a2.476 2.476 0 0 0-.09.24q-1.473 2.946-2.916 5.893l-1.634 3.276a9.019 9.019 0 0 1-.622 1.117.6.6 0 0 1-.817.165.5.5 0 0 1-.165-.652c.112-.285.225-.577.36-.862q2.553-6.05 5.428-11.972.888-1.833 1.679-3.733.36-.877.742-1.8a.713.713 0 0 1 .1-.195 6.588 6.588 0 0 1 .465-.952.619.619 0 0 1 .442-.21.866.866 0 0 1 .562.09.652.652 0 0 1 .3.577 1.164 1.164 0 0 1-.075.4 1.308 1.308 0 0 0-.075.33.48.48 0 0 0 .1.33.653.653 0 0 0 .42-.067 2.529 2.529 0 0 0 .345-.232 1.007 1.007 0 0 1 .39-.195 2.279 2.279 0 0 1 .27-.135 14.52 14.52 0 0 1 1.409-.562 2.423 2.423 0 0 1 1.8.135 1.635 1.635 0 0 1 .577.577 3.453 3.453 0 0 1 .3.727c.067.2.247.3.54.315a3.992 3.992 0 0 0 .982-.112c.36-.082.69-.172.99-.262.247-.067.427-.112.532-.135a2.836 2.836 0 0 1 .907-.06.66.66 0 0 1 .247.045c.075.03.112.112.112.24a.315.315 0 0 1-.045.157.248.248 0 0 1-.12.112zm-6.245.982a.886.886 0 0 0 .367-.637 1.608 1.608 0 0 0-.1-.862.44.44 0 0 0-.2-.187.632.632 0 0 0-.262-.052 1.934 1.934 0 0 0-.525.165 11.42 11.42 0 0 0-4.446 3.928c-.217.4-.187.57.082.525a4.578 4.578 0 0 0 1.23-.5c.547-.292 1.11-.63 1.694-1.012s1.087-.7 1.5-.975a6.578 6.578 0 0 1 .652-.39z" transform="translate(-84.453 -204.066)" style="fill:#fff"/>
    <path data-name="Trazado 13413" d="M354.443 238.91a9.708 9.708 0 0 1-3.928 2.234 8.035 8.035 0 0 1-1.589.217 5.993 5.993 0 0 1-2.406-.36 2.067 2.067 0 0 1-1.252-2.781 4.75 4.75 0 0 1 2.114-2.766 5.885 5.885 0 0 1 3.291-.967h.03a2.666 2.666 0 0 1 .817.06 1.265 1.265 0 0 1 .832.772 1.375 1.375 0 0 1-.24 1.192 3.385 3.385 0 0 1-2.586 1.6 6.975 6.975 0 0 1-2.1-.1.4.4 0 0 0-.345.1.555.555 0 0 0-.18.33c-.195.855.067 1.4.787 1.634a4.309 4.309 0 0 0 2.781 0 8.116 8.116 0 0 0 3.171-1.964q1.507-1.439 1.732-1.349c.15.06.2.247.142.555a3.746 3.746 0 0 1-1.072 1.574zm-6.335-2.4a.593.593 0 0 0-.127.232.2.2 0 0 0 .1.232 1.79 1.79 0 0 0 1.132.217 1.877 1.877 0 0 0 1.035-.465 1.04 1.04 0 0 0 .367-.93.312.312 0 0 0-.21-.247.62.62 0 0 0-.33-.022 3.855 3.855 0 0 0-1.967.984z" transform="translate(-92.002 -204.044)" style="fill:#fff"/>
    <path data-name="Trazado 13414" d="M370.334 235.234a1.516 1.516 0 0 1-.967 1.342c-.555.21-.735-.067-.54-.817s-.15-.945-1.019-.57a6.822 6.822 0 0 0-2.159 1.409 18.558 18.558 0 0 0-2.324 2.886c-.068.09-.127.165-.165.225-.195.285-.4.562-.592.817a.794.794 0 0 1-.457.337 1.248 1.248 0 0 1-.525.023.56.56 0 0 1-.39-.195.348.348 0 0 1-.03-.39 8.937 8.937 0 0 1 .39-.817c.892-1.657 1.8-3.314 2.721-4.985a.077.077 0 0 0 .03-.06 3.761 3.761 0 0 1 .465-.712.741.741 0 0 1 .682-.27.631.631 0 0 1 .525.465c.1.345.2.54.285.585s.255.015.532-.1a9.378 9.378 0 0 1 1.739-.465 2.793 2.793 0 0 1 1.394.067c.36.135.5.54.412 1.229z" transform="translate(-96.003 -203.786)" style="fill:#fff"/>
    <path data-name="Trazado 13415" d="M389.011 232.6a15.6 15.6 0 0 1-3.906 3.464 5.879 5.879 0 0 1-4.093.735q-2.182-.382-1.792-2.924a16.726 16.726 0 0 1 .727-2.5q1.147-2.845 2.324-5.653c.255-.675.532-1.357.817-2.039l.2-.442c.112-.247.217-.5.33-.757.157-.435-.015-.667-.517-.682h-1.282c-.15.022-.3.038-.465.06-.255.022-.51.03-.765.03a1.366 1.366 0 0 1-.7-.195.3.3 0 0 1-.142-.112.323.323 0 0 1-.052-.187.972.972 0 0 1 .1-.142.385.385 0 0 1 .172-.112 3.09 3.09 0 0 1 .682-.195c.615-.03 1.222-.052 1.829-.075h.622a6.324 6.324 0 0 0 .885-.045.648.648 0 0 0 .465-.315 6.025 6.025 0 0 0 .42-.817c.09-.195.195-.42.33-.652.33-.7.652-1.4.982-2.129.15-.33.3-.645.465-.952a1.453 1.453 0 0 1 .607-.712.629.629 0 0 1 .7.03.4.4 0 0 1 .142.195.633.633 0 0 1 .052.24 2.4 2.4 0 0 1-.3 1.147c-.037.083-.082.172-.135.285-.127.36-.27.72-.42 1.087a42.384 42.384 0 0 0-.817 2.069.32.32 0 0 0-.008.345.328.328 0 0 0 .292.15c.7.022 1.394.03 2.069.03h1.042c1.095.022 1.529.172 1.312.465a.81.81 0 0 1-.48.292 2.055 2.055 0 0 1-.525 0h-.33q-1.664.1-3.306.135a.987.987 0 0 0-1.012.682c-.18.435-.352.87-.517 1.312-.247.577-.48 1.14-.7 1.679-.217.517-.435 1.035-.652 1.559q-.843 1.99-1.634 4a17.359 17.359 0 0 0-.772 2.676q-.619 2.485 1.919 1.9a10.979 10.979 0 0 0 5.233-3.6c.795-.5 1-.277.622.682z" transform="translate(-100.519 -199.209)" style="fill:#fff"/>
    <path data-name="Trazado 13416" d="M402.834 237.086a10.452 10.452 0 0 1-1.882 1.732 6.318 6.318 0 0 1-2.451 1.065 2.892 2.892 0 0 1-2.129-.2c-.5-.315-.607-1.02-.3-2.114a14.23 14.23 0 0 1 1.634-3.231 1.285 1.285 0 0 1 .682-.465.637.637 0 0 1 .57.112.438.438 0 0 1 .188.465c-.15.36-.315.712-.495 1.072s-.3.592-.36.7a6.937 6.937 0 0 0-.727 1.994c0 .4.532.42 1.589.075a8.418 8.418 0 0 0 3.1-1.912c1-.93 1.477-1.2 1.439-.817a3.3 3.3 0 0 1-.862 1.514zm-2.594-4.978a1.193 1.193 0 0 1-.307.142 2.573 2.573 0 0 1-.487.12.526.526 0 0 1-.412-.083c-.1-.082-.1-.24-.015-.472a7.517 7.517 0 0 1 .5-1.095 9.2 9.2 0 0 1 .675-1.035.969.969 0 0 1 .577-.277.674.674 0 0 1 .525.165.473.473 0 0 1 .12.51 4.533 4.533 0 0 1-1.177 2.024z" transform="translate(-104.709 -202.775)" style="fill:#fff"/>
    <path data-name="Trazado 13417" d="M419.293 238.91a9.707 9.707 0 0 1-3.928 2.234 8.033 8.033 0 0 1-1.589.217 5.994 5.994 0 0 1-2.407-.36 2.067 2.067 0 0 1-1.252-2.781 4.749 4.749 0 0 1 2.114-2.766 5.885 5.885 0 0 1 3.291-.967h.03a2.665 2.665 0 0 1 .817.06 1.266 1.266 0 0 1 .832.772 1.375 1.375 0 0 1-.24 1.192 3.385 3.385 0 0 1-2.586 1.6 6.976 6.976 0 0 1-2.1-.1.4.4 0 0 0-.345.1.555.555 0 0 0-.18.33c-.2.855.067 1.4.787 1.634a4.309 4.309 0 0 0 2.781 0 8.117 8.117 0 0 0 3.171-1.964q1.507-1.439 1.732-1.349c.15.06.2.247.142.555a3.746 3.746 0 0 1-1.072 1.574zm-6.335-2.4a.592.592 0 0 0-.127.232.2.2 0 0 0 .1.232 1.79 1.79 0 0 0 1.132.217 1.877 1.877 0 0 0 1.035-.465 1.04 1.04 0 0 0 .367-.93.312.312 0 0 0-.21-.247.619.619 0 0 0-.33-.022 3.854 3.854 0 0 0-1.967.984z" transform="translate(-108.235 -204.044)" style="fill:#fff"/>
    <path data-name="Trazado 13418" d="M434.558 236.567a32.864 32.864 0 0 0-3.389 1.424 2.047 2.047 0 0 0-.87.615c-.075.165-.015.465.172.9a.165.165 0 0 0 .045.09 5.367 5.367 0 0 1 .39 1.634c.068 1.14-.9 1.942-2.909 2.392s-3.351.472-4.033.045a1.221 1.221 0 0 1-.622-1.619 4.764 4.764 0 0 1 2.047-1.994c1.1-.675 1.837-1.162 2.212-1.454a.815.815 0 0 0 .337-1c-.052-.127-.1-.255-.165-.39-.127-.307-.262-.622-.4-.952a3.89 3.89 0 0 1-.337-1.754 2.167 2.167 0 0 1 .637-1.447 2.627 2.627 0 0 1 1.822-.63 3.037 3.037 0 0 1 1.252.187 1.727 1.727 0 0 1 .877.795.48.48 0 0 1-.165.727.532.532 0 0 1-.607.06 1.583 1.583 0 0 1-.4-.255v-.041c-.06-.037-.113-.082-.165-.12a.881.881 0 0 0-.195-.21.871.871 0 0 0-.78-.172.915.915 0 0 0-.585.6 2.349 2.349 0 0 0-.135.787 2.991 2.991 0 0 0 .225.952c.09.187.165.36.24.517a4.754 4.754 0 0 0 .42.9.394.394 0 0 0 .4.21c.157-.022 1.559-.525 4.221-1.507.577-.187.742.045.487.7zm-6.44 5.683a1.155 1.155 0 0 0 .877-1.4.455.455 0 0 0-.03-.165 2.158 2.158 0 0 0-.24-.87c-.12-.2-.39-.195-.8.023a15.879 15.879 0 0 0-2.856 2.054c-.06.067-.112.135-.165.195l-.03.045a.266.266 0 0 0-.03.27.257.257 0 0 0 .27.15 5.966 5.966 0 0 0 3.004-.303z" transform="translate(-111.551 -203.53)" style="fill:#fff"/>
</svg>
