<svg xmlns="http://www.w3.org/2000/svg" width="181.113" height="78.217" viewBox="0 0 181.113 78.217">
    <defs>
        <clipPath id="8jspkqt9ga">
            <path data-name="Rectángulo 2635" style="fill:#fff" d="M0 0h30.794v76.979H0z"/>
        </clipPath>
    </defs>
    <g data-name="Grupo 9460">
        <g data-name="Grupo 6362" style="clip-path:url(#8jspkqt9ga)">
            <path data-name="Trazado 10029" d="m261.128 60.329 18.878 18.877a23.768 23.768 0 0 0 4.554-.436l-20.937-20.936zm13.9 18.325-16.116-16.112-2.5 2.5 7.548 7.545a22.467 22.467 0 0 0 11.057 6.069M261.785 14.04c-1.364 2.014-1.585 2.06-1.585 2.06a1.921 1.921 0 0 0 2.092-.787c1.369-2.022 1.606-2.062 1.606-2.062a1.917 1.917 0 0 0-2.111.787m6.852-7.031a.722.722 0 1 0-.723.72.724.724 0 0 0 .722-.72m8.587 26.322h1.606v-1.357h-1.606v-1.6h-1.358v1.6h-1.6v1.358h1.6v1.6h.468v2.08h.427v-2.075h.465zm7.647 8.2-6.6 6.574-1.515-1.5c-2.573-2.576-3.271-5.731-3.526-9.683a93.677 93.677 0 0 1-.178-6.086v-3.9h6.934v3.9a14.189 14.189 0 0 0 4.883 10.7m-3.649-17.858-.784 1.9h-16.611l-.786-1.9a4.4 4.4 0 0 0 5.4-1.644 4.4 4.4 0 0 0 7.364 0 4.4 4.4 0 0 0 5.406 1.644m-1.8-5.921a6.62 6.62 0 0 0-.41 4.971 3.137 3.137 0 0 1-2.432-1.972 1.122 1.122 0 1 0-1.585-.064l.064.064a3.13 3.13 0 0 1-5.844 0 1.121 1.121 0 1 0-1.518 0 3.121 3.121 0 0 1-2.923 2.01 3.554 3.554 0 0 1-.436-.036 9.913 9.913 0 0 1 .6-3.247c1.249-3.187 5.282-4.771 7.139-6.09a3.586 3.586 0 0 0 1.527-2.755 2.849 2.849 0 0 0-2.825-2.83c-1.46 0-3.586 1.644-4.588 2.637a1.935 1.935 0 0 0-1.065-.85 12.682 12.682 0 0 0 1.494-4.724 5.011 5.011 0 0 0 1.981.4 5.049 5.049 0 0 0 3.112-1.064 5.746 5.746 0 0 0 4.1 1.726 3.578 3.578 0 0 0 .36-.012 6.1 6.1 0 0 0 2.092 4.061 9.366 9.366 0 0 0-1.8 2.02 9.177 9.177 0 0 1-3.3 3.082 4.952 4.952 0 0 1-1.494.521 6.358 6.358 0 0 1 .149 1.355 6.6 6.6 0 0 1-.448 2.377l1.179.459a7.847 7.847 0 0 0 .527-2.839c0-.115 0-.229-.009-.344a9.946 9.946 0 0 0 4.515-3.849 6.7 6.7 0 0 1 4-2.988 6.645 6.645 0 0 0 .1 5.419 6.65 6.65 0 0 0-2.268 2.562m-15.091 9.18h7.375v3.9c0 1.159.012 3.586.178 6.174a19.85 19.85 0 0 0 1.543 7.157l-3.586 1.8v-14h-7.993zm-2.513 6.398h6.671V46.65l-3.912 1.963a38.715 38.715 0 0 0-.3-7.769 35.91 35.91 0 0 0-2.461-7.511m16.473 16.706 8.542-8.533-.565-.529c-3.437-3.221-4.9-6.254-4.9-10.142v-4.163l2.344-5.688a1.123 1.123 0 1 0-1.443-.665 1.147 1.147 0 0 0 .2.342 3.137 3.137 0 0 1-2.125 1.992 5.391 5.391 0 0 1 3.132-6.949l.021-.007a5.38 5.38 0 0 1 .583-7.287 6.627 6.627 0 0 0-4.718.81 4.843 4.843 0 0 1-1.812-4.9 4.46 4.46 0 0 1-1.712.341 4.491 4.491 0 0 1-3.988-2.432 3.818 3.818 0 0 1-3.23 1.776 3.808 3.808 0 0 1-3.2-1.75 9.936 9.936 0 0 1-3.359 8.868l.732.974a10.73 10.73 0 0 0 1.268-1.1.731.731 0 0 1 .563-.27.644.644 0 0 1 .627.642.824.824 0 0 1-.12.4 2.816 2.816 0 0 0-.025 2.449l1.1-.52c-.514-1.109.368-2.141 1.762-3.175a6.1 6.1 0 0 1 2.825-1.446 1.558 1.558 0 0 1 1.558 1.555c0 .964-.953 1.736-1.69 2.2-2.755 1.736-5.528 3-6.816 6.059a10.967 10.967 0 0 0-.765 3.347 3.418 3.418 0 0 1-1.252-1.579 1.125 1.125 0 1 0-1.242.323l2.355 5.711-2.945 5.96a37.284 37.284 0 0 1 2.936 8.421 46.181 46.181 0 0 1 .131 9.818l11-5.54a11.882 11.882 0 0 0 1.745 2.213l2.476 2.474m2.322 5.92-7.55-7.547-2.492 2.5 16.111 16.11a22.486 22.486 0 0 0-6.069-11.056m6.184 20.593a23.508 23.508 0 0 0 .441-4.559l-18.88-18.878-2.492 2.492z" transform="translate(-256.415 -2.226)" style="fill:#fff"/>
        </g>
        <text data-name="Registro de Agentes Inmobiliarios de la Comunitat Valenciana" transform="translate(48.113 13.217)" style="letter-spacing:.01em;font-size:13px;font-family:DMSans-Light,DM Sans;font-weight:300;fill:#fff"><tspan x="0" y="0">Registro de Agentes </tspan><tspan x="0" y="16">Inmobiliarios de la </tspan><tspan x="0" y="32">Comunitat Valenciana</tspan></text>
        <text data-name="2891" transform="translate(46.113 71.217)" style="font-size:22px;font-family:DMSans-SemiBold,DM Sans;font-weight:600;letter-spacing:.01em;fill:#fff"><tspan x="0" y="0">2891</tspan></text>
    </g>
</svg>
