<svg xmlns="http://www.w3.org/2000/svg" width="209.07" height="82.952" viewBox="0 0 209.07 82.952">
    <g data-name="Grupo 9467">
        <g data-name="Grupo 9450">
            <path data-name="Trazado 13400" d="M48.875 231.327v-1.256l2.513-.878q4.271-1.382 4.273-7.164v-64.351a11.682 11.682 0 0 0-.567-4.021 4.929 4.929 0 0 0-2.954-2.513l-3.269-1.508v-1.256h24.256l23.253 60.834 21.871-60.834h24.761v1.256l-2.008.752a5.866 5.866 0 0 0-3.269 2.449 8.318 8.318 0 0 0-.878 4.084v65.733a9.6 9.6 0 0 0 .631 3.895 5.39 5.39 0 0 0 3.017 2.386l2.513 1.13v1.256h-31.296v-1.256l2.639-1.13a5.407 5.407 0 0 0 3.017-2.386 9.7 9.7 0 0 0 .631-3.895v-28.277l.252-35.947-26.27 72.9H85.7l-27.4-72.022.378 31.295v31.673a10.377 10.377 0 0 0 .815 4.462 4.943 4.943 0 0 0 3.206 2.449l2.765.878v1.256H48.88z" transform="translate(-28.794 -148.379)" style="fill:#c1a664"/>
            <path data-name="Trazado 13401" d="M254.36 231.327v-1.256l2.639-1a5.432 5.432 0 0 0 3.269-2.386 8.692 8.692 0 0 0 .752-3.895v-65.737a9.1 9.1 0 0 0-.752-4.021 5.417 5.417 0 0 0-3.268-2.387l-2.639-1v-1.256h31.295v1.256l-2.765 1.13a4.818 4.818 0 0 0-2.891 2.26 9.373 9.373 0 0 0-.752 4.147v65.733a7.711 7.711 0 0 0 .815 3.895 5.88 5.88 0 0 0 3.206 2.26l2.386 1v1.256zm46.38 0v-1.256l1.635-.5c1.673-.5 2.556-1.339 2.639-2.513a6.382 6.382 0 0 0-1.509-4.021l-24.131-34.312 31.8-32.425a5.981 5.981 0 0 0 1.95-3.4q.189-1.63-2.449-2.513l-2.139-.752v-1.255h18.349v1.256l-3.269 1a14.41 14.41 0 0 0-4.4 2.134 39.534 39.534 0 0 0-3.769 3.4l-22.5 23 29.534 43.111a34.926 34.926 0 0 0 3.58 4.525 11.4 11.4 0 0 0 4.841 2.765l1.761.5v1.256H300.74z" transform="translate(-134.613 -148.379)" style="fill:#c1a664"/>
        </g>
        <path data-name="Trazado 13402" d="M54.95 36.2a.661.661 0 0 1 .364.194.226.226 0 0 1 .058.281.361.361 0 0 1-.194.155.53.53 0 0 1-.233.01 2.46 2.46 0 0 1-.32-.019 54.329 54.329 0 0 0-6.068.267q-3.776.335-6.087.65c-1.188.155-2.372.32-3.56.5a.294.294 0 0 0-.107.029 3.051 3.051 0 0 0-1.358.548 44.363 44.363 0 0 1-4.676 2.789q-2.416 1.251-4.928 2.328a80.722 80.722 0 0 1-8.321 3.138 1.912 1.912 0 0 0-1.271 1.057q-1.884 3.761-3.939 7.363-1.819 3.209-3.492 6.485a.05.05 0 0 1-.019.039.772.772 0 0 1-.175.281.483.483 0 0 1-.4.107.446.446 0 0 1-.252 0 .386.386 0 0 1-.262-.383 1.763 1.763 0 0 1 .3-.868.062.062 0 0 0 .019-.048q1.7-3.041 3.337-6.082t3.172-6.17c.082-.175.165-.349.252-.529.034-.092.068-.184.107-.281-.1-.024-.184-.048-.267-.068a3.083 3.083 0 0 0-.47.136.952.952 0 0 0-.165.058q-2.961.844-6 1.445a39.864 39.864 0 0 1-4.215.529.971.971 0 0 1-.194.019 4.093 4.093 0 0 1-.422.019 5.023 5.023 0 0 1-1.586-.252.99.99 0 0 1-.7-.669 1.145 1.145 0 0 1 .281-.985 4.427 4.427 0 0 1 1.251-1.009 18.426 18.426 0 0 1 3.434-1.673q4.8-1.819 9.74-3.2c.179-.058.369-.112.567-.155a5.622 5.622 0 0 0 1.184-.369 1.659 1.659 0 0 0 .829-.854q1.04-2.394 2-4.8t1.79-4.884a.116.116 0 0 1 .019-.058 3.929 3.929 0 0 1 .34-.849.456.456 0 0 1 .228-.189.51.51 0 0 1 .281-.024.472.472 0 0 1 .233 0 .455.455 0 0 1 .364.422 3.479 3.479 0 0 1-.243 1.271.116.116 0 0 1-.019.058q-1.04 3.179-2.328 6.247a55.787 55.787 0 0 1-.694 1.673c-.092.2-.175.4-.262.616a1.04 1.04 0 0 0-.136.514c.019.092.082.136.2.131a1.429 1.429 0 0 0 .407-.1c.053-.015.107-.024.165-.039.621-.16 1.247-.32 1.867-.471q1.7-.422 3.4-.849 4.2-.99 8.449-1.693a2.806 2.806 0 0 0 1.329-.587 19.748 19.748 0 0 0 2.4-2.154 12.375 12.375 0 0 0 1.966-2.658 5.488 5.488 0 0 0 .7-2.935 4.94 4.94 0 0 0-1.387-2.988 7.978 7.978 0 0 0-1.926-1.484 18.351 18.351 0 0 0-5.457-1.795 40.782 40.782 0 0 0-6.829-.606 61.3 61.3 0 0 0-7.3.369 63.705 63.705 0 0 0-6.839 1.12 36.926 36.926 0 0 0-5.466 1.63 21.421 21.421 0 0 0-3.754 1.926 12.486 12.486 0 0 0-1.358.97 6.921 6.921 0 0 0-1.135 1.213.623.623 0 0 1-.509.315H.466a.816.816 0 0 1-.246-.035.329.329 0 0 1-.184-.141.459.459 0 0 1-.039-.179.537.537 0 0 1 .019-.16 2.311 2.311 0 0 1 .441-.679c.184-.194.373-.388.567-.572a14.784 14.784 0 0 1 1.6-1.184 22.796 22.796 0 0 1 1.707-.989 27.768 27.768 0 0 1 5.738-2.144 62.55 62.55 0 0 1 7.673-1.533 66.839 66.839 0 0 1 8.425-.635 45.053 45.053 0 0 1 7.95.563 19.652 19.652 0 0 1 6.315 2.061 8.228 8.228 0 0 1 2.091 1.625 5.463 5.463 0 0 1 1.479 2.891 5.331 5.331 0 0 1-.393 2.77 10.557 10.557 0 0 1-1.576 2.561 31.242 31.242 0 0 1-2.066 2.275 2.27 2.27 0 0 0-.252.267.341.341 0 0 0-.107.267c.015.073.121.092.32.068q3.551-.575 7.086-.873t7.116-.4h.213a4.926 4.926 0 0 1 .6.039zM17.685 46.469a4.81 4.81 0 0 1 .286-.548c.2-.378.407-.8.626-1.256a7.949 7.949 0 0 0 .475-1.208c.1-.344.049-.534-.15-.567a2.1 2.1 0 0 0-.354.087.355.355 0 0 0-.107.019c-.451.141-.9.276-1.358.4q-1.63.473-3.264 1a1.358 1.358 0 0 0-.165.058q-2.925.895-5.762 2.061a16.06 16.06 0 0 0-2.726 1.436 2.376 2.376 0 0 0-.81.742.406.406 0 0 0-.073.349.413.413 0 0 0 .267.247 2.886 2.886 0 0 0 .907.146c.272 0 .538-.015.81-.039h.019a32.558 32.558 0 0 0 4.128-.684q3.223-.713 6.373-1.664a.17.17 0 0 1 .068-.029 1.81 1.81 0 0 0 .461-.175.863.863 0 0 0 .344-.373zm1.8-.373a42.55 42.55 0 0 0 5.19-1.833q3.281-1.339 6.31-2.838a20.413 20.413 0 0 0 4.123-2.469h-.32q-6.65 1.317-13.164 3.138a1.131 1.131 0 0 0-.791.694c-.262.563-.524 1.12-.781 1.673q-.3.618-.6 1.251a.6.6 0 0 0-.049.194.239.239 0 0 0 .078.194z"/>
        <path data-name="Trazado 13403" d="M42.712 42.414a.98.98 0 0 1-.626.868c-.359.136-.475-.044-.349-.529s-.1-.611-.66-.369a4.415 4.415 0 0 0-1.4.912 11.988 11.988 0 0 0-1.5 1.867c-.044.058-.082.107-.107.146-.126.184-.257.364-.383.529a.52.52 0 0 1-.291.218.823.823 0 0 1-.344.015.373.373 0 0 1-.252-.126.225.225 0 0 1-.019-.252 5.781 5.781 0 0 1 .252-.529 352.782 352.782 0 0 1 1.761-3.226.05.05 0 0 0 .019-.039 2.428 2.428 0 0 1 .3-.461.479.479 0 0 1 .441-.175.4.4 0 0 1 .335.3c.073.223.131.349.184.378s.165.01.344-.063a6.068 6.068 0 0 1 1.125-.3 1.783 1.783 0 0 1 .9.044c.233.087.325.349.267.8z"/>
        <path data-name="Trazado 13404" d="M51.347 44.63a6.28 6.28 0 0 1-2.542 1.445 5.2 5.2 0 0 1-1.028.141 3.865 3.865 0 0 1-1.557-.233 1.338 1.338 0 0 1-.81-1.8 3.073 3.073 0 0 1 1.368-1.79 3.8 3.8 0 0 1 2.124-.626h.019a1.724 1.724 0 0 1 .529.039.819.819 0 0 1 .538.5.892.892 0 0 1-.155.771 2.19 2.19 0 0 1-1.673 1.038 4.512 4.512 0 0 1-1.358-.068.259.259 0 0 0-.223.068.359.359 0 0 0-.116.213c-.131.553.044.907.509 1.057a2.787 2.787 0 0 0 1.8 0 5.251 5.251 0 0 0 2.052-1.271q.975-.931 1.12-.873c.1.044.131.16.092.359a2.47 2.47 0 0 1-.694 1.019zm-4.1-1.552a.383.383 0 0 0-.082.15.138.138 0 0 0 .063.15 1.158 1.158 0 0 0 .732.141 1.215 1.215 0 0 0 .669-.3.673.673 0 0 0 .238-.6.2.2 0 0 0-.136-.16.4.4 0 0 0-.213-.015 2.494 2.494 0 0 0-1.275.634z"/>
        <path data-name="Trazado 13405" d="M64.472 43.504c.223-.141.4-.175.529-.107s.082.272-.146.6a5.212 5.212 0 0 1-1.513 1.213 3.264 3.264 0 0 1-1.93.563c-.558-.053-.723-.466-.485-1.237s.359-1.2.378-1.3 0-.146-.053-.16-.179.053-.378.194c-.577.4-1.145.815-1.693 1.251-.238.179-.47.369-.7.567-.141.126-.286.257-.441.383l-.019.019a1.284 1.284 0 0 1-.616.34.9.9 0 0 1-.344.034.5.5 0 0 1-.31-.141.313.313 0 0 1-.107-.3 1.729 1.729 0 0 1 .243-.475c.136-.213.281-.446.446-.7a3.337 3.337 0 0 0 .276-.466.192.192 0 0 0-.029-.175.119.119 0 0 0-.15-.053c-.053.024-.257.16-.611.412s-.834.606-1.445 1.062q-.422.32-.829.655a1.5 1.5 0 0 1-.233.194 1.118 1.118 0 0 1-.655.272.435.435 0 0 1-.383-.116.33.33 0 0 1-.039-.364 1.45 1.45 0 0 1 .146-.315.446.446 0 0 0 .068-.136c.5-1.028 1.009-2.057 1.5-3.09a.639.639 0 0 0 .039-.107c.058-.107.116-.213.175-.315a.52.52 0 0 1 .548-.165c.243.073.34.213.281.422-.116.32-.228.64-.335.951l-.175.422c-.1.252-.126.412-.092.48s.194.024.475-.146c.194-.126.383-.257.567-.383q.335-.233.655-.422a7.185 7.185 0 0 1 1-.509 2.746 2.746 0 0 1 .514-.16.582.582 0 0 1 .495.121.354.354 0 0 1 .15.325 1.047 1.047 0 0 1-.1.344.865.865 0 0 0-.112.4c.015.058.068.068.15.034a3.524 3.524 0 0 0 .441-.247c.213-.126.441-.272.684-.422.306-.2.631-.388.97-.567a2.024 2.024 0 0 1 .907-.335c.441-.034.626.146.543.534a7.865 7.865 0 0 1-.466 1.387c-.233.534-.257.863-.073.985s.587-.044 1.217-.495.985-.708 1.067-.766z"/>
        <path data-name="Trazado 13406" d="M71.379 44.271a6.762 6.762 0 0 1-1.217 1.12 4.089 4.089 0 0 1-1.586.689 1.871 1.871 0 0 1-1.378-.131c-.325-.2-.393-.66-.194-1.368a9.209 9.209 0 0 1 1.057-2.091.831.831 0 0 1 .441-.3.409.409 0 0 1 .369.073.283.283 0 0 1 .121.3c-.1.233-.2.461-.32.694s-.194.383-.233.451a4.49 4.49 0 0 0-.47 1.29c0 .257.344.272 1.028.049a5.447 5.447 0 0 0 2-1.237c.65-.6.956-.776.926-.529a2.131 2.131 0 0 1-.558.98zm-1.678-3.221a.771.771 0 0 1-.2.092 1.665 1.665 0 0 1-.315.078.34.34 0 0 1-.267-.053c-.063-.053-.068-.155-.01-.306a4.87 4.87 0 0 1 .325-.708 5.944 5.944 0 0 1 .437-.669.626.626 0 0 1 .374-.18.42.42 0 0 1 .335.107.306.306 0 0 1 .078.33 2.933 2.933 0 0 1-.762 1.31z"/>
        <path data-name="Trazado 13407" d="M74.503 46.628c-.611 0-.912-.32-.912-.951a11.287 11.287 0 0 1 1.513-4.108.213.213 0 0 1 .213-.126c.4 0 .606.16.606.48a1.075 1.075 0 0 1-.107.422c-.024.044-.364.892-1.009 2.542a1.973 1.973 0 0 0-.155.6c0 .141.063.213.194.213q.7 0 3.686-3.492a1.037 1.037 0 0 1 .762-.47c.364 0 .548.136.548.4a7.459 7.459 0 0 1-.335 1.164 10.158 10.158 0 0 0-.461 1.586c0 .213.073.32.213.32q.531 0 3.09-1.887a.423.423 0 0 1 .252-.126c.16 0 .242.136.242.4a.245.245 0 0 1-.068.175 21.268 21.268 0 0 1-2.309 1.77 2.931 2.931 0 0 1-1.542.558h-.133c-.66-.141-.989-.66-.989-1.547a77.07 77.07 0 0 1-1.756 1.508 2.35 2.35 0 0 1-1.528.572z"/>
        <path data-name="Trazado 13408" d="M95.185 43.504c.223-.141.4-.175.529-.107s.082.272-.145.6a5.213 5.213 0 0 1-1.513 1.213 3.264 3.264 0 0 1-1.93.563c-.558-.053-.718-.466-.485-1.237s.359-1.2.378-1.3 0-.146-.053-.16-.179.053-.378.194c-.577.4-1.14.815-1.693 1.251-.238.179-.471.369-.7.567-.141.126-.286.257-.441.383l-.019.019a1.284 1.284 0 0 1-.616.34.908.908 0 0 1-.344.034.474.474 0 0 1-.306-.141.313.313 0 0 1-.107-.3 1.726 1.726 0 0 1 .243-.475c.136-.209.286-.446.446-.7a3.981 3.981 0 0 0 .276-.466.192.192 0 0 0-.029-.175.119.119 0 0 0-.15-.053c-.053.024-.257.16-.611.412s-.834.606-1.445 1.062q-.422.32-.829.655a1.3 1.3 0 0 1-.233.194 1.118 1.118 0 0 1-.655.272.435.435 0 0 1-.383-.116.329.329 0 0 1-.039-.364 1.452 1.452 0 0 1 .146-.315.446.446 0 0 0 .068-.136c.5-1.028 1.009-2.057 1.5-3.09a.639.639 0 0 0 .039-.107c.058-.107.116-.213.175-.315a.517.517 0 0 1 .548-.165c.243.073.335.213.281.422-.116.32-.228.64-.335.951l-.175.422c-.1.252-.126.412-.092.48s.194.024.475-.146c.194-.126.383-.257.568-.383q.335-.233.655-.422a7.465 7.465 0 0 1 1-.509 2.746 2.746 0 0 1 .514-.16.585.585 0 0 1 .495.121.354.354 0 0 1 .15.325 1.048 1.048 0 0 1-.1.344.866.866 0 0 0-.112.4c.015.058.068.068.15.034a3.524 3.524 0 0 0 .441-.247c.209-.131.441-.272.684-.422.306-.2.631-.388.97-.567a2.024 2.024 0 0 1 .907-.335c.441-.034.626.146.543.534a7.863 7.863 0 0 1-.466 1.387c-.228.538-.257.863-.073.985s.587-.044 1.217-.495.985-.708 1.067-.766z"/>
        <path data-name="Trazado 13409" d="M155.286 36.2a.661.661 0 0 1 .364.194.22.22 0 0 1 .058.281.362.362 0 0 1-.194.155.53.53 0 0 1-.233.01 2.34 2.34 0 0 1-.315-.019 54.319 54.319 0 0 0-6.068.267q-3.776.335-6.087.65c-1.188.155-2.372.32-3.56.5a.3.3 0 0 0-.107.029 3.052 3.052 0 0 0-1.358.548 44.34 44.34 0 0 1-4.676 2.789q-2.416 1.251-4.928 2.328a80.713 80.713 0 0 1-8.323 3.138 1.912 1.912 0 0 0-1.271 1.057q-1.884 3.761-3.939 7.363-1.819 3.209-3.492 6.485a.05.05 0 0 1-.019.039.772.772 0 0 1-.175.281.482.482 0 0 1-.4.107.446.446 0 0 1-.252 0 .385.385 0 0 1-.262-.383 1.756 1.756 0 0 1 .3-.868.062.062 0 0 0 .019-.048q1.7-3.041 3.337-6.082t3.172-6.17c.082-.175.165-.349.252-.529.034-.092.068-.184.107-.281-.1-.024-.184-.048-.272-.068a3.25 3.25 0 0 0-.47.136.952.952 0 0 0-.165.058q-2.961.844-6 1.445a39.863 39.863 0 0 1-4.215.529.971.971 0 0 1-.194.019 4.094 4.094 0 0 1-.422.019 5 5 0 0 1-1.586-.252.99.99 0 0 1-.7-.669 1.145 1.145 0 0 1 .281-.985 4.426 4.426 0 0 1 1.251-1.009 18.42 18.42 0 0 1 3.434-1.673q4.8-1.819 9.74-3.2c.179-.058.369-.112.568-.155a5.623 5.623 0 0 0 1.184-.369 1.659 1.659 0 0 0 .829-.854q1.04-2.394 2-4.8t1.79-4.884a.116.116 0 0 1 .019-.058 4.179 4.179 0 0 1 .335-.849.457.457 0 0 1 .228-.189.511.511 0 0 1 .281-.024.473.473 0 0 1 .233 0 .455.455 0 0 1 .364.422 3.479 3.479 0 0 1-.243 1.271.116.116 0 0 1-.019.058q-1.04 3.179-2.328 6.247a55.787 55.787 0 0 1-.694 1.673c-.087.2-.175.4-.262.616a1.041 1.041 0 0 0-.136.514c.019.092.087.136.2.131a1.427 1.427 0 0 0 .407-.1c.053-.015.107-.024.165-.039a130.7 130.7 0 0 1 1.867-.47q1.7-.422 3.4-.849 4.2-.99 8.449-1.693a2.805 2.805 0 0 0 1.329-.587 19.742 19.742 0 0 0 2.4-2.154 12.373 12.373 0 0 0 1.96-2.668 5.522 5.522 0 0 0 .7-2.935 4.94 4.94 0 0 0-1.387-2.988 7.976 7.976 0 0 0-1.926-1.484 18.352 18.352 0 0 0-5.457-1.795 40.785 40.785 0 0 0-6.829-.606 61.3 61.3 0 0 0-7.3.369 63.721 63.721 0 0 0-6.839 1.12 36.929 36.929 0 0 0-5.466 1.63 21.426 21.426 0 0 0-3.754 1.926 12.033 12.033 0 0 0-1.358.97 6.919 6.919 0 0 0-1.135 1.213.623.623 0 0 1-.509.315h-.194a.814.814 0 0 1-.243-.034.314.314 0 0 1-.184-.141.459.459 0 0 1-.039-.18.536.536 0 0 1 .019-.16 2.311 2.311 0 0 1 .441-.679c.184-.194.373-.388.568-.572a14.8 14.8 0 0 1 1.6-1.184 23.16 23.16 0 0 1 1.707-.99 27.773 27.773 0 0 1 5.738-2.144 62.544 62.544 0 0 1 7.673-1.533 66.908 66.908 0 0 1 8.425-.635 45.05 45.05 0 0 1 7.95.563 19.65 19.65 0 0 1 6.315 2.061 8.227 8.227 0 0 1 2.091 1.625 5.462 5.462 0 0 1 1.479 2.891 5.281 5.281 0 0 1-.393 2.77 10.554 10.554 0 0 1-1.576 2.561 31.242 31.242 0 0 1-2.066 2.275 2.263 2.263 0 0 0-.252.267.36.36 0 0 0-.107.267c.01.073.116.092.315.068q3.55-.575 7.086-.873t7.116-.4h.213a4.926 4.926 0 0 1 .6.039zm-37.261 10.268a4.293 4.293 0 0 1 .291-.548c.2-.378.407-.8.626-1.256a7.958 7.958 0 0 0 .475-1.208c.1-.344.048-.534-.15-.568a2.1 2.1 0 0 0-.354.087.355.355 0 0 0-.107.019c-.451.141-.9.276-1.358.4q-1.63.473-3.264 1a1.349 1.349 0 0 0-.165.058q-2.925.895-5.767 2.061a16.061 16.061 0 0 0-2.726 1.436 2.42 2.42 0 0 0-.81.742.406.406 0 0 0-.073.349.413.413 0 0 0 .267.247 2.878 2.878 0 0 0 .9.146c.272 0 .538-.015.81-.039h.019a32.552 32.552 0 0 0 4.128-.684q3.223-.713 6.373-1.664a.169.169 0 0 1 .068-.029 1.811 1.811 0 0 0 .461-.175.863.863 0 0 0 .344-.374zm1.8-.373a42.235 42.235 0 0 0 5.181-1.833q3.281-1.339 6.31-2.838a20.56 20.56 0 0 0 4.123-2.469h-.32q-6.65 1.317-13.164 3.138a1.131 1.131 0 0 0-.791.694c-.262.563-.524 1.12-.781 1.673q-.3.618-.6 1.251a.6.6 0 0 0-.049.194.239.239 0 0 0 .078.194z"/>
        <path data-name="Trazado 13410" d="M143.049 42.414a.981.981 0 0 1-.626.868c-.359.136-.475-.044-.349-.529s-.1-.611-.66-.369a4.416 4.416 0 0 0-1.4.912 12.018 12.018 0 0 0-1.5 1.867c-.044.058-.083.107-.107.146-.126.184-.257.364-.383.529a.514.514 0 0 1-.3.218.806.806 0 0 1-.34.015.362.362 0 0 1-.252-.126.225.225 0 0 1-.019-.252 5.761 5.761 0 0 1 .252-.529 352.782 352.782 0 0 1 1.761-3.226.05.05 0 0 0 .019-.039 2.429 2.429 0 0 1 .3-.461.479.479 0 0 1 .441-.175.408.408 0 0 1 .339.3c.068.223.131.349.184.378s.165.01.344-.063a6.067 6.067 0 0 1 1.125-.3 1.807 1.807 0 0 1 .9.044c.233.087.325.349.267.8z"/>
        <path data-name="Trazado 13411" d="M147.729 46.046h-.029a2.237 2.237 0 0 1-1.838-.621 1.5 1.5 0 0 1 .039-1.6 5.1 5.1 0 0 1 1.019-1.329 2.02 2.02 0 0 1 .432-.306 1.055 1.055 0 0 1 .5-.116.674.674 0 0 1 .373.058c.044.015.092.029.136.049a1.1 1.1 0 0 0 .315-.107.363.363 0 0 1 .107-.049 1.654 1.654 0 0 1 .674-.107h.3a1.266 1.266 0 0 1 .858.475 1.209 1.209 0 0 1 .2.946 1.858 1.858 0 0 1-.213.635 3.452 3.452 0 0 1-2.818 2.071zm1.518-3.449a2.009 2.009 0 0 0-1.353.437 3.015 3.015 0 0 0-.883 1.072 1.351 1.351 0 0 0-.16.994c.087.262.354.33.805.218A2.982 2.982 0 0 0 149 44.45a2.759 2.759 0 0 0 .713-1.208c.087-.383-.068-.6-.466-.65z"/>
        <path data-name="Trazado 13412" d="M161.926 43.271a3.138 3.138 0 0 1-.441.146 1.82 1.82 0 0 1-.107.048c-.155.058-.306.112-.461.165q-.655.211-1.339.451a1.326 1.326 0 0 0-.8.635 3.524 3.524 0 0 1-1.179 1.184 5.116 5.116 0 0 1-1.441.6 8.65 8.65 0 0 1-1.3.223 4.694 4.694 0 0 1-.728.024h-.048a1.522 1.522 0 0 0-.461.567c-.155.281-.291.534-.4.762a1.6 1.6 0 0 0-.058.155q-.953 1.906-1.887 3.812l-1.057 2.12a5.835 5.835 0 0 1-.4.723.385.385 0 0 1-.529.107.327.327 0 0 1-.107-.422c.073-.184.146-.373.233-.558q1.652-3.914 3.512-7.746.575-1.186 1.086-2.416l.48-1.164a.463.463 0 0 1 .068-.126 4.26 4.26 0 0 1 .3-.616.4.4 0 0 1 .286-.136.561.561 0 0 1 .364.058.422.422 0 0 1 .194.374.752.752 0 0 1-.048.262.844.844 0 0 0-.049.213.311.311 0 0 0 .068.213.422.422 0 0 0 .272-.044 1.635 1.635 0 0 0 .223-.15.652.652 0 0 1 .252-.126 1.465 1.465 0 0 1 .175-.087 9.377 9.377 0 0 1 .912-.364 1.567 1.567 0 0 1 1.164.087 1.058 1.058 0 0 1 .373.373 2.236 2.236 0 0 1 .194.471c.044.131.16.194.349.2a2.585 2.585 0 0 0 .635-.073c.233-.053.446-.112.64-.17.16-.044.276-.073.344-.087a1.834 1.834 0 0 1 .587-.039.426.426 0 0 1 .16.029c.048.019.073.073.073.155a.2.2 0 0 1-.029.1.161.161 0 0 1-.078.073zm-4.04.635a.573.573 0 0 0 .238-.412 1.041 1.041 0 0 0-.063-.558.286.286 0 0 0-.131-.121.409.409 0 0 0-.17-.034 1.252 1.252 0 0 0-.34.107 7.388 7.388 0 0 0-2.876 2.542c-.141.257-.121.369.053.34a2.961 2.961 0 0 0 .8-.325c.354-.189.718-.407 1.1-.655l.97-.631a4.252 4.252 0 0 1 .422-.252z"/>
        <path data-name="Trazado 13413" d="M169.799 44.63a6.28 6.28 0 0 1-2.542 1.445 5.2 5.2 0 0 1-1.028.141 3.878 3.878 0 0 1-1.557-.233 1.338 1.338 0 0 1-.81-1.8 3.073 3.073 0 0 1 1.368-1.79 3.807 3.807 0 0 1 2.129-.626h.019a1.725 1.725 0 0 1 .529.039.819.819 0 0 1 .538.5.89.89 0 0 1-.155.771 2.19 2.19 0 0 1-1.673 1.038 4.512 4.512 0 0 1-1.358-.068.259.259 0 0 0-.223.068.359.359 0 0 0-.116.213c-.126.553.044.907.509 1.057a2.787 2.787 0 0 0 1.8 0 5.251 5.251 0 0 0 2.052-1.271q.975-.931 1.12-.873c.1.039.131.16.092.359a2.423 2.423 0 0 1-.694 1.019zm-4.1-1.552a.383.383 0 0 0-.082.15.131.131 0 0 0 .063.15 1.158 1.158 0 0 0 .732.141 1.215 1.215 0 0 0 .669-.3.673.673 0 0 0 .238-.6.2.2 0 0 0-.136-.16.4.4 0 0 0-.213-.015 2.494 2.494 0 0 0-1.27.634z"/>
        <path data-name="Trazado 13414" d="M177.491 42.414a.981.981 0 0 1-.626.868c-.359.136-.475-.044-.349-.529s-.1-.611-.66-.369a4.414 4.414 0 0 0-1.4.912 12.011 12.011 0 0 0-1.5 1.867c-.044.058-.082.107-.107.146-.126.184-.257.364-.383.529a.514.514 0 0 1-.3.218.807.807 0 0 1-.34.015.362.362 0 0 1-.252-.126.225.225 0 0 1-.019-.252 5.768 5.768 0 0 1 .252-.529 352.782 352.782 0 0 1 1.761-3.226.05.05 0 0 0 .019-.039 2.432 2.432 0 0 1 .3-.461.479.479 0 0 1 .441-.175.408.408 0 0 1 .339.3c.068.223.131.349.184.378s.165.01.344-.063a6.066 6.066 0 0 1 1.125-.3 1.807 1.807 0 0 1 .9.044c.233.087.325.349.267.8z"/>
        <path data-name="Trazado 13415" d="M186.655 43.674a10.1 10.1 0 0 1-2.527 2.241 3.8 3.8 0 0 1-2.648.475q-1.411-.247-1.159-1.892a10.821 10.821 0 0 1 .47-1.615q.742-1.841 1.5-3.657c.165-.437.344-.878.529-1.319.044-.1.087-.194.126-.286.073-.16.141-.325.213-.49.1-.281-.01-.432-.335-.441h-.829c-.1.015-.194.024-.3.039a5.46 5.46 0 0 1-.495.019.884.884 0 0 1-.456-.126.194.194 0 0 1-.092-.073.208.208 0 0 1-.034-.121.63.63 0 0 1 .063-.092.249.249 0 0 1 .112-.073 2 2 0 0 1 .441-.126c.4-.019.791-.034 1.183-.049h.4a4.094 4.094 0 0 0 .572-.029.419.419 0 0 0 .3-.2 3.906 3.906 0 0 0 .272-.529c.058-.126.126-.272.213-.422.213-.451.422-.907.635-1.378.1-.213.194-.417.3-.616a.94.94 0 0 1 .393-.461.407.407 0 0 1 .451.019.26.26 0 0 1 .092.126.409.409 0 0 1 .034.155 1.556 1.556 0 0 1-.194.742l-.087.184c-.082.233-.175.466-.272.7a28.03 28.03 0 0 0-.529 1.339.207.207 0 0 0 0 .223.212.212 0 0 0 .189.1c.456.015.9.019 1.339.019h.674c.708.015.989.112.849.3a.524.524 0 0 1-.31.189 1.328 1.328 0 0 1-.34 0h-.213q-1.077.065-2.139.087a.638.638 0 0 0-.655.441c-.116.281-.228.563-.335.849-.16.374-.31.737-.451 1.087s-.281.669-.422 1.009q-.546 1.288-1.057 2.59a11.227 11.227 0 0 0-.5 1.732q-.4 1.608 1.242 1.232a7.1 7.1 0 0 0 3.386-2.328c.514-.325.65-.179.4.441z"/>
        <path data-name="Trazado 13416" d="M192.886 44.271a6.761 6.761 0 0 1-1.217 1.12 4.088 4.088 0 0 1-1.586.689 1.871 1.871 0 0 1-1.378-.131c-.325-.2-.393-.66-.194-1.368a9.208 9.208 0 0 1 1.057-2.091.831.831 0 0 1 .441-.3.412.412 0 0 1 .369.073.283.283 0 0 1 .121.3c-.1.233-.2.461-.32.694s-.194.383-.233.451a4.487 4.487 0 0 0-.47 1.29c0 .257.344.272 1.028.049a5.446 5.446 0 0 0 2-1.237c.65-.6.956-.776.931-.529a2.131 2.131 0 0 1-.558.98zm-1.678-3.221a.772.772 0 0 1-.2.092 1.665 1.665 0 0 1-.315.078.34.34 0 0 1-.267-.053c-.063-.053-.068-.155-.01-.306a4.866 4.866 0 0 1 .325-.708 5.956 5.956 0 0 1 .437-.669.627.627 0 0 1 .374-.18.437.437 0 0 1 .34.107.306.306 0 0 1 .078.33 2.933 2.933 0 0 1-.762 1.309z"/>
        <path data-name="Trazado 13417" d="M201.254 44.63a6.281 6.281 0 0 1-2.542 1.445 5.2 5.2 0 0 1-1.028.141 3.879 3.879 0 0 1-1.557-.233 1.338 1.338 0 0 1-.81-1.8 3.072 3.072 0 0 1 1.368-1.79 3.807 3.807 0 0 1 2.129-.626h.019a1.724 1.724 0 0 1 .529.039.819.819 0 0 1 .538.5.89.89 0 0 1-.155.771 2.19 2.19 0 0 1-1.673 1.038 4.512 4.512 0 0 1-1.358-.068.259.259 0 0 0-.223.068.36.36 0 0 0-.116.213c-.126.553.044.907.509 1.057a2.788 2.788 0 0 0 1.8 0 5.252 5.252 0 0 0 2.052-1.271q.975-.931 1.12-.873c.1.039.131.16.092.359a2.424 2.424 0 0 1-.694 1.019zm-4.1-1.552a.383.383 0 0 0-.083.15.131.131 0 0 0 .063.15 1.158 1.158 0 0 0 .732.141 1.215 1.215 0 0 0 .669-.3.673.673 0 0 0 .238-.6.2.2 0 0 0-.136-.16.4.4 0 0 0-.213-.015 2.494 2.494 0 0 0-1.269.634z"/>
        <path data-name="Trazado 13418" d="M208.985 43.442a21.268 21.268 0 0 0-2.192.922 1.325 1.325 0 0 0-.563.4c-.048.107-.01.3.112.582a.107.107 0 0 0 .029.058 3.472 3.472 0 0 1 .252 1.057c.044.737-.582 1.256-1.882 1.547a3.936 3.936 0 0 1-2.61.029.79.79 0 0 1-.4-1.048 3.082 3.082 0 0 1 1.324-1.29c.713-.437 1.188-.752 1.431-.941a.527.527 0 0 0 .218-.645c-.034-.082-.068-.165-.107-.252-.082-.2-.17-.4-.262-.616a2.517 2.517 0 0 1-.218-1.135 1.4 1.4 0 0 1 .412-.936 1.7 1.7 0 0 1 1.179-.407 1.966 1.966 0 0 1 .81.121 1.118 1.118 0 0 1 .568.514.311.311 0 0 1-.107.471.344.344 0 0 1-.393.039 1.024 1.024 0 0 1-.262-.165v-.029c-.039-.024-.073-.053-.107-.078a.569.569 0 0 0-.126-.136.564.564 0 0 0-.5-.112.592.592 0 0 0-.378.388 1.52 1.52 0 0 0-.087.509 1.933 1.933 0 0 0 .146.616c.058.121.107.233.155.335a3.073 3.073 0 0 0 .272.582.255.255 0 0 0 .257.136c.1-.015 1.009-.34 2.731-.975.374-.121.48.029.315.451zm-4.167 3.677a.747.747 0 0 0 .568-.907.293.293 0 0 0-.019-.107 1.4 1.4 0 0 0-.155-.563c-.078-.131-.252-.126-.519.015a10.273 10.273 0 0 0-1.848 1.329c-.039.044-.073.087-.107.126l-.019.029a.172.172 0 0 0-.019.175.166.166 0 0 0 .175.1 3.86 3.86 0 0 0 1.944-.193z"/>
    </g>
</svg>
