<svg xmlns="http://www.w3.org/2000/svg" width="24.474" height="21.246" viewBox="0 0 24.474 21.246">
    <g data-name="Grupo 9406" style="isolation:isolate">
        <g data-name="Grupo 7102">
            <g data-name="Grupo 6726">
                <path data-name="Trazado 10347" d="M21.882 11.432c-1.454 2.289-5.882 6.877-10.144 8.749-4.261-1.872-8.691-6.46-10.145-8.749a9.229 9.229 0 0 1-1.58-5.573A6.3 6.3 0 0 1 2.4 1.3a6.279 6.279 0 0 1 5-1.19 6.317 6.317 0 0 1 4.339 3.316A6.184 6.184 0 0 1 21.078 1.3a6.3 6.3 0 0 1 2.383 4.556 9.23 9.23 0 0 1-1.579 5.574" transform="translate(.5 .519)" style="fill:none;stroke:#caac88"/>
            </g>
        </g>
    </g>
</svg>
